<svg width="19" height="19" viewBox="0 0 19 19" fill="none" xmlns="http://www.w3.org/2000/svg">
<path d="M9.42603 0.42627C4.46343 0.42627 0.426025 4.46372 0.426025 9.42632C0.426025 14.3889 4.46343 18.4263 9.42603 18.4263C14.3886 18.4263 18.426 14.3889 18.426 9.42632C18.426 4.46372 14.3886 0.42627 9.42603 0.42627ZM9.42603 16.7899C5.36566 16.7899 2.06239 13.4866 2.06239 9.42632C2.06239 5.36602 5.36566 2.06263 9.42603 2.06263C13.4864 2.06263 16.7897 5.36602 16.7897 9.42632C16.7897 13.4866 13.4863 16.7899 9.42603 16.7899Z" fill="#1A3D86" fill-opacity="0.5"/>
<path d="M9.4259 4.24438C8.82448 4.24438 8.33521 4.73398 8.33521 5.33578C8.33521 5.93704 8.82448 6.4262 9.4259 6.4262C10.0273 6.4262 10.5166 5.93704 10.5166 5.33578C10.5166 4.73398 10.0273 4.24438 9.4259 4.24438Z" fill="#1A3D86" fill-opacity="0.5"/>
<path d="M9.42609 8.06274C8.97424 8.06274 8.60791 8.42907 8.60791 8.88093V13.79C8.60791 14.2419 8.97424 14.6082 9.42609 14.6082C9.87795 14.6082 10.2443 14.2419 10.2443 13.79V8.88093C10.2443 8.42907 9.87795 8.06274 9.42609 8.06274Z" fill="#1A3D86" fill-opacity="0.5"/>
</svg>
