<svg width="14" height="14" viewBox="0 0 14 14" fill="none" xmlns="http://www.w3.org/2000/svg">
<g clip-path="url(#clip0)">
<path d="M1.85696 13.0333L6.61365 13.0333C7.39549 13.0333 8.03467 12.3856 8.03467 11.6039L8.03467 10.3406C8.03467 10.1448 7.87593 9.98621 7.68016 9.98621C7.4844 9.98621 7.32577 10.1448 7.32577 10.3406L7.32577 11.6039C7.32477 11.9981 7.00784 12.3188 6.61365 12.3244L1.85696 12.3244C1.46598 12.3244 1.15837 11.9947 1.15837 11.6039L1.15837 2.43825C1.15371 2.04971 1.46487 1.73101 1.85341 1.72647L6.61354 1.72647C7.00618 1.72791 7.3241 2.04572 7.32577 2.43825L7.32577 3.67515C7.32577 3.87102 7.4844 4.02965 7.68016 4.02965C7.87593 4.02965 8.03467 3.87102 8.03467 3.67515L8.03467 2.43825C8.03256 1.6543 7.3976 1.01945 6.61365 1.01756L1.85696 1.01756C1.07667 1.02045 0.44636 1.65563 0.449464 2.43603L0.449463 11.6039C0.449463 12.3856 1.07512 13.0333 1.85696 13.0333Z" fill="white"/>
<path d="M12.3576 6.65329L3.96891 6.65329C3.77315 6.65329 3.61441 6.81203 3.61441 7.00779C3.61441 7.20345 3.77315 7.36219 3.96891 7.36219L12.4363 7.36219L10.6177 9.46429C10.4895 9.61338 10.5055 9.83797 10.6531 9.96756C10.8004 10.0964 11.0242 10.0814 11.1529 9.93419L11.1529 9.93397L13.4452 7.29379C13.5296 7.22429 13.5772 7.11964 13.5741 7.01046C13.5708 6.90104 13.5171 6.79928 13.4285 6.73499L11.1361 4.44256C10.9976 4.3041 10.7732 4.3041 10.6349 4.44256C10.4982 4.57669 10.4961 4.79595 10.6302 4.93263C10.6317 4.93408 10.6333 4.93563 10.6349 4.93718L12.3576 6.65329Z" fill="white"/>
</g>
<defs>
<clipPath id="clip0">
<rect width="14" height="14" fill="white" transform="translate(14 14) rotate(-180)"/>
</clipPath>
</defs>
</svg>
