<svg width="86" height="46" viewBox="0 0 86 46" fill="none" xmlns="http://www.w3.org/2000/svg">
<g filter="url(#filter0_d)">
<path fill-rule="evenodd" clip-rule="evenodd" d="M5 0C2.79086 0 1 1.79086 1 4L1 12.5C5.14214 12.5 8.5 15.8578 8.5 20C8.5 24.1421 5.14214 27.5 1 27.5L1 36C1 38.2091 2.79087 40 5 40H77C79.2091 40 81 38.2091 81 36L81 27.5C76.8579 27.5 73.5 24.1421 73.5 20C73.5 15.8579 76.8579 12.5 81 12.5L81 4C81 1.79086 79.2091 0 77 0L5 0Z" fill="url(#paint0_linear)"/>
</g>
<mask id="mask0" mask-type="alpha" maskUnits="userSpaceOnUse" x="1" y="0" width="80" height="40">
<path fill-rule="evenodd" clip-rule="evenodd" d="M5 0C2.79086 0 1 1.79086 1 4L1 12.5C5.14214 12.5 8.5 15.8578 8.5 20C8.5 24.1421 5.14214 27.5 1 27.5L1 36C1 38.2091 2.79087 40 5 40H77C79.2091 40 81 38.2091 81 36L81 27.5C76.8579 27.5 73.5 24.1421 73.5 20C73.5 15.8579 76.8579 12.5 81 12.5L81 4C81 1.79086 79.2091 0 77 0L5 0Z" fill="url(#paint1_linear)"/>
</mask>
<g mask="url(#mask0)">
<line x1="8.38452" y1="0.115234" x2="73.6153" y2="0.115234" stroke="url(#paint2_linear)"/>
<line opacity="0.7" x1="8.38452" y1="39.5" x2="73.6153" y2="39.5" stroke="url(#paint3_linear)"/>
</g>
<defs>
<filter id="filter0_d" x="0" y="0" width="86" height="46" filterUnits="userSpaceOnUse" color-interpolation-filters="sRGB">
<feFlood flood-opacity="0" result="BackgroundImageFix"/>
<feColorMatrix in="SourceAlpha" type="matrix" values="0 0 0 0 0 0 0 0 0 0 0 0 0 0 0 0 0 0 127 0"/>
<feOffset dx="2" dy="3"/>
<feGaussianBlur stdDeviation="1.5"/>
<feColorMatrix type="matrix" values="0 0 0 0 0 0 0 0 0 0 0 0 0 0 0 0 0 0 0.15 0"/>
<feBlend mode="normal" in2="BackgroundImageFix" result="effect1_dropShadow"/>
<feBlend mode="normal" in="SourceGraphic" in2="effect1_dropShadow" result="shape"/>
</filter>
<linearGradient id="paint0_linear" x1="81" y1="-2.38419e-06" x2="81" y2="40" gradientUnits="userSpaceOnUse">
<stop stop-color="#FDED8D"/>
<stop offset="1" stop-color="#FFD046"/>
</linearGradient>
<linearGradient id="paint1_linear" x1="81" y1="-2.38419e-06" x2="81" y2="40" gradientUnits="userSpaceOnUse">
<stop stop-color="#FDED8D"/>
<stop offset="1" stop-color="#FFD046"/>
</linearGradient>
<linearGradient id="paint2_linear" x1="73.6153" y1="-0.384928" x2="8.38197" y2="-0.173863" gradientUnits="userSpaceOnUse">
<stop stop-color="white" stop-opacity="0"/>
<stop offset="0.276042" stop-color="white"/>
<stop offset="0.708333" stop-color="white"/>
<stop offset="1" stop-color="white" stop-opacity="0"/>
</linearGradient>
<linearGradient id="paint3_linear" x1="73.6153" y1="38.9998" x2="8.38197" y2="39.2109" gradientUnits="userSpaceOnUse">
<stop stop-color="white" stop-opacity="0"/>
<stop offset="0.276042" stop-color="white"/>
<stop offset="0.708333" stop-color="white"/>
<stop offset="1" stop-color="white" stop-opacity="0"/>
</linearGradient>
</defs>
</svg>
