<svg width="97" height="74" viewBox="0 0 97 74" fill="none" xmlns="http://www.w3.org/2000/svg">
<g filter="url(#filter0_d)">
<path fill-rule="evenodd" clip-rule="evenodd" d="M19.8518 3.559C17.7759 2.80343 15.4805 3.87378 14.7249 5.94969L11.8178 13.937C11.8178 13.937 11.8178 13.937 11.8178 13.937C15.7101 15.3537 17.717 19.6575 16.3003 23.5499C14.8836 27.4422 10.5798 29.4491 6.68749 28.0324L3.78029 36.0198C3.02472 38.0958 4.09507 40.3911 6.17098 41.1467L73.8288 65.7721C75.9048 66.5277 78.2001 65.4574 78.9557 63.3815L81.8627 55.3945C81.8627 55.3945 81.8627 55.3944 81.8627 55.3944C77.9703 53.9777 75.9634 49.6739 77.3801 45.7816C78.7968 41.8893 83.1006 39.8824 86.993 41.2991C86.993 41.2991 86.993 41.2991 86.993 41.2991L89.9003 33.3113C90.6559 31.2354 89.5856 28.94 87.5096 28.1844L19.8518 3.559Z" fill="url(#paint0_linear)"/>
</g>
<line x1="22.9928" y1="4.82459" x2="84.2896" y2="27.1348" stroke="url(#paint1_linear)"/>
<line opacity="0.7" x1="9.52233" y1="41.8348" x2="70.8192" y2="64.1451" stroke="url(#paint2_linear)"/>
<g filter="url(#filter1_d)">
<path fill-rule="evenodd" clip-rule="evenodd" d="M14.8604 8.71803C12.6848 8.33442 10.6102 9.78709 10.2265 11.9627L8.75055 20.3335C8.75055 20.3335 8.75055 20.3335 8.75056 20.3335C12.8298 21.0528 15.5535 24.9427 14.8343 29.0219C14.115 33.1011 10.225 35.8249 6.14584 35.1056L4.66981 43.4765C4.2862 45.6521 5.73887 47.7267 7.91445 48.1103L78.8206 60.613C80.9962 60.9966 83.0708 59.5439 83.4544 57.3684L84.9304 48.9979C84.9303 48.9979 84.9303 48.9979 84.9303 48.9979C80.8511 48.2786 78.1273 44.3887 78.8466 40.3095C79.5659 36.2303 83.4558 33.5065 87.535 34.2258C87.535 34.2258 87.5351 34.2258 87.5351 34.2258L89.0112 25.8545C89.3948 23.6789 87.9421 21.6043 85.7665 21.2207L14.8604 8.71803Z" fill="url(#paint3_linear)"/>
</g>
<line x1="18.1735" y1="9.41922" x2="82.4133" y2="20.7464" stroke="url(#paint4_linear)"/>
<line opacity="0.7" x1="11.3341" y1="48.2058" x2="75.5739" y2="59.533" stroke="url(#paint5_linear)"/>
<g filter="url(#filter2_d)">
<path fill-rule="evenodd" clip-rule="evenodd" d="M11.0139 13.6807C8.80478 13.6807 7.01392 15.4715 7.01392 17.6807V26.1806C7.01392 26.1806 7.01392 26.1806 7.01393 26.1806C11.1561 26.1806 14.5139 29.5385 14.5139 33.6806C14.5139 37.8228 11.1561 41.1806 7.01393 41.1806L7.01392 49.6807C7.01392 51.8898 8.80478 53.6807 11.0139 53.6807H83.0139C85.223 53.6807 87.0139 51.8898 87.0139 49.6807V41.1811C87.0139 41.1811 87.0139 41.1811 87.0138 41.1811C82.8717 41.1811 79.5138 37.8232 79.5138 33.6811C79.5138 29.5389 82.8717 26.1811 87.0138 26.1811C87.0139 26.1811 87.0139 26.1811 87.0139 26.1811V17.6807C87.0139 15.4715 85.223 13.6807 83.0139 13.6807H11.0139Z" fill="url(#paint6_linear)"/>
</g>
<line x1="14.3984" y1="13.7959" x2="79.6292" y2="13.7959" stroke="url(#paint7_linear)"/>
<line opacity="0.7" x1="14.3984" y1="53.1807" x2="79.6292" y2="53.1807" stroke="url(#paint8_linear)"/>
<defs>
<filter id="filter0_d" x="1.41211" y="2.19092" width="94.8562" height="70.9493" filterUnits="userSpaceOnUse" color-interpolation-filters="sRGB">
<feFlood flood-opacity="0" result="BackgroundImageFix"/>
<feColorMatrix in="SourceAlpha" type="matrix" values="0 0 0 0 0 0 0 0 0 0 0 0 0 0 0 0 0 0 127 0"/>
<feOffset dx="2" dy="3"/>
<feGaussianBlur stdDeviation="1.5"/>
<feColorMatrix type="matrix" values="0 0 0 0 0 0 0 0 0 0 0 0 0 0 0 0 0 0 0.15 0"/>
<feBlend mode="normal" in2="BackgroundImageFix" result="effect1_dropShadow"/>
<feBlend mode="normal" in="SourceGraphic" in2="effect1_dropShadow" result="shape"/>
</filter>
<filter id="filter1_d" x="2.9751" y="8.02344" width="91.7305" height="59.2842" filterUnits="userSpaceOnUse" color-interpolation-filters="sRGB">
<feFlood flood-opacity="0" result="BackgroundImageFix"/>
<feColorMatrix in="SourceAlpha" type="matrix" values="0 0 0 0 0 0 0 0 0 0 0 0 0 0 0 0 0 0 127 0"/>
<feOffset dx="2" dy="3"/>
<feGaussianBlur stdDeviation="1.5"/>
<feColorMatrix type="matrix" values="0 0 0 0 0 0 0 0 0 0 0 0 0 0 0 0 0 0 0.15 0"/>
<feBlend mode="normal" in2="BackgroundImageFix" result="effect1_dropShadow"/>
<feBlend mode="normal" in="SourceGraphic" in2="effect1_dropShadow" result="shape"/>
</filter>
<filter id="filter2_d" x="6.01392" y="13.6807" width="86" height="46" filterUnits="userSpaceOnUse" color-interpolation-filters="sRGB">
<feFlood flood-opacity="0" result="BackgroundImageFix"/>
<feColorMatrix in="SourceAlpha" type="matrix" values="0 0 0 0 0 0 0 0 0 0 0 0 0 0 0 0 0 0 127 0"/>
<feOffset dx="2" dy="3"/>
<feGaussianBlur stdDeviation="1.5"/>
<feColorMatrix type="matrix" values="0 0 0 0 0 0 0 0 0 0 0 0 0 0 0 0 0 0 0.15 0"/>
<feBlend mode="normal" in2="BackgroundImageFix" result="effect1_dropShadow"/>
<feBlend mode="normal" in="SourceGraphic" in2="effect1_dropShadow" result="shape"/>
</filter>
<linearGradient id="paint0_linear" x1="91.2684" y1="29.5525" x2="77.5876" y2="67.1402" gradientUnits="userSpaceOnUse">
<stop stop-color="#FDED8D"/>
<stop offset="1" stop-color="#FFD046"/>
</linearGradient>
<linearGradient id="paint1_linear" x1="84.4607" y1="26.6648" x2="23.0893" y2="4.55205" gradientUnits="userSpaceOnUse">
<stop stop-color="white" stop-opacity="0"/>
<stop offset="0.276042" stop-color="white"/>
<stop offset="0.708333" stop-color="white"/>
<stop offset="1" stop-color="white" stop-opacity="0"/>
</linearGradient>
<linearGradient id="paint2_linear" x1="70.9903" y1="63.6751" x2="9.61881" y2="41.5623" gradientUnits="userSpaceOnUse">
<stop stop-color="white" stop-opacity="0"/>
<stop offset="0.276042" stop-color="white"/>
<stop offset="0.708333" stop-color="white"/>
<stop offset="1" stop-color="white" stop-opacity="0"/>
</linearGradient>
<linearGradient id="paint3_linear" x1="89.7057" y1="21.9153" x2="82.7598" y2="61.3076" gradientUnits="userSpaceOnUse">
<stop stop-color="#FDED8D"/>
<stop offset="1" stop-color="#FFD046"/>
</linearGradient>
<linearGradient id="paint4_linear" x1="82.5001" y1="20.2539" x2="18.2212" y2="9.13407" gradientUnits="userSpaceOnUse">
<stop stop-color="white" stop-opacity="0"/>
<stop offset="0.276042" stop-color="white"/>
<stop offset="0.708333" stop-color="white"/>
<stop offset="1" stop-color="white" stop-opacity="0"/>
</linearGradient>
<linearGradient id="paint5_linear" x1="75.6607" y1="59.0405" x2="11.3818" y2="47.9207" gradientUnits="userSpaceOnUse">
<stop stop-color="white" stop-opacity="0"/>
<stop offset="0.276042" stop-color="white"/>
<stop offset="0.708333" stop-color="white"/>
<stop offset="1" stop-color="white" stop-opacity="0"/>
</linearGradient>
<linearGradient id="paint6_linear" x1="87.0139" y1="13.6807" x2="87.0139" y2="53.6807" gradientUnits="userSpaceOnUse">
<stop stop-color="#FDED8D"/>
<stop offset="1" stop-color="#FFD046"/>
</linearGradient>
<linearGradient id="paint7_linear" x1="79.6292" y1="13.2957" x2="14.3959" y2="13.5068" gradientUnits="userSpaceOnUse">
<stop stop-color="white" stop-opacity="0"/>
<stop offset="0.276042" stop-color="white"/>
<stop offset="0.708333" stop-color="white"/>
<stop offset="1" stop-color="white" stop-opacity="0"/>
</linearGradient>
<linearGradient id="paint8_linear" x1="79.6292" y1="52.6805" x2="14.3959" y2="52.8916" gradientUnits="userSpaceOnUse">
<stop stop-color="white" stop-opacity="0"/>
<stop offset="0.276042" stop-color="white"/>
<stop offset="0.708333" stop-color="white"/>
<stop offset="1" stop-color="white" stop-opacity="0"/>
</linearGradient>
</defs>
</svg>
