<svg width="18" height="18" viewBox="0 0 18 18" fill="none" xmlns="http://www.w3.org/2000/svg">
<path d="M9 0C4.0374 0 0 4.03735 0 9C0 13.9625 4.0374 18 9 18C13.9626 18 18 13.9625 18 9C18 4.03735 13.9626 0 9 0ZM9 16.3636C4.93969 16.3636 1.63636 13.0603 1.63636 9C1.63636 4.93969 4.93969 1.63636 9 1.63636C13.0603 1.63636 16.3636 4.93969 16.3636 9C16.3636 13.0603 13.0603 16.3636 9 16.3636Z" fill="#1A3D86" fill-opacity="0.5"/>
<path d="M11.5455 6.93385L9.81812 8.66109V4.09089C9.81812 3.63898 9.4518 3.27271 8.99994 3.27271C8.54809 3.27271 8.18176 3.63898 8.18176 4.09089V8.66109L6.45458 6.93385C6.13511 6.61438 5.61703 6.61438 5.29751 6.93385C4.97798 7.25343 4.97798 7.7714 5.29751 8.09092L8.42138 11.2148C8.58114 11.3746 8.79054 11.4545 8.99989 11.4545C9.20923 11.4545 9.41869 11.3746 9.57845 11.2149L12.7025 8.09103C13.022 7.77156 13.0221 7.25349 12.7026 6.93385C12.383 6.61438 11.865 6.61438 11.5455 6.93385Z" fill="#1A3D86" fill-opacity="0.5"/>
<path d="M10.6363 13.0908H7.36359C6.91174 13.0908 6.54541 13.4571 6.54541 13.909C6.54541 14.3608 6.91174 14.7272 7.36359 14.7272H10.6363C11.0882 14.7272 11.4545 14.3608 11.4545 13.909C11.4545 13.4571 11.0882 13.0908 10.6363 13.0908Z" fill="#1A3D86" fill-opacity="0.5"/>
</svg>
