<svg width="300" height="119" viewBox="0 0 300 119" fill="none" xmlns="http://www.w3.org/2000/svg">
<g filter="url(#filter0_d)">
<path d="M23.3944 11H24.4294V0.455H23.3944V11ZM27.3345 11H28.3695V4.37H30.2895V3.515H28.3695V3.185C28.3695 1.505 29.4645 1.295 30.0495 1.295C30.2145 1.295 30.3495 1.31 30.4095 1.325V0.424999C30.2595 0.395 30.1245 0.38 29.9445 0.38C29.1045 0.38 27.3345 0.694999 27.3345 3.17V3.515H26.3895V4.37H27.3345V11ZM35.3112 11H36.3312V7.31C36.3312 5.555 37.5912 4.235 39.1962 4.235C40.6512 4.235 40.8462 5.285 40.8462 6.47V11H41.8662V6.2C41.8662 4.34 41.2062 3.275 39.3312 3.275C37.5612 3.275 36.5712 4.55 36.2862 5.24H36.2562C36.2562 5.24 36.3162 4.97 36.3162 4.64V3.455H35.3112V11ZM43.7074 7.19C43.7074 9.47 45.4774 11.18 47.6824 11.18C49.8874 11.18 51.6724 9.47 51.6724 7.19C51.6724 4.955 49.8874 3.275 47.6824 3.275C45.4774 3.275 43.7074 4.955 43.7074 7.19ZM44.7574 7.19C44.7574 5.48 46.0624 4.19 47.6824 4.19C49.3024 4.19 50.6224 5.48 50.6224 7.19C50.6224 8.96 49.3024 10.25 47.6824 10.25C46.0624 10.25 44.7574 8.96 44.7574 7.19ZM56.8178 7.19C56.8178 9.47 58.5878 11.18 60.7928 11.18C62.9978 11.18 64.7828 9.47 64.7828 7.19C64.7828 4.955 62.9978 3.275 60.7928 3.275C58.5878 3.275 56.8178 4.955 56.8178 7.19ZM57.8678 7.19C57.8678 5.48 59.1728 4.19 60.7928 4.19C62.4128 4.19 63.7328 5.48 63.7328 7.19C63.7328 8.96 62.4128 10.25 60.7928 10.25C59.1728 10.25 57.8678 8.96 57.8678 7.19ZM66.6881 11H67.7081V7.31C67.7081 5.555 68.9681 4.235 70.5731 4.235C72.0281 4.235 72.2231 5.285 72.2231 6.47V11H73.2431V6.2C73.2431 4.34 72.5831 3.275 70.7081 3.275C68.9381 3.275 67.9481 4.55 67.6631 5.24H67.6331C67.6331 5.24 67.6931 4.97 67.6931 4.64V3.455H66.6881V11ZM75.0844 7.235C75.0844 9.56 76.7944 11.18 79.0444 11.18C80.0344 11.18 81.1294 10.775 81.8344 10.13L81.3694 9.35C80.7544 9.905 79.8994 10.25 79.0744 10.25C77.5144 10.25 76.1944 9.185 76.1494 7.265H81.9394C81.9544 7.1 81.9694 6.92 81.9694 6.755C81.9694 4.88 80.9044 3.275 78.8194 3.275C76.7794 3.275 75.0844 4.76 75.0844 7.235ZM76.1944 6.455C76.4344 4.94 77.5294 4.115 78.7894 4.115C79.9144 4.115 80.8744 4.88 80.9344 6.455H76.1944ZM87.6354 11H88.6554V7.355C88.6554 5.54 89.9304 4.235 91.5204 4.235C92.9754 4.235 93.1704 5.285 93.1704 6.47V11H94.1904V6.2C94.1904 4.34 93.5304 3.275 91.6554 3.275C89.9454 3.275 88.9254 4.505 88.6404 5.21H88.6104C88.6104 5.21 88.6554 4.94 88.6554 4.595V0.455H87.6354V11ZM95.8817 8.975C95.8817 10.43 97.1567 11.18 98.4317 11.18C99.6467 11.18 100.592 10.4 100.982 9.485H101.012C101.012 9.485 100.967 9.74 100.967 10.115V11H101.942V6.17C101.942 4.28 100.937 3.275 99.1217 3.275C98.1167 3.275 97.0517 3.62 96.4517 4.13L96.9167 4.91C97.5317 4.46 98.2967 4.19 99.0617 4.19C100.127 4.19 100.922 4.685 100.922 6.14V6.35H100.472C99.0317 6.35 95.8817 6.5 95.8817 8.975ZM96.9167 8.885C96.9167 7.205 99.3167 7.16 100.487 7.16H100.922V7.505C100.922 8.825 100.067 10.325 98.6117 10.325C97.4867 10.325 96.9167 9.59 96.9167 8.885ZM103.631 10.085C104.351 10.835 105.431 11.18 106.436 11.18C107.921 11.18 108.986 10.295 108.986 9.05C108.986 6.56 104.951 7.07 104.951 5.345C104.951 4.52 105.671 4.175 106.466 4.175C107.141 4.175 107.921 4.43 108.356 4.865L108.836 4.1C108.221 3.515 107.336 3.275 106.511 3.275C105.131 3.275 103.946 3.995 103.946 5.375C103.946 7.85 107.966 7.385 107.966 9.065C107.966 9.86 107.291 10.28 106.451 10.28C105.626 10.28 104.741 9.95 104.171 9.365L103.631 10.085ZM114.618 11H115.593V10.25C115.593 9.89 115.548 9.635 115.548 9.635H115.578C116.058 10.58 117.018 11.18 118.083 11.18C120.078 11.18 121.488 9.62 121.488 7.22C121.488 4.895 120.243 3.275 118.203 3.275C117.048 3.275 116.073 3.875 115.623 4.805H115.593C115.593 4.805 115.638 4.535 115.638 4.175V0.455H114.618V11ZM115.608 7.25C115.608 5.105 116.793 4.205 118.053 4.205C119.463 4.205 120.453 5.39 120.453 7.235C120.453 9.155 119.343 10.265 118.008 10.265C116.403 10.265 115.608 8.765 115.608 7.25ZM122.941 7.19C122.941 9.47 124.711 11.18 126.916 11.18C129.121 11.18 130.906 9.47 130.906 7.19C130.906 4.955 129.121 3.275 126.916 3.275C124.711 3.275 122.941 4.955 122.941 7.19ZM123.991 7.19C123.991 5.48 125.296 4.19 126.916 4.19C128.536 4.19 129.856 5.48 129.856 7.19C129.856 8.96 128.536 10.25 126.916 10.25C125.296 10.25 123.991 8.96 123.991 7.19ZM132.721 8.255C132.721 10.22 133.471 11.18 135.256 11.18C136.921 11.18 137.941 9.95 138.226 9.215H138.256C138.256 9.215 138.196 9.485 138.196 9.815V11H139.201V3.455H138.181V7.07C138.181 8.705 137.116 10.22 135.391 10.22C133.936 10.22 133.756 9.17 133.756 7.985V3.455H132.721V8.255ZM142.215 12.71L141.84 13.535C142.575 13.925 143.445 14.15 144.3 14.15C146.16 14.15 147.93 13.22 147.93 10.82V3.455H146.94V4.34C146.94 4.505 146.97 4.595 146.97 4.595H146.94C146.475 3.665 145.44 3.275 144.435 3.275C142.41 3.275 141.165 4.82 141.165 7.085C141.165 9.35 142.5 10.955 144.525 10.955C145.695 10.955 146.475 10.415 146.925 9.56H146.955C146.955 9.56 146.895 9.83 146.895 10.115V10.865C146.895 12.545 145.74 13.22 144.27 13.22C143.565 13.22 142.8 13.01 142.215 12.71ZM142.2 7.07C142.2 5.27 143.07 4.19 144.54 4.19C145.875 4.19 146.925 4.88 146.925 7.085C146.925 9.305 145.875 10.04 144.675 10.04C143.19 10.04 142.2 8.885 142.2 7.07ZM150.36 11H151.38V7.355C151.38 5.54 152.655 4.235 154.245 4.235C155.7 4.235 155.895 5.285 155.895 6.47V11H156.915V6.2C156.915 4.34 156.255 3.275 154.38 3.275C152.67 3.275 151.65 4.505 151.365 5.21H151.335C151.335 5.21 151.38 4.94 151.38 4.595V0.455H150.36V11ZM159.536 8.255C159.536 10.775 161.306 11.06 162.176 11.06C162.371 11.06 162.521 11.045 162.611 11.03V10.115C162.476 10.145 162.371 10.145 162.266 10.145C161.681 10.145 160.556 9.905 160.556 8.15V4.37H162.461V3.515H160.556V1.37H159.551V3.515H158.546V4.37H159.536V8.255ZM167.234 8.975C167.234 10.43 168.509 11.18 169.784 11.18C170.999 11.18 171.944 10.4 172.334 9.485H172.364C172.364 9.485 172.319 9.74 172.319 10.115V11H173.294V6.17C173.294 4.28 172.289 3.275 170.474 3.275C169.469 3.275 168.404 3.62 167.804 4.13L168.269 4.91C168.884 4.46 169.649 4.19 170.414 4.19C171.479 4.19 172.274 4.685 172.274 6.14V6.35H171.824C170.384 6.35 167.234 6.5 167.234 8.975ZM168.269 8.885C168.269 7.205 170.669 7.16 171.839 7.16H172.274V7.505C172.274 8.825 171.419 10.325 169.964 10.325C168.839 10.325 168.269 9.59 168.269 8.885ZM179.37 8.255C179.37 10.775 181.14 11.06 182.01 11.06C182.205 11.06 182.355 11.045 182.445 11.03V10.115C182.31 10.145 182.205 10.145 182.1 10.145C181.515 10.145 180.39 9.905 180.39 8.15V4.37H182.295V3.515H180.39V1.37H179.385V3.515H178.38V4.37H179.37V8.255ZM183.933 1.73H185.043V0.455H183.933V1.73ZM183.978 11H184.998V3.455H183.978V11ZM186.925 7.235C186.925 9.575 188.65 11.18 190.885 11.18C192.04 11.18 193.165 10.715 193.825 9.98L193.36 9.215C192.76 9.875 191.815 10.25 190.945 10.25C189.265 10.25 187.975 9.005 187.975 7.235C187.975 5.435 189.265 4.19 190.915 4.19C191.755 4.19 192.595 4.58 193.12 5.12L193.645 4.355C192.97 3.62 191.875 3.275 190.885 3.275C188.665 3.275 186.925 4.91 186.925 7.235ZM195.565 11H196.585V7.235H197.815L200.32 11H201.55L198.655 6.77V6.74L201.28 3.455H200.05L197.8 6.335H196.585V0.455H195.565V11ZM202.204 7.235C202.204 9.56 203.914 11.18 206.164 11.18C207.154 11.18 208.249 10.775 208.954 10.13L208.489 9.35C207.874 9.905 207.019 10.25 206.194 10.25C204.634 10.25 203.314 9.185 203.269 7.265H209.059C209.074 7.1 209.089 6.92 209.089 6.755C209.089 4.88 208.024 3.275 205.939 3.275C203.899 3.275 202.204 4.76 202.204 7.235ZM203.314 6.455C203.554 4.94 204.649 4.115 205.909 4.115C207.034 4.115 207.994 4.88 208.054 6.455H203.314ZM211.216 8.255C211.216 10.775 212.986 11.06 213.856 11.06C214.051 11.06 214.201 11.045 214.291 11.03V10.115C214.156 10.145 214.051 10.145 213.946 10.145C213.361 10.145 212.236 9.905 212.236 8.15V4.37H214.141V3.515H212.236V1.37H211.231V3.515H210.226V4.37H211.216V8.255ZM220.978 11H222.103L223.933 5.63C224.053 5.255 224.173 4.805 224.173 4.805H224.203C224.203 4.805 224.308 5.255 224.428 5.63L226.273 11H227.398L229.933 3.455H228.853L227.038 9.065C226.903 9.455 226.813 9.875 226.813 9.875H226.783C226.783 9.875 226.663 9.44 226.543 9.065L224.698 3.485H223.678L221.833 9.065C221.713 9.44 221.593 9.875 221.593 9.875H221.563C221.563 9.875 221.458 9.44 221.338 9.065L219.523 3.455H218.428L220.978 11ZM231.541 1.73H232.651V0.455H231.541V1.73ZM231.586 11H232.606V3.455H231.586V11ZM235.313 8.255C235.313 10.775 237.083 11.06 237.953 11.06C238.148 11.06 238.298 11.045 238.388 11.03V10.115C238.253 10.145 238.148 10.145 238.043 10.145C237.458 10.145 236.333 9.905 236.333 8.15V4.37H238.238V3.515H236.333V1.37H235.328V3.515H234.323V4.37H235.313V8.255ZM239.921 11H240.941V7.355C240.941 5.54 242.216 4.235 243.806 4.235C245.261 4.235 245.456 5.285 245.456 6.47V11H246.476V6.2C246.476 4.34 245.816 3.275 243.941 3.275C242.231 3.275 241.211 4.505 240.926 5.21H240.896C240.896 5.21 240.941 4.94 240.941 4.595V0.455H239.921V11ZM248.782 1.73H249.892V0.455H248.782V1.73ZM248.827 11H249.847V3.455H248.827V11ZM252.284 11H253.304V7.31C253.304 5.555 254.564 4.235 256.169 4.235C257.624 4.235 257.819 5.285 257.819 6.47V11H258.839V6.2C258.839 4.34 258.179 3.275 256.304 3.275C254.534 3.275 253.544 4.55 253.259 5.24H253.229C253.229 5.24 253.289 4.97 253.289 4.64V3.455H252.284V11ZM264.58 11H270.295V10.07H267.97V0.455H267.01L264.625 2.825L265.285 3.485L266.41 2.375C266.83 1.955 266.935 1.745 266.935 1.745H266.965C266.965 1.745 266.95 2.03 266.95 2.33V10.07H264.58V11ZM271.61 9.695C272.315 10.64 273.485 11.18 274.7 11.18C276.755 11.18 278.36 9.665 278.36 7.715C278.36 5.825 276.845 4.28 274.73 4.28C274.115 4.28 273.425 4.505 273.14 4.685H273.11C273.11 4.685 273.155 4.46 273.2 4.085L273.515 1.385H277.7V0.455H272.6L272.03 5.57L272.69 5.81C273.215 5.45 273.965 5.225 274.61 5.225C276.125 5.225 277.28 6.275 277.28 7.715C277.28 9.155 276.11 10.175 274.655 10.175C273.47 10.175 272.69 9.545 272.285 8.96L271.61 9.695ZM18.092 35H19.112V31.355C19.112 29.825 20.162 28.22 21.692 28.22C23.117 28.22 23.282 29.315 23.282 30.455V35H24.302V31.355C24.302 29.795 25.322 28.22 26.837 28.22C28.202 28.22 28.457 29.21 28.457 30.455V35H29.477V30.2C29.477 28.34 28.802 27.275 26.972 27.275C25.712 27.275 24.617 28.205 24.197 29.165H24.167C23.957 27.935 23.237 27.275 21.842 27.275C20.657 27.275 19.442 28.22 19.067 29.24H19.037C19.037 29.24 19.097 28.97 19.097 28.64V27.455H18.092V35ZM31.7872 25.73H32.8972V24.455H31.7872V25.73ZM31.8322 35H32.8522V27.455H31.8322V35ZM35.2892 35H36.3092V31.31C36.3092 29.555 37.5692 28.235 39.1742 28.235C40.6292 28.235 40.8242 29.285 40.8242 30.47V35H41.8442V30.2C41.8442 28.34 41.1842 27.275 39.3092 27.275C37.5392 27.275 36.5492 28.55 36.2642 29.24H36.2342C36.2342 29.24 36.2942 28.97 36.2942 28.64V27.455H35.2892V35ZM44.1055 32.255C44.1055 34.22 44.8555 35.18 46.6405 35.18C48.3055 35.18 49.3255 33.95 49.6105 33.215H49.6405C49.6405 33.215 49.5805 33.485 49.5805 33.815V35H50.5855V27.455H49.5655V31.07C49.5655 32.705 48.5005 34.22 46.7755 34.22C45.3205 34.22 45.1405 33.17 45.1405 31.985V27.455H44.1055V32.255ZM53.2838 32.255C53.2838 34.775 55.0538 35.06 55.9238 35.06C56.1188 35.06 56.2688 35.045 56.3588 35.03V34.115C56.2238 34.145 56.1188 34.145 56.0138 34.145C55.4288 34.145 54.3038 33.905 54.3038 32.15V28.37H56.2088V27.515H54.3038V25.37H53.2988V27.515H52.2938V28.37H53.2838V32.255ZM57.3085 31.235C57.3085 33.56 59.0185 35.18 61.2685 35.18C62.2585 35.18 63.3535 34.775 64.0585 34.13L63.5935 33.35C62.9785 33.905 62.1235 34.25 61.2985 34.25C59.7385 34.25 58.4185 33.185 58.3735 31.265H64.1635C64.1785 31.1 64.1935 30.92 64.1935 30.755C64.1935 28.88 63.1285 27.275 61.0435 27.275C59.0035 27.275 57.3085 28.76 57.3085 31.235ZM58.4185 30.455C58.6585 28.94 59.7535 28.115 61.0135 28.115C62.1385 28.115 63.0985 28.88 63.1585 30.455H58.4185ZM65.4495 34.085C66.1695 34.835 67.2495 35.18 68.2545 35.18C69.7395 35.18 70.8045 34.295 70.8045 33.05C70.8045 30.56 66.7695 31.07 66.7695 29.345C66.7695 28.52 67.4895 28.175 68.2845 28.175C68.9595 28.175 69.7395 28.43 70.1745 28.865L70.6545 28.1C70.0395 27.515 69.1545 27.275 68.3295 27.275C66.9495 27.275 65.7645 27.995 65.7645 29.375C65.7645 31.85 69.7845 31.385 69.7845 33.065C69.7845 33.86 69.1095 34.28 68.2695 34.28C67.4445 34.28 66.5595 33.95 65.9895 33.365L65.4495 34.085ZM75.7767 32.975C75.7767 34.43 77.0517 35.18 78.3267 35.18C79.5417 35.18 80.4867 34.4 80.8767 33.485H80.9067C80.9067 33.485 80.8617 33.74 80.8617 34.115V35H81.8367V30.17C81.8367 28.28 80.8317 27.275 79.0167 27.275C78.0117 27.275 76.9467 27.62 76.3467 28.13L76.8117 28.91C77.4267 28.46 78.1917 28.19 78.9567 28.19C80.0217 28.19 80.8167 28.685 80.8167 30.14V30.35H80.3667C78.9267 30.35 75.7767 30.5 75.7767 32.975ZM76.8117 32.885C76.8117 31.205 79.2117 31.16 80.3817 31.16H80.8167V31.505C80.8167 32.825 79.9617 34.325 78.5067 34.325C77.3817 34.325 76.8117 33.59 76.8117 32.885ZM84.4707 35H85.5057V28.37H87.4257V27.515H85.5057V27.185C85.5057 25.505 86.6007 25.295 87.1857 25.295C87.3507 25.295 87.4857 25.31 87.5457 25.325V24.425C87.3957 24.395 87.2607 24.38 87.0807 24.38C86.2407 24.38 84.4707 24.695 84.4707 27.17V27.515H83.5257V28.37H84.4707V35ZM89.2897 32.255C89.2897 34.775 91.0597 35.06 91.9297 35.06C92.1247 35.06 92.2747 35.045 92.3647 35.03V34.115C92.2297 34.145 92.1247 34.145 92.0197 34.145C91.4347 34.145 90.3097 33.905 90.3097 32.15V28.37H92.2147V27.515H90.3097V25.37H89.3047V27.515H88.2997V28.37H89.2897V32.255ZM93.3144 31.235C93.3144 33.56 95.0244 35.18 97.2744 35.18C98.2644 35.18 99.3594 34.775 100.064 34.13L99.5994 33.35C98.9844 33.905 98.1294 34.25 97.3044 34.25C95.7444 34.25 94.4244 33.185 94.3794 31.265H100.169C100.184 31.1 100.199 30.92 100.199 30.755C100.199 28.88 99.1344 27.275 97.0494 27.275C95.0094 27.275 93.3144 28.76 93.3144 31.235ZM94.4244 30.455C94.6644 28.94 95.7594 28.115 97.0194 28.115C98.1444 28.115 99.1044 28.88 99.1644 30.455H94.4244ZM102.115 35H103.135V31.805C103.135 30.305 103.84 28.4 105.535 28.4C105.685 28.4 105.865 28.415 105.91 28.43V27.425C105.79 27.395 105.64 27.38 105.505 27.38C104.335 27.38 103.465 28.31 103.09 29.45H103.06C103.06 29.45 103.12 29.18 103.12 28.85V27.455H102.115V35ZM109.94 36.89L109.55 37.7C109.55 37.7 110.105 38.15 110.885 38.15C111.89 38.15 112.655 37.535 113.045 36.575L116.765 27.455H115.67L113.495 32.96C113.345 33.335 113.24 33.755 113.24 33.755H113.21C113.21 33.755 113.075 33.335 112.925 32.96L110.72 27.455H109.595L112.73 34.925L112.28 36.005C111.98 36.695 111.5 37.235 110.84 37.235C110.36 37.235 109.94 36.89 109.94 36.89ZM117.601 31.19C117.601 33.47 119.371 35.18 121.576 35.18C123.781 35.18 125.566 33.47 125.566 31.19C125.566 28.955 123.781 27.275 121.576 27.275C119.371 27.275 117.601 28.955 117.601 31.19ZM118.651 31.19C118.651 29.48 119.956 28.19 121.576 28.19C123.196 28.19 124.516 29.48 124.516 31.19C124.516 32.96 123.196 34.25 121.576 34.25C119.956 34.25 118.651 32.96 118.651 31.19ZM127.382 32.255C127.382 34.22 128.132 35.18 129.917 35.18C131.582 35.18 132.602 33.95 132.887 33.215H132.917C132.917 33.215 132.857 33.485 132.857 33.815V35H133.862V27.455H132.842V31.07C132.842 32.705 131.777 34.22 130.052 34.22C128.597 34.22 128.417 33.17 128.417 31.985V27.455H127.382V32.255ZM136.29 35H137.31V31.805C137.31 30.305 138.015 28.4 139.71 28.4C139.86 28.4 140.04 28.415 140.085 28.43V27.425C139.965 27.395 139.815 27.38 139.68 27.38C138.51 27.38 137.64 28.31 137.265 29.45H137.235C137.235 29.45 137.295 29.18 137.295 28.85V27.455H136.29V35ZM145.042 32.255C145.042 34.775 146.812 35.06 147.682 35.06C147.877 35.06 148.027 35.045 148.117 35.03V34.115C147.982 34.145 147.877 34.145 147.772 34.145C147.187 34.145 146.062 33.905 146.062 32.15V28.37H147.967V27.515H146.062V25.37H145.057V27.515H144.052V28.37H145.042V32.255ZM149.605 25.73H150.715V24.455H149.605V25.73ZM149.65 35H150.67V27.455H149.65V35ZM152.597 31.235C152.597 33.575 154.322 35.18 156.557 35.18C157.712 35.18 158.837 34.715 159.497 33.98L159.032 33.215C158.432 33.875 157.487 34.25 156.617 34.25C154.937 34.25 153.647 33.005 153.647 31.235C153.647 29.435 154.937 28.19 156.587 28.19C157.427 28.19 158.267 28.58 158.792 29.12L159.317 28.355C158.642 27.62 157.547 27.275 156.557 27.275C154.337 27.275 152.597 28.91 152.597 31.235ZM161.236 35H162.256V31.235H163.486L165.991 35H167.221L164.326 30.77V30.74L166.951 27.455H165.721L163.471 30.335H162.256V24.455H161.236V35ZM167.875 31.235C167.875 33.56 169.585 35.18 171.835 35.18C172.825 35.18 173.92 34.775 174.625 34.13L174.16 33.35C173.545 33.905 172.69 34.25 171.865 34.25C170.305 34.25 168.985 33.185 168.94 31.265H174.73C174.745 31.1 174.76 30.92 174.76 30.755C174.76 28.88 173.695 27.275 171.61 27.275C169.57 27.275 167.875 28.76 167.875 31.235ZM168.985 30.455C169.225 28.94 170.32 28.115 171.58 28.115C172.705 28.115 173.665 28.88 173.725 30.455H168.985ZM176.887 32.255C176.887 34.775 178.657 35.06 179.527 35.06C179.722 35.06 179.872 35.045 179.962 35.03V34.115C179.827 34.145 179.722 34.145 179.617 34.145C179.032 34.145 177.907 33.905 177.907 32.15V28.37H179.812V27.515H177.907V25.37H176.902V27.515H175.897V28.37H176.887V32.255ZM185.245 38H186.265V34.34C186.265 33.95 186.22 33.68 186.22 33.68H186.25C186.745 34.625 187.675 35.18 188.74 35.18C190.705 35.18 192.115 33.62 192.115 31.22C192.115 28.895 190.87 27.275 188.83 27.275C187.66 27.275 186.67 27.86 186.205 28.835H186.175C186.175 28.835 186.22 28.58 186.22 28.25V27.455H185.245V38ZM186.235 31.25C186.235 29.105 187.42 28.205 188.68 28.205C190.09 28.205 191.08 29.39 191.08 31.235C191.08 33.155 189.97 34.265 188.635 34.265C187.09 34.265 186.235 32.765 186.235 31.25ZM193.988 32.255C193.988 34.22 194.738 35.18 196.523 35.18C198.188 35.18 199.208 33.95 199.493 33.215H199.523C199.523 33.215 199.463 33.485 199.463 33.815V35H200.468V27.455H199.448V31.07C199.448 32.705 198.383 34.22 196.658 34.22C195.203 34.22 195.023 33.17 195.023 31.985V27.455H193.988V32.255ZM202.897 35H203.917V31.805C203.917 30.305 204.622 28.4 206.317 28.4C206.467 28.4 206.647 28.415 206.692 28.43V27.425C206.572 27.395 206.422 27.38 206.287 27.38C205.117 27.38 204.247 28.31 203.872 29.45H203.842C203.842 29.45 203.902 29.18 203.902 28.85V27.455H202.897V35ZM207.426 31.235C207.426 33.575 209.151 35.18 211.386 35.18C212.541 35.18 213.666 34.715 214.326 33.98L213.861 33.215C213.261 33.875 212.316 34.25 211.446 34.25C209.766 34.25 208.476 33.005 208.476 31.235C208.476 29.435 209.766 28.19 211.416 28.19C212.256 28.19 213.096 28.58 213.621 29.12L214.146 28.355C213.471 27.62 212.376 27.275 211.386 27.275C209.166 27.275 207.426 28.91 207.426 31.235ZM216.066 35H217.086V31.355C217.086 29.54 218.361 28.235 219.951 28.235C221.406 28.235 221.601 29.285 221.601 30.47V35H222.621V30.2C222.621 28.34 221.961 27.275 220.086 27.275C218.376 27.275 217.356 28.505 217.071 29.21H217.041C217.041 29.21 217.086 28.94 217.086 28.595V24.455H216.066V35ZM224.312 32.975C224.312 34.43 225.587 35.18 226.862 35.18C228.077 35.18 229.022 34.4 229.412 33.485H229.442C229.442 33.485 229.397 33.74 229.397 34.115V35H230.372V30.17C230.372 28.28 229.367 27.275 227.552 27.275C226.547 27.275 225.482 27.62 224.882 28.13L225.347 28.91C225.962 28.46 226.727 28.19 227.492 28.19C228.557 28.19 229.352 28.685 229.352 30.14V30.35H228.902C227.462 30.35 224.312 30.5 224.312 32.975ZM225.347 32.885C225.347 31.205 227.747 31.16 228.917 31.16H229.352V31.505C229.352 32.825 228.497 34.325 227.042 34.325C225.917 34.325 225.347 33.59 225.347 32.885ZM232.061 34.085C232.781 34.835 233.861 35.18 234.866 35.18C236.351 35.18 237.416 34.295 237.416 33.05C237.416 30.56 233.381 31.07 233.381 29.345C233.381 28.52 234.101 28.175 234.896 28.175C235.571 28.175 236.351 28.43 236.786 28.865L237.266 28.1C236.651 27.515 235.766 27.275 234.941 27.275C233.561 27.275 232.376 27.995 232.376 29.375C232.376 31.85 236.396 31.385 236.396 33.065C236.396 33.86 235.721 34.28 234.881 34.28C234.056 34.28 233.171 33.95 232.601 33.365L232.061 34.085ZM238.788 31.235C238.788 33.56 240.498 35.18 242.748 35.18C243.738 35.18 244.833 34.775 245.538 34.13L245.073 33.35C244.458 33.905 243.603 34.25 242.778 34.25C241.218 34.25 239.898 33.185 239.853 31.265H245.643C245.658 31.1 245.673 30.92 245.673 30.755C245.673 28.88 244.608 27.275 242.523 27.275C240.483 27.275 238.788 28.76 238.788 31.235ZM239.898 30.455C240.138 28.94 241.233 28.115 242.493 28.115C243.618 28.115 244.578 28.88 244.638 30.455H239.898ZM251.316 32.255C251.316 34.775 253.086 35.06 253.956 35.06C254.151 35.06 254.301 35.045 254.391 35.03V34.115C254.256 34.145 254.151 34.145 254.046 34.145C253.461 34.145 252.336 33.905 252.336 32.15V28.37H254.241V27.515H252.336V25.37H251.331V27.515H250.326V28.37H251.316V32.255ZM255.879 25.73H256.989V24.455H255.879V25.73ZM255.924 35H256.944V27.455H255.924V35ZM259.381 35H260.401V31.355C260.401 29.825 261.451 28.22 262.981 28.22C264.406 28.22 264.571 29.315 264.571 30.455V35H265.591V31.355C265.591 29.795 266.611 28.22 268.126 28.22C269.491 28.22 269.746 29.21 269.746 30.455V35H270.766V30.2C270.766 28.34 270.091 27.275 268.261 27.275C267.001 27.275 265.906 28.205 265.486 29.165H265.456C265.246 27.935 264.526 27.275 263.131 27.275C261.946 27.275 260.731 28.22 260.356 29.24H260.326C260.326 29.24 260.386 28.97 260.386 28.64V27.455H259.381V35ZM272.611 31.235C272.611 33.56 274.321 35.18 276.571 35.18C277.561 35.18 278.656 34.775 279.361 34.13L278.896 33.35C278.281 33.905 277.426 34.25 276.601 34.25C275.041 34.25 273.721 33.185 273.676 31.265H279.466C279.481 31.1 279.496 30.92 279.496 30.755C279.496 28.88 278.431 27.275 276.346 27.275C274.306 27.275 272.611 28.76 272.611 31.235ZM273.721 30.455C273.961 28.94 275.056 28.115 276.316 28.115C277.441 28.115 278.401 28.88 278.461 30.455H273.721ZM280.857 36.455H281.742L282.882 33.77H281.712L280.857 36.455ZM5.18867 60.89L4.79867 61.7C4.79867 61.7 5.35367 62.15 6.13367 62.15C7.13867 62.15 7.90367 61.535 8.29367 60.575L12.0137 51.455H10.9187L8.74367 56.96C8.59367 57.335 8.48867 57.755 8.48867 57.755H8.45867C8.45867 57.755 8.32367 57.335 8.17367 56.96L5.96867 51.455H4.84367L7.97867 58.925L7.52867 60.005C7.22867 60.695 6.74867 61.235 6.08867 61.235C5.60867 61.235 5.18867 60.89 5.18867 60.89ZM12.8505 55.19C12.8505 57.47 14.6205 59.18 16.8255 59.18C19.0305 59.18 20.8155 57.47 20.8155 55.19C20.8155 52.955 19.0305 51.275 16.8255 51.275C14.6205 51.275 12.8505 52.955 12.8505 55.19ZM13.9005 55.19C13.9005 53.48 15.2055 52.19 16.8255 52.19C18.4455 52.19 19.7655 53.48 19.7655 55.19C19.7655 56.96 18.4455 58.25 16.8255 58.25C15.2055 58.25 13.9005 56.96 13.9005 55.19ZM22.6309 56.255C22.6309 58.22 23.3809 59.18 25.1659 59.18C26.8309 59.18 27.8509 57.95 28.1359 57.215H28.1659C28.1659 57.215 28.1059 57.485 28.1059 57.815V59H29.1109V51.455H28.0909V55.07C28.0909 56.705 27.0259 58.22 25.3009 58.22C23.8459 58.22 23.6659 57.17 23.6659 55.985V51.455H22.6309V56.255ZM36.693 59H37.818L39.648 53.63C39.768 53.255 39.888 52.805 39.888 52.805H39.918C39.918 52.805 40.023 53.255 40.143 53.63L41.988 59H43.113L45.648 51.455H44.568L42.753 57.065C42.618 57.455 42.528 57.875 42.528 57.875H42.498C42.498 57.875 42.378 57.44 42.258 57.065L40.413 51.485H39.393L37.548 57.065C37.428 57.44 37.308 57.875 37.308 57.875H37.278C37.278 57.875 37.173 57.44 37.053 57.065L35.238 51.455H34.143L36.693 59ZM47.2559 49.73H48.3659V48.455H47.2559V49.73ZM47.3009 59H48.3209V51.455H47.3009V59ZM50.758 59H51.778V55.31C51.778 53.555 53.038 52.235 54.643 52.235C56.098 52.235 56.293 53.285 56.293 54.47V59H57.313V54.2C57.313 52.34 56.653 51.275 54.778 51.275C53.008 51.275 52.018 52.55 51.733 53.24H51.703C51.703 53.24 51.763 52.97 51.763 52.64V51.455H50.758V59ZM63.3913 56.255C63.3913 58.775 65.1613 59.06 66.0313 59.06C66.2263 59.06 66.3763 59.045 66.4663 59.03V58.115C66.3313 58.145 66.2263 58.145 66.1213 58.145C65.5363 58.145 64.4113 57.905 64.4113 56.15V52.37H66.3162V51.515H64.4113V49.37H63.4063V51.515H62.4012V52.37H63.3913V56.255ZM67.9992 59H69.0192V55.355C69.0192 53.54 70.2942 52.235 71.8842 52.235C73.3392 52.235 73.5342 53.285 73.5342 54.47V59H74.5542V54.2C74.5542 52.34 73.8942 51.275 72.0192 51.275C70.3092 51.275 69.2892 52.505 69.0042 53.21H68.9742C68.9742 53.21 69.0192 52.94 69.0192 52.595V48.455H67.9992V59ZM76.3954 55.235C76.3954 57.56 78.1054 59.18 80.3554 59.18C81.3454 59.18 82.4404 58.775 83.1454 58.13L82.6804 57.35C82.0654 57.905 81.2104 58.25 80.3854 58.25C78.8254 58.25 77.5054 57.185 77.4604 55.265H83.2504C83.2654 55.1 83.2804 54.92 83.2804 54.755C83.2804 52.88 82.2154 51.275 80.1304 51.275C78.0904 51.275 76.3954 52.76 76.3954 55.235ZM77.5054 54.455C77.7454 52.94 78.8404 52.115 80.1004 52.115C81.2254 52.115 82.1854 52.88 82.2454 54.455H77.5054ZM88.9464 59H89.9664V55.805C89.9664 54.305 90.6714 52.4 92.3664 52.4C92.5164 52.4 92.6964 52.415 92.7414 52.43V51.425C92.6214 51.395 92.4714 51.38 92.3364 51.38C91.1664 51.38 90.2964 52.31 89.9214 53.45H89.8914C89.8914 53.45 89.9514 53.18 89.9514 52.85V51.455H88.9464V59ZM93.4755 55.19C93.4755 57.47 95.2455 59.18 97.4505 59.18C99.6555 59.18 101.441 57.47 101.441 55.19C101.441 52.955 99.6555 51.275 97.4505 51.275C95.2455 51.275 93.4755 52.955 93.4755 55.19ZM94.5255 55.19C94.5255 53.48 95.8305 52.19 97.4505 52.19C99.0705 52.19 100.391 53.48 100.391 55.19C100.391 56.96 99.0705 58.25 97.4505 58.25C95.8305 58.25 94.5255 56.96 94.5255 55.19ZM103.256 56.255C103.256 58.22 104.006 59.18 105.791 59.18C107.456 59.18 108.476 57.95 108.761 57.215H108.791C108.791 57.215 108.731 57.485 108.731 57.815V59H109.736V51.455H108.716V55.07C108.716 56.705 107.651 58.22 105.926 58.22C104.471 58.22 104.291 57.17 104.291 55.985V51.455H103.256V56.255ZM112.164 59H113.184V55.31C113.184 53.555 114.444 52.235 116.049 52.235C117.504 52.235 117.699 53.285 117.699 54.47V59H118.719V54.2C118.719 52.34 118.059 51.275 116.184 51.275C114.414 51.275 113.424 52.55 113.139 53.24H113.109C113.109 53.24 113.169 52.97 113.169 52.64V51.455H112.164V59ZM120.59 55.22C120.59 57.56 121.865 59.18 123.875 59.18C125.18 59.18 126.08 58.46 126.5 57.605H126.53C126.53 57.605 126.485 57.815 126.485 58.145V59H127.475V48.455H126.455V52.19C126.455 52.505 126.5 52.76 126.5 52.76H126.47C126.005 51.845 125.045 51.275 123.995 51.275C122 51.275 120.59 52.835 120.59 55.22ZM121.64 55.22C121.64 53.3 122.75 52.205 124.085 52.205C125.69 52.205 126.47 53.69 126.47 55.205C126.47 57.365 125.3 58.265 124.04 58.265C122.63 58.265 121.64 57.08 121.64 55.22ZM129.798 59H131.028V57.755H129.798V59ZM135.756 59H136.851L138.051 55.64H142.296L143.511 59H144.606L140.736 48.455H139.626L135.756 59ZM138.366 54.74L139.761 50.915C139.941 50.42 140.166 49.535 140.166 49.535H140.196C140.196 49.535 140.421 50.42 140.601 50.915L141.981 54.74H138.366ZM146.082 56.255C146.082 58.775 147.852 59.06 148.722 59.06C148.917 59.06 149.067 59.045 149.157 59.03V58.115C149.022 58.145 148.917 58.145 148.812 58.145C148.227 58.145 147.102 57.905 147.102 56.15V52.37H149.007V51.515H147.102V49.37H146.097V51.515H145.092V52.37H146.082V56.255ZM154.417 56.255C154.417 58.775 156.187 59.06 157.057 59.06C157.252 59.06 157.402 59.045 157.492 59.03V58.115C157.357 58.145 157.252 58.145 157.147 58.145C156.562 58.145 155.437 57.905 155.437 56.15V52.37H157.342V51.515H155.437V49.37H154.432V51.515H153.427V52.37H154.417V56.255ZM159.025 59H160.045V55.355C160.045 53.54 161.32 52.235 162.91 52.235C164.365 52.235 164.56 53.285 164.56 54.47V59H165.58V54.2C165.58 52.34 164.92 51.275 163.045 51.275C161.335 51.275 160.315 52.505 160.03 53.21H160C160 53.21 160.045 52.94 160.045 52.595V48.455H159.025V59ZM167.421 55.235C167.421 57.56 169.131 59.18 171.381 59.18C172.371 59.18 173.466 58.775 174.171 58.13L173.706 57.35C173.091 57.905 172.236 58.25 171.411 58.25C169.851 58.25 168.531 57.185 168.486 55.265H174.276C174.291 55.1 174.306 54.92 174.306 54.755C174.306 52.88 173.241 51.275 171.156 51.275C169.116 51.275 167.421 52.76 167.421 55.235ZM168.531 54.455C168.771 52.94 169.866 52.115 171.126 52.115C172.251 52.115 173.211 52.88 173.271 54.455H168.531ZM179.462 55.235C179.462 57.56 181.172 59.18 183.422 59.18C184.412 59.18 185.507 58.775 186.212 58.13L185.747 57.35C185.132 57.905 184.277 58.25 183.452 58.25C181.892 58.25 180.572 57.185 180.527 55.265H186.317C186.332 55.1 186.347 54.92 186.347 54.755C186.347 52.88 185.282 51.275 183.197 51.275C181.157 51.275 179.462 52.76 179.462 55.235ZM180.572 54.455C180.812 52.94 181.907 52.115 183.167 52.115C184.292 52.115 185.252 52.88 185.312 54.455H180.572ZM188.263 59H189.283V55.31C189.283 53.555 190.543 52.235 192.148 52.235C193.603 52.235 193.798 53.285 193.798 54.47V59H194.818V54.2C194.818 52.34 194.158 51.275 192.283 51.275C190.513 51.275 189.523 52.55 189.238 53.24H189.208C189.208 53.24 189.268 52.97 189.268 52.64V51.455H188.263V59ZM196.689 55.22C196.689 57.56 197.964 59.18 199.974 59.18C201.279 59.18 202.179 58.46 202.599 57.605H202.629C202.629 57.605 202.584 57.815 202.584 58.145V59H203.574V48.455H202.554V52.19C202.554 52.505 202.599 52.76 202.599 52.76H202.569C202.104 51.845 201.144 51.275 200.094 51.275C198.099 51.275 196.689 52.835 196.689 55.22ZM197.739 55.22C197.739 53.3 198.849 52.205 200.184 52.205C201.789 52.205 202.569 53.69 202.569 55.205C202.569 57.365 201.399 58.265 200.139 58.265C198.729 58.265 197.739 57.08 197.739 55.22ZM209.242 55.19C209.242 57.47 211.012 59.18 213.217 59.18C215.422 59.18 217.207 57.47 217.207 55.19C217.207 52.955 215.422 51.275 213.217 51.275C211.012 51.275 209.242 52.955 209.242 55.19ZM210.292 55.19C210.292 53.48 211.597 52.19 213.217 52.19C214.837 52.19 216.157 53.48 216.157 55.19C216.157 56.96 214.837 58.25 213.217 58.25C211.597 58.25 210.292 56.96 210.292 55.19ZM219.31 59H220.345V52.37H222.265V51.515H220.345V51.185C220.345 49.505 221.44 49.295 222.025 49.295C222.19 49.295 222.325 49.31 222.385 49.325V48.425C222.235 48.395 222.1 48.38 221.92 48.38C221.08 48.38 219.31 48.695 219.31 51.17V51.515H218.365V52.37H219.31V59ZM227.263 56.255C227.263 58.775 229.033 59.06 229.903 59.06C230.098 59.06 230.248 59.045 230.338 59.03V58.115C230.203 58.145 230.098 58.145 229.993 58.145C229.408 58.145 228.283 57.905 228.283 56.15V52.37H230.188V51.515H228.283V49.37H227.278V51.515H226.273V52.37H227.263V56.255ZM231.871 59H232.891V55.355C232.891 53.54 234.166 52.235 235.756 52.235C237.211 52.235 237.406 53.285 237.406 54.47V59H238.426V54.2C238.426 52.34 237.766 51.275 235.891 51.275C234.181 51.275 233.161 52.505 232.876 53.21H232.846C232.846 53.21 232.891 52.94 232.891 52.595V48.455H231.871V59ZM240.268 55.235C240.268 57.56 241.978 59.18 244.228 59.18C245.218 59.18 246.313 58.775 247.018 58.13L246.553 57.35C245.938 57.905 245.083 58.25 244.258 58.25C242.698 58.25 241.378 57.185 241.333 55.265H247.123C247.137 55.1 247.153 54.92 247.153 54.755C247.153 52.88 246.088 51.275 244.003 51.275C241.963 51.275 240.268 52.76 240.268 55.235ZM241.378 54.455C241.618 52.94 242.713 52.115 243.972 52.115C245.098 52.115 246.058 52.88 246.118 54.455H241.378ZM252.819 59H253.839V55.805C253.839 54.305 254.544 52.4 256.239 52.4C256.389 52.4 256.569 52.415 256.614 52.43V51.425C256.494 51.395 256.344 51.38 256.209 51.38C255.039 51.38 254.169 52.31 253.794 53.45H253.764C253.764 53.45 253.824 53.18 253.824 52.85V51.455H252.819V59ZM257.348 55.19C257.348 57.47 259.118 59.18 261.323 59.18C263.528 59.18 265.313 57.47 265.313 55.19C265.313 52.955 263.528 51.275 261.323 51.275C259.118 51.275 257.348 52.955 257.348 55.19ZM258.398 55.19C258.398 53.48 259.703 52.19 261.323 52.19C262.943 52.19 264.263 53.48 264.263 55.19C264.263 56.96 262.943 58.25 261.323 58.25C259.703 58.25 258.398 56.96 258.398 55.19ZM267.128 56.255C267.128 58.22 267.878 59.18 269.663 59.18C271.328 59.18 272.348 57.95 272.633 57.215H272.663C272.663 57.215 272.603 57.485 272.603 57.815V59H273.608V51.455H272.588V55.07C272.588 56.705 271.523 58.22 269.798 58.22C268.343 58.22 268.163 57.17 268.163 55.985V51.455H267.128V56.255ZM276.036 59H277.056V55.31C277.056 53.555 278.316 52.235 279.921 52.235C281.376 52.235 281.571 53.285 281.571 54.47V59H282.591V54.2C282.591 52.34 281.931 51.275 280.056 51.275C278.286 51.275 277.296 52.55 277.011 53.24H276.981C276.981 53.24 277.041 52.97 277.041 52.64V51.455H276.036V59ZM284.463 55.22C284.463 57.56 285.738 59.18 287.748 59.18C289.053 59.18 289.953 58.46 290.373 57.605H290.403C290.403 57.605 290.358 57.815 290.358 58.145V59H291.348V48.455H290.328V52.19C290.328 52.505 290.373 52.76 290.373 52.76H290.343C289.878 51.845 288.918 51.275 287.868 51.275C285.873 51.275 284.463 52.835 284.463 55.22ZM285.513 55.22C285.513 53.3 286.623 52.205 287.958 52.205C289.563 52.205 290.343 53.69 290.343 55.205C290.343 57.365 289.173 58.265 287.913 58.265C286.503 58.265 285.513 57.08 285.513 55.22ZM293.221 60.455H294.106L295.246 57.77H294.076L293.221 60.455ZM8.05678 80.255C8.05678 82.775 9.82678 83.06 10.6968 83.06C10.8918 83.06 11.0418 83.045 11.1318 83.03V82.115C10.9968 82.145 10.8918 82.145 10.7868 82.145C10.2018 82.145 9.07678 81.905 9.07678 80.15V76.37H10.9818V75.515H9.07678V73.37H8.07178V75.515H7.06678V76.37H8.05678V80.255ZM12.6647 83H13.6847V79.355C13.6847 77.54 14.9597 76.235 16.5497 76.235C18.0047 76.235 18.1997 77.285 18.1997 78.47V83H19.2197V78.2C19.2197 76.34 18.5597 75.275 16.6847 75.275C14.9747 75.275 13.9547 76.505 13.6697 77.21H13.6397C13.6397 77.21 13.6847 76.94 13.6847 76.595V72.455H12.6647V83ZM21.061 79.235C21.061 81.56 22.771 83.18 25.021 83.18C26.011 83.18 27.106 82.775 27.811 82.13L27.346 81.35C26.731 81.905 25.876 82.25 25.051 82.25C23.491 82.25 22.171 81.185 22.126 79.265H27.916C27.931 79.1 27.946 78.92 27.946 78.755C27.946 76.88 26.881 75.275 24.796 75.275C22.756 75.275 21.061 76.76 21.061 79.235ZM22.171 78.455C22.411 76.94 23.506 76.115 24.766 76.115C25.891 76.115 26.851 76.88 26.911 78.455H22.171ZM33.612 81.215C33.612 82.865 34.737 83.06 35.352 83.06C35.517 83.06 35.637 83.045 35.727 83.03V82.115C35.637 82.13 35.547 82.13 35.487 82.13C35.097 82.13 34.632 81.98 34.632 80.99V72.455H33.612V81.215ZM36.6434 80.975C36.6434 82.43 37.9184 83.18 39.1934 83.18C40.4084 83.18 41.3534 82.4 41.7434 81.485H41.7734C41.7734 81.485 41.7284 81.74 41.7284 82.115V83H42.7034V78.17C42.7034 76.28 41.6984 75.275 39.8834 75.275C38.8784 75.275 37.8134 75.62 37.2134 76.13L37.6784 76.91C38.2934 76.46 39.0584 76.19 39.8234 76.19C40.8884 76.19 41.6834 76.685 41.6834 78.14V78.35H41.2334C39.7934 78.35 36.6434 78.5 36.6434 80.975ZM37.6784 80.885C37.6784 79.205 40.0784 79.16 41.2484 79.16H41.6834V79.505C41.6834 80.825 40.8284 82.325 39.3734 82.325C38.2484 82.325 37.6784 81.59 37.6784 80.885ZM44.3924 82.085C45.1124 82.835 46.1924 83.18 47.1974 83.18C48.6824 83.18 49.7474 82.295 49.7474 81.05C49.7474 78.56 45.7124 79.07 45.7124 77.345C45.7124 76.52 46.4324 76.175 47.2274 76.175C47.9024 76.175 48.6824 76.43 49.1174 76.865L49.5974 76.1C48.9824 75.515 48.0974 75.275 47.2724 75.275C45.8924 75.275 44.7074 75.995 44.7074 77.375C44.7074 79.85 48.7274 79.385 48.7274 81.065C48.7274 81.86 48.0524 82.28 47.2124 82.28C46.3874 82.28 45.5024 81.95 44.9324 81.365L44.3924 82.085ZM51.8996 80.255C51.8996 82.775 53.6696 83.06 54.5396 83.06C54.7346 83.06 54.8846 83.045 54.9746 83.03V82.115C54.8396 82.145 54.7346 82.145 54.6296 82.145C54.0446 82.145 52.9196 81.905 52.9196 80.15V76.37H54.8246V75.515H52.9196V73.37H51.9146V75.515H50.9096V76.37H51.8996V80.255ZM60.2345 80.255C60.2345 82.775 62.0045 83.06 62.8745 83.06C63.0695 83.06 63.2195 83.045 63.3095 83.03V82.115C63.1745 82.145 63.0695 82.145 62.9645 82.145C62.3795 82.145 61.2545 81.905 61.2545 80.15V76.37H63.1595V75.515H61.2545V73.37H60.2495V75.515H59.2445V76.37H60.2345V80.255ZM64.7974 73.73H65.9074V72.455H64.7974V73.73ZM64.8424 83H65.8624V75.455H64.8424V83ZM67.7895 79.235C67.7895 81.575 69.5145 83.18 71.7495 83.18C72.9045 83.18 74.0295 82.715 74.6895 81.98L74.2245 81.215C73.6245 81.875 72.6795 82.25 71.8095 82.25C70.1295 82.25 68.8395 81.005 68.8395 79.235C68.8395 77.435 70.1295 76.19 71.7795 76.19C72.6195 76.19 73.4595 76.58 73.9845 77.12L74.5095 76.355C73.8345 75.62 72.7395 75.275 71.7495 75.275C69.5295 75.275 67.7895 76.91 67.7895 79.235ZM76.4294 83H77.4494V79.235H78.6794L81.1844 83H82.4144L79.5194 78.77V78.74L82.1444 75.455H80.9144L78.6644 78.335H77.4494V72.455H76.4294V83ZM83.0678 79.235C83.0678 81.56 84.7778 83.18 87.0278 83.18C88.0178 83.18 89.1128 82.775 89.8178 82.13L89.3528 81.35C88.7378 81.905 87.8828 82.25 87.0578 82.25C85.4978 82.25 84.1778 81.185 84.1328 79.265H89.9228C89.9378 79.1 89.9528 78.92 89.9528 78.755C89.9528 76.88 88.8878 75.275 86.8028 75.275C84.7628 75.275 83.0678 76.76 83.0678 79.235ZM84.1778 78.455C84.4178 76.94 85.5128 76.115 86.7728 76.115C87.8978 76.115 88.8578 76.88 88.9178 78.455H84.1778ZM92.0802 80.255C92.0802 82.775 93.8502 83.06 94.7202 83.06C94.9152 83.06 95.0652 83.045 95.1552 83.03V82.115C95.0202 82.145 94.9152 82.145 94.8102 82.145C94.2252 82.145 93.1002 81.905 93.1002 80.15V76.37H95.0052V75.515H93.1002V73.37H92.0952V75.515H91.0902V76.37H92.0802V80.255ZM100.438 83H101.413V82.25C101.413 81.89 101.368 81.635 101.368 81.635H101.398C101.878 82.58 102.838 83.18 103.903 83.18C105.898 83.18 107.308 81.62 107.308 79.22C107.308 76.895 106.063 75.275 104.023 75.275C102.868 75.275 101.893 75.875 101.443 76.805H101.413C101.413 76.805 101.458 76.535 101.458 76.175V72.455H100.438V83ZM101.428 79.25C101.428 77.105 102.613 76.205 103.873 76.205C105.283 76.205 106.273 77.39 106.273 79.235C106.273 81.155 105.163 82.265 103.828 82.265C102.223 82.265 101.428 80.765 101.428 79.25ZM108.761 79.19C108.761 81.47 110.531 83.18 112.736 83.18C114.941 83.18 116.726 81.47 116.726 79.19C116.726 76.955 114.941 75.275 112.736 75.275C110.531 75.275 108.761 76.955 108.761 79.19ZM109.811 79.19C109.811 77.48 111.116 76.19 112.736 76.19C114.356 76.19 115.676 77.48 115.676 79.19C115.676 80.96 114.356 82.25 112.736 82.25C111.116 82.25 109.811 80.96 109.811 79.19ZM118.542 80.255C118.542 82.22 119.292 83.18 121.077 83.18C122.742 83.18 123.762 81.95 124.047 81.215H124.077C124.077 81.215 124.017 81.485 124.017 81.815V83H125.022V75.455H124.002V79.07C124.002 80.705 122.937 82.22 121.212 82.22C119.757 82.22 119.577 81.17 119.577 79.985V75.455H118.542V80.255ZM128.035 84.71L127.66 85.535C128.395 85.925 129.265 86.15 130.12 86.15C131.98 86.15 133.75 85.22 133.75 82.82V75.455H132.76V76.34C132.76 76.505 132.79 76.595 132.79 76.595H132.76C132.295 75.665 131.26 75.275 130.255 75.275C128.23 75.275 126.985 76.82 126.985 79.085C126.985 81.35 128.32 82.955 130.345 82.955C131.515 82.955 132.295 82.415 132.745 81.56H132.775C132.775 81.56 132.715 81.83 132.715 82.115V82.865C132.715 84.545 131.56 85.22 130.09 85.22C129.385 85.22 128.62 85.01 128.035 84.71ZM128.02 79.07C128.02 77.27 128.89 76.19 130.36 76.19C131.695 76.19 132.745 76.88 132.745 79.085C132.745 81.305 131.695 82.04 130.495 82.04C129.01 82.04 128.02 80.885 128.02 79.07ZM136.18 83H137.2V79.355C137.2 77.54 138.475 76.235 140.065 76.235C141.52 76.235 141.715 77.285 141.715 78.47V83H142.735V78.2C142.735 76.34 142.075 75.275 140.2 75.275C138.49 75.275 137.47 76.505 137.185 77.21H137.155C137.155 77.21 137.2 76.94 137.2 76.595V72.455H136.18V83ZM145.357 80.255C145.357 82.775 147.127 83.06 147.997 83.06C148.192 83.06 148.342 83.045 148.432 83.03V82.115C148.297 82.145 148.192 82.145 148.087 82.145C147.502 82.145 146.377 81.905 146.377 80.15V76.37H148.282V75.515H146.377V73.37H145.372V75.515H144.367V76.37H145.357V80.255ZM155.118 83H156.243L158.073 77.63C158.193 77.255 158.313 76.805 158.313 76.805H158.343C158.343 76.805 158.448 77.255 158.568 77.63L160.413 83H161.538L164.073 75.455H162.993L161.178 81.065C161.043 81.455 160.953 81.875 160.953 81.875H160.923C160.923 81.875 160.803 81.44 160.683 81.065L158.838 75.485H157.818L155.973 81.065C155.853 81.44 155.733 81.875 155.733 81.875H155.703C155.703 81.875 155.598 81.44 155.478 81.065L153.663 75.455H152.568L155.118 83ZM165.681 73.73H166.791V72.455H165.681V73.73ZM165.726 83H166.746V75.455H165.726V83ZM169.183 83H170.203V79.31C170.203 77.555 171.463 76.235 173.068 76.235C174.523 76.235 174.718 77.285 174.718 78.47V83H175.738V78.2C175.738 76.34 175.078 75.275 173.203 75.275C171.433 75.275 170.443 76.55 170.158 77.24H170.128C170.128 77.24 170.188 76.97 170.188 76.64V75.455H169.183V83ZM177.43 82.085C178.15 82.835 179.23 83.18 180.235 83.18C181.72 83.18 182.785 82.295 182.785 81.05C182.785 78.56 178.75 79.07 178.75 77.345C178.75 76.52 179.47 76.175 180.265 76.175C180.94 76.175 181.72 76.43 182.155 76.865L182.635 76.1C182.02 75.515 181.135 75.275 180.31 75.275C178.93 75.275 177.745 75.995 177.745 77.375C177.745 79.85 181.765 79.385 181.765 81.065C181.765 81.86 181.09 82.28 180.25 82.28C179.425 82.28 178.54 81.95 177.97 81.365L177.43 82.085ZM184.562 83H185.792V81.755H184.562V83ZM194.225 83H195.26V73.385H199.055V72.455H190.445V73.385H194.225V83ZM200.516 83H201.536V79.355C201.536 77.54 202.811 76.235 204.401 76.235C205.856 76.235 206.051 77.285 206.051 78.47V83H207.071V78.2C207.071 76.34 206.411 75.275 204.536 75.275C202.826 75.275 201.806 76.505 201.521 77.21H201.491C201.491 77.21 201.536 76.94 201.536 76.595V72.455H200.516V83ZM208.913 79.235C208.913 81.56 210.623 83.18 212.873 83.18C213.863 83.18 214.958 82.775 215.663 82.13L215.198 81.35C214.583 81.905 213.728 82.25 212.903 82.25C211.343 82.25 210.023 81.185 209.978 79.265H215.768C215.783 79.1 215.798 78.92 215.798 78.755C215.798 76.88 214.733 75.275 212.648 75.275C210.608 75.275 208.913 76.76 208.913 79.235ZM210.023 78.455C210.263 76.94 211.358 76.115 212.618 76.115C213.743 76.115 214.703 76.88 214.763 78.455H210.023ZM221.464 83H222.484V79.805C222.484 78.305 223.189 76.4 224.884 76.4C225.034 76.4 225.214 76.415 225.259 76.43V75.425C225.139 75.395 224.989 75.38 224.854 75.38C223.684 75.38 222.814 76.31 222.439 77.45H222.409C222.409 77.45 222.469 77.18 222.469 76.85V75.455H221.464V83ZM225.993 79.19C225.993 81.47 227.763 83.18 229.968 83.18C232.173 83.18 233.958 81.47 233.958 79.19C233.958 76.955 232.173 75.275 229.968 75.275C227.763 75.275 225.993 76.955 225.993 79.19ZM227.043 79.19C227.043 77.48 228.348 76.19 229.968 76.19C231.588 76.19 232.908 77.48 232.908 79.19C232.908 80.96 231.588 82.25 229.968 82.25C228.348 82.25 227.043 80.96 227.043 79.19ZM235.773 80.255C235.773 82.22 236.523 83.18 238.308 83.18C239.973 83.18 240.993 81.95 241.278 81.215H241.308C241.308 81.215 241.248 81.485 241.248 81.815V83H242.253V75.455H241.233V79.07C241.233 80.705 240.168 82.22 238.443 82.22C236.988 82.22 236.808 81.17 236.808 79.985V75.455H235.773V80.255ZM244.681 83H245.701V79.31C245.701 77.555 246.961 76.235 248.566 76.235C250.021 76.235 250.216 77.285 250.216 78.47V83H251.236V78.2C251.236 76.34 250.576 75.275 248.701 75.275C246.931 75.275 245.941 76.55 245.656 77.24H245.626C245.626 77.24 245.686 76.97 245.686 76.64V75.455H244.681V83ZM253.108 79.22C253.108 81.56 254.383 83.18 256.393 83.18C257.698 83.18 258.598 82.46 259.018 81.605H259.048C259.048 81.605 259.003 81.815 259.003 82.145V83H259.993V72.455H258.973V76.19C258.973 76.505 259.018 76.76 259.018 76.76H258.988C258.523 75.845 257.563 75.275 256.513 75.275C254.518 75.275 253.108 76.835 253.108 79.22ZM254.158 79.22C254.158 77.3 255.268 76.205 256.603 76.205C258.208 76.205 258.988 77.69 258.988 79.205C258.988 81.365 257.818 82.265 256.558 82.265C255.148 82.265 254.158 81.08 254.158 79.22ZM266.171 81.215C266.171 82.865 267.296 83.06 267.911 83.06C268.076 83.06 268.196 83.045 268.286 83.03V82.115C268.196 82.13 268.106 82.13 268.046 82.13C267.656 82.13 267.191 81.98 267.191 80.99V72.455H266.171V81.215ZM269.202 80.975C269.202 82.43 270.477 83.18 271.752 83.18C272.967 83.18 273.912 82.4 274.302 81.485H274.332C274.332 81.485 274.287 81.74 274.287 82.115V83H275.262V78.17C275.262 76.28 274.257 75.275 272.442 75.275C271.437 75.275 270.372 75.62 269.772 76.13L270.237 76.91C270.852 76.46 271.617 76.19 272.382 76.19C273.447 76.19 274.242 76.685 274.242 78.14V78.35H273.792C272.352 78.35 269.202 78.5 269.202 80.975ZM270.237 80.885C270.237 79.205 272.637 79.16 273.807 79.16H274.242V79.505C274.242 80.825 273.387 82.325 271.932 82.325C270.807 82.325 270.237 81.59 270.237 80.885ZM276.951 82.085C277.671 82.835 278.751 83.18 279.756 83.18C281.241 83.18 282.306 82.295 282.306 81.05C282.306 78.56 278.271 79.07 278.271 77.345C278.271 76.52 278.991 76.175 279.786 76.175C280.461 76.175 281.241 76.43 281.676 76.865L282.156 76.1C281.541 75.515 280.656 75.275 279.831 75.275C278.451 75.275 277.266 75.995 277.266 77.375C277.266 79.85 281.286 79.385 281.286 81.065C281.286 81.86 280.611 82.28 279.771 82.28C278.946 82.28 278.061 81.95 277.491 81.365L276.951 82.085ZM284.458 80.255C284.458 82.775 286.228 83.06 287.098 83.06C287.293 83.06 287.443 83.045 287.533 83.03V82.115C287.398 82.145 287.293 82.145 287.188 82.145C286.603 82.145 285.478 81.905 285.478 80.15V76.37H287.383V75.515H285.478V73.37H284.473V75.515H283.468V76.37H284.458V80.255ZM288.406 82.085C289.126 82.835 290.206 83.18 291.211 83.18C292.696 83.18 293.761 82.295 293.761 81.05C293.761 78.56 289.726 79.07 289.726 77.345C289.726 76.52 290.446 76.175 291.241 76.175C291.916 76.175 292.696 76.43 293.131 76.865L293.611 76.1C292.996 75.515 292.111 75.275 291.286 75.275C289.906 75.275 288.721 75.995 288.721 77.375C288.721 79.85 292.741 79.385 292.741 81.065C292.741 81.86 292.066 82.28 291.226 82.28C290.401 82.28 289.516 81.95 288.946 81.365L288.406 82.085ZM21.8227 103.19C21.8227 105.47 23.5927 107.18 25.7977 107.18C28.0027 107.18 29.7877 105.47 29.7877 103.19C29.7877 100.955 28.0027 99.275 25.7977 99.275C23.5927 99.275 21.8227 100.955 21.8227 103.19ZM22.8727 103.19C22.8727 101.48 24.1777 100.19 25.7977 100.19C27.4177 100.19 28.7377 101.48 28.7377 103.19C28.7377 104.96 27.4177 106.25 25.7977 106.25C24.1777 106.25 22.8727 104.96 22.8727 103.19ZM31.693 107H32.713V103.31C32.713 101.555 33.973 100.235 35.578 100.235C37.033 100.235 37.228 101.285 37.228 102.47V107H38.248V102.2C38.248 100.34 37.588 99.275 35.713 99.275C33.943 99.275 32.953 100.55 32.668 101.24H32.638C32.638 101.24 32.698 100.97 32.698 100.64V99.455H31.693V107ZM40.0893 103.235C40.0893 105.56 41.7993 107.18 44.0493 107.18C45.0393 107.18 46.1343 106.775 46.8393 106.13L46.3743 105.35C45.7593 105.905 44.9043 106.25 44.0793 106.25C42.5193 106.25 41.1993 105.185 41.1543 103.265H46.9443C46.9593 103.1 46.9743 102.92 46.9743 102.755C46.9743 100.88 45.9093 99.275 43.8243 99.275C41.7843 99.275 40.0893 100.76 40.0893 103.235ZM41.1993 102.455C41.4393 100.94 42.5343 100.115 43.7943 100.115C44.9193 100.115 45.8793 100.88 45.9393 102.455H41.1993ZM52.1603 103.22C52.1603 105.56 53.4353 107.18 55.4453 107.18C56.7503 107.18 57.6503 106.46 58.0703 105.605H58.1003C58.1003 105.605 58.0553 105.815 58.0553 106.145V107H59.0453V96.455H58.0253V100.19C58.0253 100.505 58.0703 100.76 58.0703 100.76H58.0403C57.5753 99.845 56.6153 99.275 55.5653 99.275C53.5703 99.275 52.1603 100.835 52.1603 103.22ZM53.2103 103.22C53.2103 101.3 54.3203 100.205 55.6553 100.205C57.2603 100.205 58.0403 101.69 58.0403 103.205C58.0403 105.365 56.8703 106.265 55.6103 106.265C54.2003 106.265 53.2103 105.08 53.2103 103.22ZM60.8133 104.975C60.8133 106.43 62.0883 107.18 63.3633 107.18C64.5783 107.18 65.5233 106.4 65.9133 105.485H65.9433C65.9433 105.485 65.8983 105.74 65.8983 106.115V107H66.8733V102.17C66.8733 100.28 65.8683 99.275 64.0533 99.275C63.0483 99.275 61.9833 99.62 61.3833 100.13L61.8483 100.91C62.4633 100.46 63.2283 100.19 63.9933 100.19C65.0583 100.19 65.8533 100.685 65.8533 102.14V102.35H65.4033C63.9633 102.35 60.8133 102.5 60.8133 104.975ZM61.8483 104.885C61.8483 103.205 64.2483 103.16 65.4183 103.16H65.8533V103.505C65.8533 104.825 64.9983 106.325 63.5433 106.325C62.4183 106.325 61.8483 105.59 61.8483 104.885ZM68.5358 108.89L68.1458 109.7C68.1458 109.7 68.7008 110.15 69.4808 110.15C70.4858 110.15 71.2508 109.535 71.6408 108.575L75.3608 99.455H74.2658L72.0908 104.96C71.9408 105.335 71.8358 105.755 71.8358 105.755H71.8058C71.8058 105.755 71.6708 105.335 71.5208 104.96L69.3158 99.455H68.1908L71.3258 106.925L70.8758 108.005C70.5758 108.695 70.0958 109.235 69.4358 109.235C68.9558 109.235 68.5358 108.89 68.5358 108.89ZM75.7865 108.455H76.6715L77.8115 105.77H76.6415L75.7865 108.455ZM83.9943 104.255C83.9943 106.775 85.7643 107.06 86.6343 107.06C86.8293 107.06 86.9793 107.045 87.0693 107.03V106.115C86.9343 106.145 86.8293 106.145 86.7243 106.145C86.1393 106.145 85.0143 105.905 85.0143 104.15V100.37H86.9193V99.515H85.0143V97.37H84.0093V99.515H83.0043V100.37H83.9943V104.255ZM88.6022 107H89.6222V103.355C89.6222 101.54 90.8972 100.235 92.4872 100.235C93.9422 100.235 94.1372 101.285 94.1372 102.47V107H95.1572V102.2C95.1572 100.34 94.4972 99.275 92.6222 99.275C90.9122 99.275 89.8922 100.505 89.6072 101.21H89.5772C89.5772 101.21 89.6222 100.94 89.6222 100.595V96.455H88.6022V107ZM96.9985 103.235C96.9985 105.56 98.7085 107.18 100.958 107.18C101.948 107.18 103.043 106.775 103.748 106.13L103.283 105.35C102.668 105.905 101.813 106.25 100.988 106.25C99.4285 106.25 98.1085 105.185 98.0635 103.265H103.853C103.868 103.1 103.883 102.92 103.883 102.755C103.883 100.88 102.818 99.275 100.733 99.275C98.6935 99.275 96.9985 100.76 96.9985 103.235ZM98.1085 102.455C98.3485 100.94 99.4435 100.115 100.703 100.115C101.828 100.115 102.788 100.88 102.848 102.455H98.1085ZM109.549 105.215C109.549 106.865 110.674 107.06 111.289 107.06C111.454 107.06 111.574 107.045 111.664 107.03V106.115C111.574 106.13 111.484 106.13 111.424 106.13C111.034 106.13 110.569 105.98 110.569 104.99V96.455H109.549V105.215ZM112.581 104.975C112.581 106.43 113.856 107.18 115.131 107.18C116.346 107.18 117.291 106.4 117.681 105.485H117.711C117.711 105.485 117.666 105.74 117.666 106.115V107H118.641V102.17C118.641 100.28 117.636 99.275 115.821 99.275C114.816 99.275 113.751 99.62 113.151 100.13L113.616 100.91C114.231 100.46 114.996 100.19 115.761 100.19C116.826 100.19 117.621 100.685 117.621 102.14V102.35H117.171C115.731 102.35 112.581 102.5 112.581 104.975ZM113.616 104.885C113.616 103.205 116.016 103.16 117.186 103.16H117.621V103.505C117.621 104.825 116.766 106.325 115.311 106.325C114.186 106.325 113.616 105.59 113.616 104.885ZM120.33 106.085C121.05 106.835 122.13 107.18 123.135 107.18C124.62 107.18 125.685 106.295 125.685 105.05C125.685 102.56 121.65 103.07 121.65 101.345C121.65 100.52 122.37 100.175 123.165 100.175C123.84 100.175 124.62 100.43 125.055 100.865L125.535 100.1C124.92 99.515 124.035 99.275 123.21 99.275C121.83 99.275 120.645 99.995 120.645 101.375C120.645 103.85 124.665 103.385 124.665 105.065C124.665 105.86 123.99 106.28 123.15 106.28C122.325 106.28 121.44 105.95 120.87 105.365L120.33 106.085ZM127.837 104.255C127.837 106.775 129.607 107.06 130.477 107.06C130.672 107.06 130.822 107.045 130.912 107.03V106.115C130.777 106.145 130.672 106.145 130.567 106.145C129.982 106.145 128.857 105.905 128.857 104.15V100.37H130.762V99.515H128.857V97.37H127.852V99.515H126.847V100.37H127.837V104.255ZM136.195 107H137.215V103.805C137.215 102.305 137.92 100.4 139.615 100.4C139.765 100.4 139.945 100.415 139.99 100.43V99.425C139.87 99.395 139.72 99.38 139.585 99.38C138.415 99.38 137.545 100.31 137.17 101.45H137.14C137.14 101.45 137.2 101.18 137.2 100.85V99.455H136.195V107ZM140.724 103.19C140.724 105.47 142.494 107.18 144.699 107.18C146.904 107.18 148.689 105.47 148.689 103.19C148.689 100.955 146.904 99.275 144.699 99.275C142.494 99.275 140.724 100.955 140.724 103.19ZM141.774 103.19C141.774 101.48 143.079 100.19 144.699 100.19C146.319 100.19 147.639 101.48 147.639 103.19C147.639 104.96 146.319 106.25 144.699 106.25C143.079 106.25 141.774 104.96 141.774 103.19ZM150.504 104.255C150.504 106.22 151.254 107.18 153.039 107.18C154.704 107.18 155.724 105.95 156.009 105.215H156.039C156.039 105.215 155.979 105.485 155.979 105.815V107H156.984V99.455H155.964V103.07C155.964 104.705 154.899 106.22 153.174 106.22C151.719 106.22 151.539 105.17 151.539 103.985V99.455H150.504V104.255ZM159.413 107H160.433V103.31C160.433 101.555 161.693 100.235 163.298 100.235C164.753 100.235 164.948 101.285 164.948 102.47V107H165.968V102.2C165.968 100.34 165.308 99.275 163.433 99.275C161.663 99.275 160.673 100.55 160.388 101.24H160.358C160.358 101.24 160.418 100.97 160.418 100.64V99.455H159.413V107ZM167.839 103.22C167.839 105.56 169.114 107.18 171.124 107.18C172.429 107.18 173.329 106.46 173.749 105.605H173.779C173.779 105.605 173.734 105.815 173.734 106.145V107H174.724V96.455H173.704V100.19C173.704 100.505 173.749 100.76 173.749 100.76H173.719C173.254 99.845 172.294 99.275 171.244 99.275C169.249 99.275 167.839 100.835 167.839 103.22ZM168.889 103.22C168.889 101.3 169.999 100.205 171.334 100.205C172.939 100.205 173.719 101.69 173.719 103.205C173.719 105.365 172.549 106.265 171.289 106.265C169.879 106.265 168.889 105.08 168.889 103.22ZM180.857 97.73H181.967V96.455H180.857V97.73ZM180.902 107H181.922V99.455H180.902V107ZM183.699 106.085C184.419 106.835 185.499 107.18 186.504 107.18C187.989 107.18 189.054 106.295 189.054 105.05C189.054 102.56 185.019 103.07 185.019 101.345C185.019 100.52 185.739 100.175 186.534 100.175C187.209 100.175 187.989 100.43 188.424 100.865L188.904 100.1C188.289 99.515 187.404 99.275 186.579 99.275C185.199 99.275 184.014 99.995 184.014 101.375C184.014 103.85 188.034 103.385 188.034 105.065C188.034 105.86 187.359 106.28 186.519 106.28C185.694 106.28 184.809 105.95 184.239 105.365L183.699 106.085ZM193.585 104.045C193.585 106.31 195.085 107.18 196.54 107.18C197.995 107.18 199.495 106.325 199.495 104.045V96.455H195.88V97.385H198.46V104.045C198.46 105.65 197.5 106.205 196.525 106.205C195.19 106.205 194.62 105.17 194.62 104.015V103.625H193.585V104.045ZM201.336 104.975C201.336 106.43 202.611 107.18 203.886 107.18C205.101 107.18 206.046 106.4 206.436 105.485H206.466C206.466 105.485 206.421 105.74 206.421 106.115V107H207.396V102.17C207.396 100.28 206.391 99.275 204.576 99.275C203.571 99.275 202.506 99.62 201.906 100.13L202.371 100.91C202.986 100.46 203.751 100.19 204.516 100.19C205.581 100.19 206.376 100.685 206.376 102.14V102.35H205.926C204.486 102.35 201.336 102.5 201.336 104.975ZM202.371 104.885C202.371 103.205 204.771 103.16 205.941 103.16H206.376V103.505C206.376 104.825 205.521 106.325 204.066 106.325C202.941 106.325 202.371 105.59 202.371 104.885ZM209.745 107H210.765V103.31C210.765 101.555 212.025 100.235 213.63 100.235C215.085 100.235 215.28 101.285 215.28 102.47V107H216.3V102.2C216.3 100.34 215.64 99.275 213.765 99.275C211.995 99.275 211.005 100.55 210.72 101.24H210.69C210.69 101.24 210.75 100.97 210.75 100.64V99.455H209.745V107ZM218.561 104.255C218.561 106.22 219.311 107.18 221.096 107.18C222.761 107.18 223.781 105.95 224.066 105.215H224.096C224.096 105.215 224.036 105.485 224.036 105.815V107H225.041V99.455H224.021V103.07C224.021 104.705 222.956 106.22 221.231 106.22C219.776 106.22 219.596 105.17 219.596 103.985V99.455H218.561V104.255ZM226.809 104.975C226.809 106.43 228.084 107.18 229.359 107.18C230.574 107.18 231.519 106.4 231.909 105.485H231.939C231.939 105.485 231.894 105.74 231.894 106.115V107H232.869V102.17C232.869 100.28 231.864 99.275 230.049 99.275C229.044 99.275 227.979 99.62 227.379 100.13L227.844 100.91C228.459 100.46 229.224 100.19 229.989 100.19C231.054 100.19 231.849 100.685 231.849 102.14V102.35H231.399C229.959 102.35 226.809 102.5 226.809 104.975ZM227.844 104.885C227.844 103.205 230.244 103.16 231.414 103.16H231.849V103.505C231.849 104.825 230.994 106.325 229.539 106.325C228.414 106.325 227.844 105.59 227.844 104.885ZM235.218 107H236.238V103.805C236.238 102.305 236.943 100.4 238.638 100.4C238.788 100.4 238.968 100.415 239.013 100.43V99.425C238.893 99.395 238.743 99.38 238.608 99.38C237.438 99.38 236.568 100.31 236.193 101.45H236.163C236.163 101.45 236.223 101.18 236.223 100.85V99.455H235.218V107ZM240.04 108.89L239.65 109.7C239.65 109.7 240.205 110.15 240.985 110.15C241.99 110.15 242.755 109.535 243.145 108.575L246.865 99.455H245.77L243.595 104.96C243.445 105.335 243.34 105.755 243.34 105.755H243.31C243.31 105.755 243.175 105.335 243.025 104.96L240.82 99.455H239.695L242.83 106.925L242.38 108.005C242.08 108.695 241.6 109.235 240.94 109.235C240.46 109.235 240.04 108.89 240.04 108.89ZM251.455 107H257.17V106.07H254.845V96.455H253.885L251.5 98.825L252.16 99.485L253.285 98.375C253.705 97.955 253.81 97.745 253.81 97.745H253.84C253.84 97.745 253.825 98.03 253.825 98.33V106.07H251.455V107ZM258.41 105.74C259.28 106.64 260.525 107.18 261.755 107.18C263.75 107.18 265.22 105.68 265.22 103.88C265.22 101.6 263.255 100.835 261.935 100.775L265.07 97.145V96.455H258.905V97.385H262.865C263.42 97.385 263.72 97.34 263.72 97.34V97.37C263.72 97.37 263.45 97.625 263.165 97.955L260.525 101.045L260.78 101.66H261.515C262.88 101.66 264.155 102.425 264.155 103.91C264.155 105.26 263.015 106.175 261.755 106.175C260.66 106.175 259.64 105.59 259.055 104.945L258.41 105.74ZM267.583 104.255C267.583 106.775 269.353 107.06 270.223 107.06C270.418 107.06 270.568 107.045 270.658 107.03V106.115C270.523 106.145 270.418 106.145 270.313 106.145C269.728 106.145 268.603 105.905 268.603 104.15V100.37H270.508V99.515H268.603V97.37H267.598V99.515H266.593V100.37H267.583V104.255ZM272.191 107H273.211V103.355C273.211 101.54 274.486 100.235 276.076 100.235C277.531 100.235 277.726 101.285 277.726 102.47V107H278.746V102.2C278.746 100.34 278.086 99.275 276.211 99.275C274.501 99.275 273.481 100.505 273.196 101.21H273.166C273.166 101.21 273.211 100.94 273.211 100.595V96.455H272.191V107Z" fill="white"/>
</g>
<defs>
<filter id="filter0_d" x="0.798645" y="0.380005" width="298.447" height="117.77" filterUnits="userSpaceOnUse" color-interpolation-filters="sRGB">
<feFlood flood-opacity="0" result="BackgroundImageFix"/>
<feColorMatrix in="SourceAlpha" type="matrix" values="0 0 0 0 0 0 0 0 0 0 0 0 0 0 0 0 0 0 127 0"/>
<feOffset dy="4"/>
<feGaussianBlur stdDeviation="2"/>
<feColorMatrix type="matrix" values="0 0 0 0 0 0 0 0 0 0 0 0 0 0 0 0 0 0 0.25 0"/>
<feBlend mode="normal" in2="BackgroundImageFix" result="effect1_dropShadow"/>
<feBlend mode="normal" in="SourceGraphic" in2="effect1_dropShadow" result="shape"/>
</filter>
</defs>
</svg>
