<svg width="293" height="71" viewBox="0 0 293 71" fill="none" xmlns="http://www.w3.org/2000/svg">
<g filter="url(#filter0_d)">
<path d="M5.52232 11H11.4473V10.07H6.55732V0.455H5.52232V11ZM12.0512 7.19C12.0512 9.47 13.8212 11.18 16.0262 11.18C18.2312 11.18 20.0162 9.47 20.0162 7.19C20.0162 4.955 18.2312 3.275 16.0262 3.275C13.8212 3.275 12.0512 4.955 12.0512 7.19ZM13.1012 7.19C13.1012 5.48 14.4062 4.19 16.0262 4.19C17.6462 4.19 18.9662 5.48 18.9662 7.19C18.9662 8.96 17.6462 10.25 16.0262 10.25C14.4062 10.25 13.1012 8.96 13.1012 7.19ZM22.1037 8.255C22.1037 10.775 23.8737 11.06 24.7437 11.06C24.9387 11.06 25.0887 11.045 25.1787 11.03V10.115C25.0437 10.145 24.9387 10.145 24.8337 10.145C24.2487 10.145 23.1237 9.905 23.1237 8.15V4.37H25.0287V3.515H23.1237V1.37H22.1187V3.515H21.1137V4.37H22.1037V8.255ZM26.9816 8.255C26.9816 10.775 28.7516 11.06 29.6216 11.06C29.8166 11.06 29.9666 11.045 30.0566 11.03V10.115C29.9216 10.145 29.8166 10.145 29.7116 10.145C29.1266 10.145 28.0016 9.905 28.0016 8.15V4.37H29.9066V3.515H28.0016V1.37H26.9966V3.515H25.9916V4.37H26.9816V8.255ZM31.0063 7.235C31.0063 9.56 32.7163 11.18 34.9663 11.18C35.9563 11.18 37.0513 10.775 37.7563 10.13L37.2913 9.35C36.6763 9.905 35.8213 10.25 34.9963 10.25C33.4363 10.25 32.1163 9.185 32.0713 7.265H37.8613C37.8763 7.1 37.8913 6.92 37.8913 6.755C37.8913 4.88 36.8263 3.275 34.7413 3.275C32.7013 3.275 31.0063 4.76 31.0063 7.235ZM32.1163 6.455C32.3563 4.94 33.4513 4.115 34.7113 4.115C35.8363 4.115 36.7963 4.88 36.8563 6.455H32.1163ZM39.8073 11H40.8273V7.805C40.8273 6.305 41.5323 4.4 43.2273 4.4C43.3773 4.4 43.5573 4.415 43.6023 4.43V3.425C43.4823 3.395 43.3323 3.38 43.1973 3.38C42.0273 3.38 41.1573 4.31 40.7823 5.45H40.7523C40.7523 5.45 40.8123 5.18 40.8123 4.85V3.455H39.8073V11ZM45.1236 1.73H46.2336V0.455H45.1236V1.73ZM45.1686 11H46.1886V3.455H45.1686V11ZM48.1156 7.235C48.1156 9.56 49.8256 11.18 52.0756 11.18C53.0656 11.18 54.1606 10.775 54.8656 10.13L54.4006 9.35C53.7856 9.905 52.9306 10.25 52.1056 10.25C50.5456 10.25 49.2256 9.185 49.1806 7.265H54.9706C54.9856 7.1 55.0006 6.92 55.0006 6.755C55.0006 4.88 53.9356 3.275 51.8506 3.275C49.8106 3.275 48.1156 4.76 48.1156 7.235ZM49.2256 6.455C49.4656 4.94 50.5606 4.115 51.8206 4.115C52.9456 4.115 53.9056 4.88 53.9656 6.455H49.2256ZM56.2567 10.085C56.9767 10.835 58.0567 11.18 59.0617 11.18C60.5467 11.18 61.6117 10.295 61.6117 9.05C61.6117 6.56 57.5767 7.07 57.5767 5.345C57.5767 4.52 58.2967 4.175 59.0917 4.175C59.7667 4.175 60.5467 4.43 60.9817 4.865L61.4617 4.1C60.8467 3.515 59.9617 3.275 59.1367 3.275C57.7567 3.275 56.5717 3.995 56.5717 5.375C56.5717 7.85 60.5917 7.385 60.5917 9.065C60.5917 9.86 59.9167 10.28 59.0767 10.28C58.2517 10.28 57.3667 9.95 56.7967 9.365L56.2567 10.085ZM68.6476 11H69.7726L71.6026 5.63C71.7226 5.255 71.8426 4.805 71.8426 4.805H71.8726C71.8726 4.805 71.9776 5.255 72.0976 5.63L73.9426 11H75.0676L77.6026 3.455H76.5226L74.7076 9.065C74.5726 9.455 74.4826 9.875 74.4826 9.875H74.4526C74.4526 9.875 74.3326 9.44 74.2126 9.065L72.3676 3.485H71.3476L69.5026 9.065C69.3826 9.44 69.2626 9.875 69.2626 9.875H69.2326C69.2326 9.875 69.1276 9.44 69.0076 9.065L67.1926 3.455H66.0976L68.6476 11ZM79.2105 1.73H80.3205V0.455H79.2105V1.73ZM79.2555 11H80.2755V3.455H79.2555V11ZM82.7126 9.215C82.7126 10.865 83.8376 11.06 84.4526 11.06C84.6176 11.06 84.7376 11.045 84.8276 11.03V10.115C84.7376 10.13 84.6476 10.13 84.5876 10.13C84.1976 10.13 83.7326 9.98 83.7326 8.99V0.455H82.7126V9.215ZM86.404 9.215C86.404 10.865 87.529 11.06 88.144 11.06C88.309 11.06 88.429 11.045 88.519 11.03V10.115C88.429 10.13 88.339 10.13 88.279 10.13C87.889 10.13 87.424 9.98 87.424 8.99V0.455H86.404V9.215ZM93.8454 11H94.8204V10.25C94.8204 9.89 94.7754 9.635 94.7754 9.635H94.8054C95.2854 10.58 96.2454 11.18 97.3104 11.18C99.3054 11.18 100.715 9.62 100.715 7.22C100.715 4.895 99.4704 3.275 97.4304 3.275C96.2754 3.275 95.3004 3.875 94.8504 4.805H94.8204C94.8204 4.805 94.8654 4.535 94.8654 4.175V0.455H93.8454V11ZM94.8354 7.25C94.8354 5.105 96.0204 4.205 97.2804 4.205C98.6904 4.205 99.6804 5.39 99.6804 7.235C99.6804 9.155 98.5704 10.265 97.2354 10.265C95.6304 10.265 94.8354 8.765 94.8354 7.25ZM102.168 7.235C102.168 9.56 103.878 11.18 106.128 11.18C107.118 11.18 108.213 10.775 108.918 10.13L108.453 9.35C107.838 9.905 106.983 10.25 106.158 10.25C104.598 10.25 103.278 9.185 103.233 7.265H109.023C109.038 7.1 109.053 6.92 109.053 6.755C109.053 4.88 107.988 3.275 105.903 3.275C103.863 3.275 102.168 4.76 102.168 7.235ZM103.278 6.455C103.518 4.94 104.613 4.115 105.873 4.115C106.998 4.115 107.958 4.88 108.018 6.455H103.278ZM114.719 11H115.739V7.355C115.739 5.54 117.014 4.235 118.604 4.235C120.059 4.235 120.254 5.285 120.254 6.47V11H121.274V6.2C121.274 4.34 120.614 3.275 118.739 3.275C117.029 3.275 116.009 4.505 115.724 5.21H115.694C115.694 5.21 115.739 4.94 115.739 4.595V0.455H114.719V11ZM123.116 7.235C123.116 9.56 124.826 11.18 127.076 11.18C128.066 11.18 129.161 10.775 129.866 10.13L129.401 9.35C128.786 9.905 127.931 10.25 127.106 10.25C125.546 10.25 124.226 9.185 124.181 7.265H129.971C129.986 7.1 130.001 6.92 130.001 6.755C130.001 4.88 128.936 3.275 126.851 3.275C124.811 3.275 123.116 4.76 123.116 7.235ZM124.226 6.455C124.466 4.94 125.561 4.115 126.821 4.115C127.946 4.115 128.906 4.88 128.966 6.455H124.226ZM131.917 9.215C131.917 10.865 133.042 11.06 133.657 11.06C133.822 11.06 133.942 11.045 134.032 11.03V10.115C133.942 10.13 133.852 10.13 133.792 10.13C133.402 10.13 132.937 9.98 132.937 8.99V0.455H131.917V9.215ZM135.128 7.22C135.128 9.56 136.403 11.18 138.413 11.18C139.718 11.18 140.618 10.46 141.038 9.605H141.068C141.068 9.605 141.023 9.815 141.023 10.145V11H142.013V0.455H140.993V4.19C140.993 4.505 141.038 4.76 141.038 4.76H141.008C140.543 3.845 139.583 3.275 138.533 3.275C136.538 3.275 135.128 4.835 135.128 7.22ZM136.178 7.22C136.178 5.3 137.288 4.205 138.623 4.205C140.228 4.205 141.008 5.69 141.008 7.205C141.008 9.365 139.838 10.265 138.578 10.265C137.168 10.265 136.178 9.08 136.178 7.22ZM147.681 7.19C147.681 9.47 149.451 11.18 151.656 11.18C153.861 11.18 155.646 9.47 155.646 7.19C155.646 4.955 153.861 3.275 151.656 3.275C149.451 3.275 147.681 4.955 147.681 7.19ZM148.731 7.19C148.731 5.48 150.036 4.19 151.656 4.19C153.276 4.19 154.596 5.48 154.596 7.19C154.596 8.96 153.276 10.25 151.656 10.25C150.036 10.25 148.731 8.96 148.731 7.19ZM157.551 11H158.571V7.31C158.571 5.555 159.831 4.235 161.436 4.235C162.891 4.235 163.086 5.285 163.086 6.47V11H164.106V6.2C164.106 4.34 163.446 3.275 161.571 3.275C159.801 3.275 158.811 4.55 158.526 5.24H158.496C158.496 5.24 158.556 4.97 158.556 4.64V3.455H157.551V11ZM169.848 11H175.563V10.07H173.238V0.455H172.278L169.893 2.825L170.553 3.485L171.678 2.375C172.098 1.955 172.203 1.745 172.203 1.745H172.233C172.233 1.745 172.218 2.03 172.218 2.33V10.07H169.848V11ZM176.803 9.74C177.673 10.64 178.918 11.18 180.148 11.18C182.143 11.18 183.613 9.68 183.613 7.88C183.613 5.6 181.648 4.835 180.328 4.775L183.463 1.145V0.455H177.298V1.385H181.258C181.813 1.385 182.113 1.34 182.113 1.34V1.37C182.113 1.37 181.843 1.625 181.558 1.955L178.918 5.045L179.173 5.66H179.908C181.273 5.66 182.548 6.425 182.548 7.91C182.548 9.26 181.408 10.175 180.148 10.175C179.053 10.175 178.033 9.59 177.448 8.945L176.803 9.74ZM189.756 11H193.146C196.326 11 198.441 9.065 198.441 5.72C198.441 2.39 196.326 0.455 193.146 0.455H189.756V11ZM190.791 10.07V1.385H193.041C195.636 1.385 197.361 2.915 197.361 5.72C197.361 8.555 195.636 10.07 193.041 10.07H190.791ZM200.02 7.235C200.02 9.56 201.73 11.18 203.98 11.18C204.97 11.18 206.065 10.775 206.77 10.13L206.305 9.35C205.69 9.905 204.835 10.25 204.01 10.25C202.45 10.25 201.13 9.185 201.085 7.265H206.875C206.89 7.1 206.905 6.92 206.905 6.755C206.905 4.88 205.84 3.275 203.755 3.275C201.715 3.275 200.02 4.76 200.02 7.235ZM201.13 6.455C201.37 4.94 202.465 4.115 203.725 4.115C204.85 4.115 205.81 4.88 205.87 6.455H201.13ZM208.311 7.235C208.311 9.575 210.036 11.18 212.271 11.18C213.426 11.18 214.551 10.715 215.211 9.98L214.746 9.215C214.146 9.875 213.201 10.25 212.331 10.25C210.651 10.25 209.361 9.005 209.361 7.235C209.361 5.435 210.651 4.19 212.301 4.19C213.141 4.19 213.981 4.58 214.506 5.12L215.031 4.355C214.356 3.62 213.261 3.275 212.271 3.275C210.051 3.275 208.311 4.91 208.311 7.235ZM216.28 7.235C216.28 9.56 217.99 11.18 220.24 11.18C221.23 11.18 222.325 10.775 223.03 10.13L222.565 9.35C221.95 9.905 221.095 10.25 220.27 10.25C218.71 10.25 217.39 9.185 217.345 7.265H223.135C223.15 7.1 223.165 6.92 223.165 6.755C223.165 4.88 222.1 3.275 220.015 3.275C217.975 3.275 216.28 4.76 216.28 7.235ZM217.39 6.455C217.63 4.94 218.725 4.115 219.985 4.115C221.11 4.115 222.07 4.88 222.13 6.455H217.39ZM225.081 11H226.101V7.355C226.101 5.825 227.151 4.22 228.681 4.22C230.106 4.22 230.271 5.315 230.271 6.455V11H231.291V7.355C231.291 5.795 232.311 4.22 233.826 4.22C235.191 4.22 235.446 5.21 235.446 6.455V11H236.466V6.2C236.466 4.34 235.791 3.275 233.961 3.275C232.701 3.275 231.606 4.205 231.186 5.165H231.156C230.946 3.935 230.226 3.275 228.831 3.275C227.646 3.275 226.431 4.22 226.056 5.24H226.026C226.026 5.24 226.086 4.97 226.086 4.64V3.455H225.081V11ZM238.821 11H239.796V10.25C239.796 9.89 239.751 9.635 239.751 9.635H239.781C240.261 10.58 241.221 11.18 242.286 11.18C244.281 11.18 245.691 9.62 245.691 7.22C245.691 4.895 244.446 3.275 242.406 3.275C241.251 3.275 240.276 3.875 239.826 4.805H239.796C239.796 4.805 239.841 4.535 239.841 4.175V0.455H238.821V11ZM239.811 7.25C239.811 5.105 240.996 4.205 242.256 4.205C243.666 4.205 244.656 5.39 244.656 7.235C244.656 9.155 243.546 10.265 242.211 10.265C240.606 10.265 239.811 8.765 239.811 7.25ZM247.144 7.235C247.144 9.56 248.854 11.18 251.104 11.18C252.094 11.18 253.189 10.775 253.894 10.13L253.429 9.35C252.814 9.905 251.959 10.25 251.134 10.25C249.574 10.25 248.254 9.185 248.209 7.265H253.999C254.014 7.1 254.029 6.92 254.029 6.755C254.029 4.88 252.964 3.275 250.879 3.275C248.839 3.275 247.144 4.76 247.144 7.235ZM248.254 6.455C248.494 4.94 249.589 4.115 250.849 4.115C251.974 4.115 252.934 4.88 252.994 6.455H248.254ZM255.945 11H256.965V7.805C256.965 6.305 257.67 4.4 259.365 4.4C259.515 4.4 259.695 4.415 259.74 4.43V3.425C259.62 3.395 259.47 3.38 259.335 3.38C258.165 3.38 257.295 4.31 256.92 5.45H256.89C256.89 5.45 256.95 5.18 256.95 4.85V3.455H255.945V11ZM264.059 8.975C264.059 10.43 265.334 11.18 266.609 11.18C267.824 11.18 268.769 10.4 269.159 9.485H269.189C269.189 9.485 269.144 9.74 269.144 10.115V11H270.119V6.17C270.119 4.28 269.114 3.275 267.299 3.275C266.294 3.275 265.229 3.62 264.629 4.13L265.094 4.91C265.709 4.46 266.474 4.19 267.239 4.19C268.304 4.19 269.099 4.685 269.099 6.14V6.35H268.649C267.209 6.35 264.059 6.5 264.059 8.975ZM265.094 8.885C265.094 7.205 267.494 7.16 268.664 7.16H269.099V7.505C269.099 8.825 268.244 10.325 266.789 10.325C265.664 10.325 265.094 9.59 265.094 8.885ZM272.468 11H273.488V7.31C273.488 5.555 274.748 4.235 276.353 4.235C277.808 4.235 278.003 5.285 278.003 6.47V11H279.023V6.2C279.023 4.34 278.363 3.275 276.488 3.275C274.718 3.275 273.728 4.55 273.443 5.24H273.413C273.413 5.24 273.473 4.97 273.473 4.64V3.455H272.468V11ZM280.895 7.22C280.895 9.56 282.17 11.18 284.18 11.18C285.485 11.18 286.385 10.46 286.805 9.605H286.835C286.835 9.605 286.79 9.815 286.79 10.145V11H287.78V0.455H286.76V4.19C286.76 4.505 286.805 4.76 286.805 4.76H286.775C286.31 3.845 285.35 3.275 284.3 3.275C282.305 3.275 280.895 4.835 280.895 7.22ZM281.945 7.22C281.945 5.3 283.055 4.205 284.39 4.205C285.995 4.205 286.775 5.69 286.775 7.205C286.775 9.365 285.605 10.265 284.345 10.265C282.935 10.265 281.945 9.08 281.945 7.22ZM17.2915 35H23.0065V34.07H20.6815V24.455H19.7215L17.3365 26.825L17.9965 27.485L19.1215 26.375C19.5415 25.955 19.6465 25.745 19.6465 25.745H19.6765C19.6765 25.745 19.6615 26.03 19.6615 26.33V34.07H17.2915V35ZM24.2467 33.74C25.1167 34.64 26.3617 35.18 27.5917 35.18C29.5867 35.18 31.0567 33.68 31.0567 31.88C31.0567 29.6 29.0917 28.835 27.7717 28.775L30.9067 25.145V24.455H24.7417V25.385H28.7017C29.2567 25.385 29.5567 25.34 29.5567 25.34V25.37C29.5567 25.37 29.2867 25.625 29.0017 25.955L26.3617 29.045L26.6167 29.66H27.3517C28.7167 29.66 29.9917 30.425 29.9917 31.91C29.9917 33.26 28.8517 34.175 27.5917 34.175C26.4967 34.175 25.4767 33.59 24.8917 32.945L24.2467 33.74ZM35.7984 32.045C35.7984 34.31 37.2984 35.18 38.7534 35.18C40.2084 35.18 41.7084 34.325 41.7084 32.045V24.455H38.0934V25.385H40.6734V32.045C40.6734 33.65 39.7134 34.205 38.7384 34.205C37.4034 34.205 36.8334 33.17 36.8334 32.015V31.625H35.7984V32.045ZM43.5491 32.975C43.5491 34.43 44.8241 35.18 46.0991 35.18C47.3141 35.18 48.2591 34.4 48.6491 33.485H48.6791C48.6791 33.485 48.6341 33.74 48.6341 34.115V35H49.6091V30.17C49.6091 28.28 48.6041 27.275 46.7891 27.275C45.7841 27.275 44.7191 27.62 44.1191 28.13L44.5841 28.91C45.1991 28.46 45.9641 28.19 46.7291 28.19C47.7941 28.19 48.5891 28.685 48.5891 30.14V30.35H48.1391C46.6991 30.35 43.5491 30.5 43.5491 32.975ZM44.5841 32.885C44.5841 31.205 46.9841 31.16 48.1541 31.16H48.5891V31.505C48.5891 32.825 47.7341 34.325 46.2791 34.325C45.1541 34.325 44.5841 33.59 44.5841 32.885ZM51.9582 35H52.9782V31.31C52.9782 29.555 54.2382 28.235 55.8432 28.235C57.2982 28.235 57.4932 29.285 57.4932 30.47V35H58.5132V30.2C58.5132 28.34 57.8532 27.275 55.9782 27.275C54.2082 27.275 53.2182 28.55 52.9332 29.24H52.9032C52.9032 29.24 52.9632 28.97 52.9632 28.64V27.455H51.9582V35ZM60.7744 32.255C60.7744 34.22 61.5244 35.18 63.3094 35.18C64.9744 35.18 65.9944 33.95 66.2794 33.215H66.3094C66.3094 33.215 66.2494 33.485 66.2494 33.815V35H67.2544V27.455H66.2344V31.07C66.2344 32.705 65.1694 34.22 63.4444 34.22C61.9894 34.22 61.8094 33.17 61.8094 31.985V27.455H60.7744V32.255ZM69.0228 32.975C69.0228 34.43 70.2978 35.18 71.5728 35.18C72.7878 35.18 73.7328 34.4 74.1228 33.485H74.1528C74.1528 33.485 74.1078 33.74 74.1078 34.115V35H75.0828V30.17C75.0828 28.28 74.0778 27.275 72.2628 27.275C71.2578 27.275 70.1928 27.62 69.5928 28.13L70.0578 28.91C70.6728 28.46 71.4378 28.19 72.2028 28.19C73.2678 28.19 74.0628 28.685 74.0628 30.14V30.35H73.6128C72.1728 30.35 69.0228 30.5 69.0228 32.975ZM70.0578 32.885C70.0578 31.205 72.4578 31.16 73.6278 31.16H74.0628V31.505C74.0628 32.825 73.2078 34.325 71.7528 34.325C70.6278 34.325 70.0578 33.59 70.0578 32.885ZM77.4318 35H78.4518V31.805C78.4518 30.305 79.1568 28.4 80.8518 28.4C81.0018 28.4 81.1818 28.415 81.2268 28.43V27.425C81.1068 27.395 80.9568 27.38 80.8218 27.38C79.6518 27.38 78.7818 28.31 78.4068 29.45H78.3768C78.3768 29.45 78.4368 29.18 78.4368 28.85V27.455H77.4318V35ZM82.2531 36.89L81.8631 37.7C81.8631 37.7 82.4181 38.15 83.1981 38.15C84.2031 38.15 84.9681 37.535 85.3581 36.575L89.0781 27.455H87.9831L85.8081 32.96C85.6581 33.335 85.5531 33.755 85.5531 33.755H85.5231C85.5231 33.755 85.3881 33.335 85.2381 32.96L83.0331 27.455H81.9081L85.0431 34.925L84.5931 36.005C84.2931 36.695 83.8131 37.235 83.1531 37.235C82.6731 37.235 82.2531 36.89 82.2531 36.89ZM89.9538 35H91.1838V33.755H89.9538V35ZM97.5658 35H100.956C104.136 35 106.251 33.065 106.251 29.72C106.251 26.39 104.136 24.455 100.956 24.455H97.5658V35ZM98.6008 34.07V25.385H100.851C103.446 25.385 105.171 26.915 105.171 29.72C105.171 32.555 103.446 34.07 100.851 34.07H98.6008ZM108.177 32.255C108.177 34.22 108.927 35.18 110.712 35.18C112.377 35.18 113.397 33.95 113.682 33.215H113.712C113.712 33.215 113.652 33.485 113.652 33.815V35H114.657V27.455H113.637V31.07C113.637 32.705 112.572 34.22 110.847 34.22C109.392 34.22 109.212 33.17 109.212 31.985V27.455H108.177V32.255ZM117.085 35H118.105V31.805C118.105 30.305 118.81 28.4 120.505 28.4C120.655 28.4 120.835 28.415 120.88 28.43V27.425C120.76 27.395 120.61 27.38 120.475 27.38C119.305 27.38 118.435 28.31 118.06 29.45H118.03C118.03 29.45 118.09 29.18 118.09 28.85V27.455H117.085V35ZM122.401 25.73H123.511V24.455H122.401V25.73ZM122.446 35H123.466V27.455H122.446V35ZM125.903 35H126.923V31.31C126.923 29.555 128.183 28.235 129.788 28.235C131.243 28.235 131.438 29.285 131.438 30.47V35H132.458V30.2C132.458 28.34 131.798 27.275 129.923 27.275C128.153 27.275 127.163 28.55 126.878 29.24H126.848C126.848 29.24 126.908 28.97 126.908 28.64V27.455H125.903V35ZM135.395 36.71L135.02 37.535C135.755 37.925 136.625 38.15 137.48 38.15C139.34 38.15 141.11 37.22 141.11 34.82V27.455H140.12V28.34C140.12 28.505 140.15 28.595 140.15 28.595H140.12C139.655 27.665 138.62 27.275 137.615 27.275C135.59 27.275 134.345 28.82 134.345 31.085C134.345 33.35 135.68 34.955 137.705 34.955C138.875 34.955 139.655 34.415 140.105 33.56H140.135C140.135 33.56 140.075 33.83 140.075 34.115V34.865C140.075 36.545 138.92 37.22 137.45 37.22C136.745 37.22 135.98 37.01 135.395 36.71ZM135.38 31.07C135.38 29.27 136.25 28.19 137.72 28.19C139.055 28.19 140.105 28.88 140.105 31.085C140.105 33.305 139.055 34.04 137.855 34.04C136.37 34.04 135.38 32.885 135.38 31.07ZM147.267 32.255C147.267 34.775 149.037 35.06 149.907 35.06C150.102 35.06 150.252 35.045 150.342 35.03V34.115C150.207 34.145 150.102 34.145 149.997 34.145C149.412 34.145 148.287 33.905 148.287 32.15V28.37H150.192V27.515H148.287V25.37H147.282V27.515H146.277V28.37H147.267V32.255ZM151.875 35H152.895V31.355C152.895 29.54 154.17 28.235 155.76 28.235C157.215 28.235 157.41 29.285 157.41 30.47V35H158.43V30.2C158.43 28.34 157.77 27.275 155.895 27.275C154.185 27.275 153.165 28.505 152.88 29.21H152.85C152.85 29.21 152.895 28.94 152.895 28.595V24.455H151.875V35ZM160.271 31.235C160.271 33.56 161.981 35.18 164.231 35.18C165.221 35.18 166.316 34.775 167.021 34.13L166.556 33.35C165.941 33.905 165.086 34.25 164.261 34.25C162.701 34.25 161.381 33.185 161.336 31.265H167.126C167.141 31.1 167.156 30.92 167.156 30.755C167.156 28.88 166.091 27.275 164.006 27.275C161.966 27.275 160.271 28.76 160.271 31.235ZM161.381 30.455C161.621 28.94 162.716 28.115 163.976 28.115C165.101 28.115 166.061 28.88 166.121 30.455H161.381ZM168.412 34.085C169.132 34.835 170.212 35.18 171.217 35.18C172.702 35.18 173.767 34.295 173.767 33.05C173.767 30.56 169.732 31.07 169.732 29.345C169.732 28.52 170.452 28.175 171.247 28.175C171.922 28.175 172.702 28.43 173.137 28.865L173.617 28.1C173.002 27.515 172.117 27.275 171.292 27.275C169.912 27.275 168.727 27.995 168.727 29.375C168.727 31.85 172.747 31.385 172.747 33.065C172.747 33.86 172.072 34.28 171.232 34.28C170.407 34.28 169.522 33.95 168.952 33.365L168.412 34.085ZM175.14 31.235C175.14 33.56 176.85 35.18 179.1 35.18C180.09 35.18 181.185 34.775 181.89 34.13L181.425 33.35C180.81 33.905 179.955 34.25 179.13 34.25C177.57 34.25 176.25 33.185 176.205 31.265H181.995C182.01 31.1 182.025 30.92 182.025 30.755C182.025 28.88 180.96 27.275 178.875 27.275C176.835 27.275 175.14 28.76 175.14 31.235ZM176.25 30.455C176.49 28.94 177.585 28.115 178.845 28.115C179.97 28.115 180.93 28.88 180.99 30.455H176.25ZM187.668 32.255C187.668 34.775 189.438 35.06 190.308 35.06C190.503 35.06 190.653 35.045 190.743 35.03V34.115C190.608 34.145 190.503 34.145 190.398 34.145C189.813 34.145 188.688 33.905 188.688 32.15V28.37H190.593V27.515H188.688V25.37H187.683V27.515H186.678V28.37H187.668V32.255ZM194.046 35H195.171L197.001 29.63C197.121 29.255 197.241 28.805 197.241 28.805H197.271C197.271 28.805 197.376 29.255 197.496 29.63L199.341 35H200.466L203.001 27.455H201.921L200.106 33.065C199.971 33.455 199.881 33.875 199.881 33.875H199.851C199.851 33.875 199.731 33.44 199.611 33.065L197.766 27.485H196.746L194.901 33.065C194.781 33.44 194.661 33.875 194.661 33.875H194.631C194.631 33.875 194.526 33.44 194.406 33.065L192.591 27.455H191.496L194.046 35ZM203.953 31.19C203.953 33.47 205.723 35.18 207.928 35.18C210.133 35.18 211.918 33.47 211.918 31.19C211.918 28.955 210.133 27.275 207.928 27.275C205.723 27.275 203.953 28.955 203.953 31.19ZM205.003 31.19C205.003 29.48 206.308 28.19 207.928 28.19C209.548 28.19 210.868 29.48 210.868 31.19C210.868 32.96 209.548 34.25 207.928 34.25C206.308 34.25 205.003 32.96 205.003 31.19ZM217.093 31.22C217.093 33.56 218.368 35.18 220.378 35.18C221.683 35.18 222.583 34.46 223.003 33.605H223.033C223.033 33.605 222.988 33.815 222.988 34.145V35H223.978V24.455H222.958V28.19C222.958 28.505 223.003 28.76 223.003 28.76H222.973C222.508 27.845 221.548 27.275 220.498 27.275C218.503 27.275 217.093 28.835 217.093 31.22ZM218.143 31.22C218.143 29.3 219.253 28.205 220.588 28.205C222.193 28.205 222.973 29.69 222.973 31.205C222.973 33.365 221.803 34.265 220.543 34.265C219.133 34.265 218.143 33.08 218.143 31.22ZM225.746 32.975C225.746 34.43 227.021 35.18 228.296 35.18C229.511 35.18 230.456 34.4 230.846 33.485H230.876C230.876 33.485 230.831 33.74 230.831 34.115V35H231.806V30.17C231.806 28.28 230.801 27.275 228.986 27.275C227.981 27.275 226.916 27.62 226.316 28.13L226.781 28.91C227.396 28.46 228.161 28.19 228.926 28.19C229.991 28.19 230.786 28.685 230.786 30.14V30.35H230.336C228.896 30.35 225.746 30.5 225.746 32.975ZM226.781 32.885C226.781 31.205 229.181 31.16 230.351 31.16H230.786V31.505C230.786 32.825 229.931 34.325 228.476 34.325C227.351 34.325 226.781 33.59 226.781 32.885ZM233.469 36.89L233.079 37.7C233.079 37.7 233.634 38.15 234.414 38.15C235.419 38.15 236.184 37.535 236.574 36.575L240.294 27.455H239.199L237.024 32.96C236.874 33.335 236.769 33.755 236.769 33.755H236.739C236.739 33.755 236.604 33.335 236.454 32.96L234.249 27.455H233.124L236.259 34.925L235.809 36.005C235.509 36.695 235.029 37.235 234.369 37.235C233.889 37.235 233.469 36.89 233.469 36.89ZM241.083 34.085C241.803 34.835 242.883 35.18 243.888 35.18C245.373 35.18 246.438 34.295 246.438 33.05C246.438 30.56 242.403 31.07 242.403 29.345C242.403 28.52 243.123 28.175 243.918 28.175C244.593 28.175 245.373 28.43 245.808 28.865L246.288 28.1C245.673 27.515 244.788 27.275 243.963 27.275C242.583 27.275 241.398 27.995 241.398 29.375C241.398 31.85 245.418 31.385 245.418 33.065C245.418 33.86 244.743 34.28 243.903 34.28C243.078 34.28 242.193 33.95 241.623 33.365L241.083 34.085ZM247.765 36.455H248.65L249.79 33.77H248.62L247.765 36.455ZM255.973 32.255C255.973 34.775 257.743 35.06 258.613 35.06C258.808 35.06 258.958 35.045 259.048 35.03V34.115C258.913 34.145 258.808 34.145 258.703 34.145C258.118 34.145 256.993 33.905 256.993 32.15V28.37H258.898V27.515H256.993V25.37H255.988V27.515H254.983V28.37H255.973V32.255ZM260.581 35H261.601V31.355C261.601 29.54 262.876 28.235 264.466 28.235C265.921 28.235 266.116 29.285 266.116 30.47V35H267.136V30.2C267.136 28.34 266.476 27.275 264.601 27.275C262.891 27.275 261.871 28.505 261.586 29.21H261.556C261.556 29.21 261.601 28.94 261.601 28.595V24.455H260.581V35ZM268.977 31.235C268.977 33.56 270.687 35.18 272.937 35.18C273.927 35.18 275.022 34.775 275.727 34.13L275.262 33.35C274.647 33.905 273.792 34.25 272.967 34.25C271.407 34.25 270.087 33.185 270.042 31.265H275.832C275.847 31.1 275.862 30.92 275.862 30.755C275.862 28.88 274.797 27.275 272.712 27.275C270.672 27.275 268.977 28.76 268.977 31.235ZM270.087 30.455C270.327 28.94 271.422 28.115 272.682 28.115C273.807 28.115 274.767 28.88 274.827 30.455H270.087ZM5.10449 59H6.13949V52.37H8.05949V51.515H6.13949V51.185C6.13949 49.505 7.23449 49.295 7.81949 49.295C7.98449 49.295 8.11949 49.31 8.17949 49.325V48.425C8.02949 48.395 7.89449 48.38 7.71449 48.38C6.87449 48.38 5.10449 48.695 5.10449 51.17V51.515H4.15949V52.37H5.10449V59ZM8.89445 55.19C8.89445 57.47 10.6645 59.18 12.8695 59.18C15.0745 59.18 16.8595 57.47 16.8595 55.19C16.8595 52.955 15.0745 51.275 12.8695 51.275C10.6645 51.275 8.89445 52.955 8.89445 55.19ZM9.94445 55.19C9.94445 53.48 11.2495 52.19 12.8695 52.19C14.4895 52.19 15.8095 53.48 15.8095 55.19C15.8095 56.96 14.4895 58.25 12.8695 58.25C11.2495 58.25 9.94445 56.96 9.94445 55.19ZM18.7648 57.215C18.7648 58.865 19.8898 59.06 20.5048 59.06C20.6698 59.06 20.7898 59.045 20.8798 59.03V58.115C20.7898 58.13 20.6998 58.13 20.6398 58.13C20.2498 58.13 19.7848 57.98 19.7848 56.99V48.455H18.7648V57.215ZM22.4562 57.215C22.4562 58.865 23.5812 59.06 24.1962 59.06C24.3612 59.06 24.4812 59.045 24.5712 59.03V58.115C24.4812 58.13 24.3912 58.13 24.3312 58.13C23.9412 58.13 23.4762 57.98 23.4762 56.99V48.455H22.4562V57.215ZM25.6376 55.19C25.6376 57.47 27.4076 59.18 29.6126 59.18C31.8176 59.18 33.6026 57.47 33.6026 55.19C33.6026 52.955 31.8176 51.275 29.6126 51.275C27.4076 51.275 25.6376 52.955 25.6376 55.19ZM26.6876 55.19C26.6876 53.48 27.9926 52.19 29.6126 52.19C31.2326 52.19 32.5526 53.48 32.5526 55.19C32.5526 56.96 31.2326 58.25 29.6126 58.25C27.9926 58.25 26.6876 56.96 26.6876 55.19ZM37.0875 59H38.2125L40.0425 53.63C40.1625 53.255 40.2825 52.805 40.2825 52.805H40.3125C40.3125 52.805 40.4175 53.255 40.5375 53.63L42.3825 59H43.5075L46.0425 51.455H44.9625L43.1475 57.065C43.0125 57.455 42.9225 57.875 42.9225 57.875H42.8925C42.8925 57.875 42.7725 57.44 42.6525 57.065L40.8075 51.485H39.7875L37.9425 57.065C37.8225 57.44 37.7025 57.875 37.7025 57.875H37.6725C37.6725 57.875 37.5675 57.44 37.4475 57.065L35.6325 51.455H34.5375L37.0875 59ZM47.6505 49.73H48.7605V48.455H47.6505V49.73ZM47.6955 59H48.7155V51.455H47.6955V59ZM51.1525 59H52.1725V55.31C52.1725 53.555 53.4325 52.235 55.0375 52.235C56.4925 52.235 56.6875 53.285 56.6875 54.47V59H57.7075V54.2C57.7075 52.34 57.0475 51.275 55.1725 51.275C53.4025 51.275 52.4125 52.55 52.1275 53.24H52.0975C52.0975 53.24 52.1575 52.97 52.1575 52.64V51.455H51.1525V59ZM60.6438 60.71L60.2688 61.535C61.0038 61.925 61.8738 62.15 62.7288 62.15C64.5888 62.15 66.3588 61.22 66.3588 58.82V51.455H65.3688V52.34C65.3688 52.505 65.3988 52.595 65.3988 52.595H65.3688C64.9038 51.665 63.8688 51.275 62.8638 51.275C60.8388 51.275 59.5938 52.82 59.5938 55.085C59.5938 57.35 60.9288 58.955 62.9538 58.955C64.1238 58.955 64.9038 58.415 65.3538 57.56H65.3838C65.3838 57.56 65.3238 57.83 65.3238 58.115V58.865C65.3238 60.545 64.1688 61.22 62.6987 61.22C61.9938 61.22 61.2288 61.01 60.6438 60.71ZM60.6288 55.07C60.6288 53.27 61.4988 52.19 62.9688 52.19C64.3038 52.19 65.3538 52.88 65.3538 55.085C65.3538 57.305 64.3038 58.04 63.1038 58.04C61.6188 58.04 60.6288 56.885 60.6288 55.07ZM71.8792 56.975C71.8792 58.43 73.1542 59.18 74.4292 59.18C75.6442 59.18 76.5892 58.4 76.9792 57.485H77.0092C77.0092 57.485 76.9642 57.74 76.9642 58.115V59H77.9392V54.17C77.9392 52.28 76.9342 51.275 75.1192 51.275C74.1142 51.275 73.0492 51.62 72.4492 52.13L72.9142 52.91C73.5292 52.46 74.2942 52.19 75.0592 52.19C76.1242 52.19 76.9192 52.685 76.9192 54.14V54.35H76.4692C75.0292 54.35 71.8792 54.5 71.8792 56.975ZM72.9142 56.885C72.9142 55.205 75.3142 55.16 76.4842 55.16H76.9192V55.505C76.9192 56.825 76.0642 58.325 74.6092 58.325C73.4842 58.325 72.9142 57.59 72.9142 56.885ZM80.2882 59H81.3082V55.355C81.3082 53.825 82.3582 52.22 83.8882 52.22C85.3132 52.22 85.4782 53.315 85.4782 54.455V59H86.4982V55.355C86.4982 53.795 87.5182 52.22 89.0332 52.22C90.3982 52.22 90.6532 53.21 90.6532 54.455V59H91.6732V54.2C91.6732 52.34 90.9982 51.275 89.1682 51.275C87.9082 51.275 86.8132 52.205 86.3932 53.165H86.3632C86.1532 51.935 85.4332 51.275 84.0382 51.275C82.8532 51.275 81.6382 52.22 81.2632 53.24H81.2332C81.2332 53.24 81.2932 52.97 81.2932 52.64V51.455H80.2882V59ZM93.5185 55.19C93.5185 57.47 95.2885 59.18 97.4935 59.18C99.6985 59.18 101.483 57.47 101.483 55.19C101.483 52.955 99.6985 51.275 97.4935 51.275C95.2885 51.275 93.5185 52.955 93.5185 55.19ZM94.5685 55.19C94.5685 53.48 95.8735 52.19 97.4935 52.19C99.1135 52.19 100.433 53.48 100.433 55.19C100.433 56.96 99.1135 58.25 97.4935 58.25C95.8735 58.25 94.5685 56.96 94.5685 55.19ZM103.299 56.255C103.299 58.22 104.049 59.18 105.834 59.18C107.499 59.18 108.519 57.95 108.804 57.215H108.834C108.834 57.215 108.774 57.485 108.774 57.815V59H109.779V51.455H108.759V55.07C108.759 56.705 107.694 58.22 105.969 58.22C104.514 58.22 104.334 57.17 104.334 55.985V51.455H103.299V56.255ZM112.207 59H113.227V55.31C113.227 53.555 114.487 52.235 116.092 52.235C117.547 52.235 117.742 53.285 117.742 54.47V59H118.762V54.2C118.762 52.34 118.102 51.275 116.227 51.275C114.457 51.275 113.467 52.55 113.182 53.24H113.152C113.152 53.24 113.212 52.97 113.212 52.64V51.455H112.207V59ZM121.383 56.255C121.383 58.775 123.153 59.06 124.023 59.06C124.218 59.06 124.368 59.045 124.458 59.03V58.115C124.323 58.145 124.218 58.145 124.113 58.145C123.528 58.145 122.403 57.905 122.403 56.15V52.37H124.308V51.515H122.403V49.37H121.398V51.515H120.393V52.37H121.383V56.255ZM125.331 58.085C126.051 58.835 127.131 59.18 128.136 59.18C129.621 59.18 130.686 58.295 130.686 57.05C130.686 54.56 126.651 55.07 126.651 53.345C126.651 52.52 127.371 52.175 128.166 52.175C128.841 52.175 129.621 52.43 130.056 52.865L130.536 52.1C129.921 51.515 129.036 51.275 128.211 51.275C126.831 51.275 125.646 51.995 125.646 53.375C125.646 55.85 129.666 55.385 129.666 57.065C129.666 57.86 128.991 58.28 128.151 58.28C127.326 58.28 126.441 57.95 125.871 57.365L125.331 58.085ZM137.722 59H138.847L140.677 53.63C140.797 53.255 140.917 52.805 140.917 52.805H140.947C140.947 52.805 141.052 53.255 141.172 53.63L143.017 59H144.142L146.677 51.455H145.597L143.782 57.065C143.647 57.455 143.557 57.875 143.557 57.875H143.527C143.527 57.875 143.407 57.44 143.287 57.065L141.442 51.485H140.422L138.577 57.065C138.457 57.44 138.337 57.875 138.337 57.875H138.307C138.307 57.875 138.202 57.44 138.082 57.065L136.267 51.455H135.172L137.722 59ZM148.285 49.73H149.395V48.455H148.285V49.73ZM148.33 59H149.35V51.455H148.33V59ZM151.787 57.215C151.787 58.865 152.912 59.06 153.527 59.06C153.692 59.06 153.812 59.045 153.902 59.03V58.115C153.812 58.13 153.722 58.13 153.662 58.13C153.272 58.13 152.807 57.98 152.807 56.99V48.455H151.787V57.215ZM155.479 57.215C155.479 58.865 156.604 59.06 157.219 59.06C157.384 59.06 157.504 59.045 157.594 59.03V58.115C157.504 58.13 157.414 58.13 157.354 58.13C156.964 58.13 156.499 57.98 156.499 56.99V48.455H155.479V57.215ZM162.92 59H163.895V58.25C163.895 57.89 163.85 57.635 163.85 57.635H163.88C164.36 58.58 165.32 59.18 166.385 59.18C168.38 59.18 169.79 57.62 169.79 55.22C169.79 52.895 168.545 51.275 166.505 51.275C165.35 51.275 164.375 51.875 163.925 52.805H163.895C163.895 52.805 163.94 52.535 163.94 52.175V48.455H162.92V59ZM163.91 55.25C163.91 53.105 165.095 52.205 166.355 52.205C167.765 52.205 168.755 53.39 168.755 55.235C168.755 57.155 167.645 58.265 166.31 58.265C164.705 58.265 163.91 56.765 163.91 55.25ZM171.243 55.235C171.243 57.56 172.953 59.18 175.203 59.18C176.193 59.18 177.288 58.775 177.993 58.13L177.528 57.35C176.913 57.905 176.058 58.25 175.233 58.25C173.673 58.25 172.353 57.185 172.308 55.265H178.098C178.113 55.1 178.128 54.92 178.128 54.755C178.128 52.88 177.063 51.275 174.978 51.275C172.938 51.275 171.243 52.76 171.243 55.235ZM172.353 54.455C172.593 52.94 173.688 52.115 174.948 52.115C176.073 52.115 177.033 52.88 177.093 54.455H172.353ZM183.314 55.22C183.314 57.56 184.589 59.18 186.599 59.18C187.904 59.18 188.804 58.46 189.224 57.605H189.254C189.254 57.605 189.209 57.815 189.209 58.145V59H190.199V48.455H189.179V52.19C189.179 52.505 189.224 52.76 189.224 52.76H189.194C188.729 51.845 187.769 51.275 186.719 51.275C184.724 51.275 183.314 52.835 183.314 55.22ZM184.364 55.22C184.364 53.3 185.474 52.205 186.809 52.205C188.414 52.205 189.194 53.69 189.194 55.205C189.194 57.365 188.024 58.265 186.764 58.265C185.354 58.265 184.364 57.08 184.364 55.22ZM192.627 59H193.647V55.805C193.647 54.305 194.352 52.4 196.047 52.4C196.197 52.4 196.377 52.415 196.422 52.43V51.425C196.302 51.395 196.152 51.38 196.017 51.38C194.847 51.38 193.977 52.31 193.602 53.45H193.572C193.572 53.45 193.632 53.18 193.632 52.85V51.455H192.627V59ZM197.255 56.975C197.255 58.43 198.53 59.18 199.805 59.18C201.02 59.18 201.965 58.4 202.355 57.485H202.385C202.385 57.485 202.34 57.74 202.34 58.115V59H203.315V54.17C203.315 52.28 202.31 51.275 200.495 51.275C199.49 51.275 198.425 51.62 197.825 52.13L198.29 52.91C198.905 52.46 199.67 52.19 200.435 52.19C201.5 52.19 202.295 52.685 202.295 54.14V54.35H201.845C200.405 54.35 197.255 54.5 197.255 56.975ZM198.29 56.885C198.29 55.205 200.69 55.16 201.86 55.16H202.295V55.505C202.295 56.825 201.44 58.325 199.985 58.325C198.86 58.325 198.29 57.59 198.29 56.885ZM207.332 59H208.457L210.287 53.63C210.407 53.255 210.527 52.805 210.527 52.805H210.557C210.557 52.805 210.662 53.255 210.782 53.63L212.627 59H213.752L216.287 51.455H215.207L213.392 57.065C213.257 57.455 213.167 57.875 213.167 57.875H213.137C213.137 57.875 213.017 57.44 212.897 57.065L211.052 51.485H210.032L208.187 57.065C208.067 57.44 207.947 57.875 207.947 57.875H207.917C207.917 57.875 207.812 57.44 207.692 57.065L205.877 51.455H204.782L207.332 59ZM217.94 59H218.96V55.31C218.96 53.555 220.22 52.235 221.825 52.235C223.28 52.235 223.475 53.285 223.475 54.47V59H224.495V54.2C224.495 52.34 223.835 51.275 221.96 51.275C220.19 51.275 219.2 52.55 218.915 53.24H218.885C218.885 53.24 218.945 52.97 218.945 52.64V51.455H217.94V59ZM230.086 55.19C230.086 57.47 231.856 59.18 234.061 59.18C236.266 59.18 238.051 57.47 238.051 55.19C238.051 52.955 236.266 51.275 234.061 51.275C231.856 51.275 230.086 52.955 230.086 55.19ZM231.136 55.19C231.136 53.48 232.441 52.19 234.061 52.19C235.681 52.19 237.001 53.48 237.001 55.19C237.001 56.96 235.681 58.25 234.061 58.25C232.441 58.25 231.136 56.96 231.136 55.19ZM239.956 59H240.976V55.31C240.976 53.555 242.236 52.235 243.841 52.235C245.296 52.235 245.491 53.285 245.491 54.47V59H246.511V54.2C246.511 52.34 245.851 51.275 243.976 51.275C242.206 51.275 241.216 52.55 240.931 53.24H240.901C240.901 53.24 240.961 52.97 240.961 52.64V51.455H239.956V59ZM252.612 57.215C252.612 58.865 253.737 59.06 254.352 59.06C254.517 59.06 254.637 59.045 254.727 59.03V58.115C254.637 58.13 254.547 58.13 254.487 58.13C254.097 58.13 253.632 57.98 253.632 56.99V48.455H252.612V57.215ZM255.794 55.235C255.794 57.56 257.504 59.18 259.754 59.18C260.744 59.18 261.839 58.775 262.544 58.13L262.079 57.35C261.464 57.905 260.609 58.25 259.784 58.25C258.224 58.25 256.904 57.185 256.859 55.265H262.649C262.664 55.1 262.679 54.92 262.679 54.755C262.679 52.88 261.614 51.275 259.529 51.275C257.489 51.275 255.794 52.76 255.794 55.235ZM256.904 54.455C257.144 52.94 258.239 52.115 259.499 52.115C260.624 52.115 261.584 52.88 261.644 54.455H256.904ZM263.935 56.975C263.935 58.43 265.21 59.18 266.485 59.18C267.7 59.18 268.645 58.4 269.035 57.485H269.065C269.065 57.485 269.02 57.74 269.02 58.115V59H269.995V54.17C269.995 52.28 268.99 51.275 267.175 51.275C266.17 51.275 265.105 51.62 264.505 52.13L264.97 52.91C265.585 52.46 266.35 52.19 267.115 52.19C268.18 52.19 268.975 52.685 268.975 54.14V54.35H268.525C267.085 54.35 263.935 54.5 263.935 56.975ZM264.97 56.885C264.97 55.205 267.37 55.16 268.54 55.16H268.975V55.505C268.975 56.825 268.12 58.325 266.665 58.325C265.54 58.325 264.97 57.59 264.97 56.885ZM271.684 58.085C272.404 58.835 273.484 59.18 274.489 59.18C275.974 59.18 277.039 58.295 277.039 57.05C277.039 54.56 273.004 55.07 273.004 53.345C273.004 52.52 273.724 52.175 274.519 52.175C275.194 52.175 275.974 52.43 276.409 52.865L276.889 52.1C276.274 51.515 275.389 51.275 274.564 51.275C273.184 51.275 271.999 51.995 271.999 53.375C271.999 55.85 276.019 55.385 276.019 57.065C276.019 57.86 275.344 58.28 274.504 58.28C273.679 58.28 272.794 57.95 272.224 57.365L271.684 58.085ZM278.411 55.235C278.411 57.56 280.121 59.18 282.371 59.18C283.361 59.18 284.456 58.775 285.161 58.13L284.696 57.35C284.081 57.905 283.226 58.25 282.401 58.25C280.841 58.25 279.521 57.185 279.476 55.265H285.266C285.281 55.1 285.296 54.92 285.296 54.755C285.296 52.88 284.231 51.275 282.146 51.275C280.106 51.275 278.411 52.76 278.411 55.235ZM279.521 54.455C279.761 52.94 280.856 52.115 282.116 52.115C283.241 52.115 284.201 52.88 284.261 54.455H279.521ZM287.107 52.655H288.277V51.455H287.107V52.655ZM287.107 59H288.277V57.8H287.107V59Z" fill="white"/>
</g>
<defs>
<filter id="filter0_d" x="0.159424" y="0.454956" width="292.118" height="69.695" filterUnits="userSpaceOnUse" color-interpolation-filters="sRGB">
<feFlood flood-opacity="0" result="BackgroundImageFix"/>
<feColorMatrix in="SourceAlpha" type="matrix" values="0 0 0 0 0 0 0 0 0 0 0 0 0 0 0 0 0 0 127 0"/>
<feOffset dy="4"/>
<feGaussianBlur stdDeviation="2"/>
<feColorMatrix type="matrix" values="0 0 0 0 0 0 0 0 0 0 0 0 0 0 0 0 0 0 0.25 0"/>
<feBlend mode="normal" in2="BackgroundImageFix" result="effect1_dropShadow"/>
<feBlend mode="normal" in="SourceGraphic" in2="effect1_dropShadow" result="shape"/>
</filter>
</defs>
</svg>
