<svg width="62" height="62" viewBox="0 0 62 62" fill="none" xmlns="http://www.w3.org/2000/svg">
<path d="M0 39.9774H56.3891V47.6923H0V39.9774Z" fill="white"/>
<path d="M39.5566 10.3801V15.991H46.2897L43.5177 13.1839C43.1341 12.7932 43.1341 12.168 43.5177 11.7773C43.8985 11.3916 44.5204 11.3877 44.9061 11.7686L49.2184 16.0764C49.4019 16.26 49.5055 16.5088 49.5055 16.769C49.5055 17.0287 49.4019 17.2781 49.2184 17.4616L49.1515 17.5274C49.1115 17.5761 49.0666 17.6211 49.0178 17.6611L44.9061 21.7728C44.5226 22.1558 43.9012 22.1558 43.5177 21.7728C43.3336 21.5952 43.23 21.3509 43.23 21.0955C43.23 20.8407 43.3336 20.5964 43.5177 20.4188L46.0168 17.9548H39.5566V25.2489H48.3937C48.9362 25.2489 49.3756 25.6883 49.3756 26.2308C49.3756 26.7732 48.9362 27.2127 48.3937 27.2127H39.5566V30.8597H62.0001V10.3801H39.5566Z" fill="white"/>
<path d="M56.3891 32.8235H38.6404C38.0744 32.8027 37.6185 32.3512 37.5928 31.7857V27.2127H27.1376L29.5513 29.5913C29.8307 29.8685 29.9145 30.2877 29.7617 30.651C29.6088 31.0137 29.2504 31.2477 28.8565 31.2411C28.5957 31.24 28.3458 31.1348 28.1622 30.949L24.3371 27.1217C23.8867 27.022 23.5656 26.6231 23.5656 26.1617C23.5656 26.1272 23.5673 26.0927 23.5711 26.0587C23.5656 26.0187 23.5629 25.9787 23.5629 25.9387C23.5629 25.6784 23.6664 25.4286 23.8505 25.2445L28.1622 20.9322C28.5458 20.5487 29.1677 20.5487 29.5513 20.9322C29.9348 21.3295 29.9348 21.9591 29.5513 22.3563L26.6938 25.2489H37.5928V17.9547H24.5475C24.0051 17.9547 23.5656 17.5153 23.5656 16.9728C23.5656 16.4304 24.0051 15.9909 24.5475 15.9909H37.5928V9.3138C37.5928 8.77189 38.098 8.41628 38.6404 8.41628H56.3891V3.08597H0V38.0136H56.3891V32.8235Z" fill="white"/>
<path d="M43.7893 57.7919C43.7893 57.2494 43.3499 56.81 42.8074 56.81H37.1379L35.1676 49.6561H21.1985L19.2276 56.81H13.5581C13.0156 56.81 12.5762 57.2494 12.5762 57.7919C12.5762 58.3343 13.0156 58.7738 13.5581 58.7738H42.8074C43.3499 58.7738 43.7893 58.3343 43.7893 57.7919Z" fill="white"/>
</svg>
