<svg width="248" height="44" viewBox="0 0 248 44" fill="none" xmlns="http://www.w3.org/2000/svg">
<path d="M3.94547 15H5.60547L8.32547 5.1C8.58547 4.2 8.82547 3 8.82547 3H8.88547C8.88547 3 9.12547 4.2 9.38547 5.1L12.1055 15H13.7455L17.5055 0.94H16.0655L13.2055 11.86C13.0255 12.58 12.9055 13.36 12.9055 13.36H12.8655C12.8655 13.36 12.7255 12.6 12.5255 11.86L9.52547 0.94H8.20547L5.20547 11.86C4.98547 12.6 4.84547 13.36 4.84547 13.36H4.80547C4.80547 13.36 4.66547 12.58 4.48547 11.86L1.76547 0.94H0.305469L3.94547 15ZM19.7606 15H21.1206V10.14C21.1206 7.72 22.8206 5.98 24.9406 5.98C26.8806 5.98 27.1406 7.38 27.1406 8.96V15H28.5006V8.6C28.5006 6.12 27.6206 4.7 25.1206 4.7C22.8406 4.7 21.4806 6.34 21.1006 7.28H21.0606C21.0606 7.28 21.1206 6.92 21.1206 6.46V0.94H19.7606V15ZM30.9556 9.92C30.9556 12.96 33.3156 15.24 36.2556 15.24C39.1956 15.24 41.5756 12.96 41.5756 9.92C41.5756 6.94 39.1956 4.7 36.2556 4.7C33.3156 4.7 30.9556 6.94 30.9556 9.92ZM32.3556 9.92C32.3556 7.64 34.0956 5.92 36.2556 5.92C38.4156 5.92 40.1756 7.64 40.1756 9.92C40.1756 12.28 38.4156 14 36.2556 14C34.0956 14 32.3556 12.28 32.3556 9.92ZM49.1161 15H50.4161V14C50.4161 13.52 50.3561 13.18 50.3561 13.18H50.3961C51.0361 14.44 52.3161 15.24 53.7361 15.24C56.3961 15.24 58.2761 13.16 58.2761 9.96C58.2761 6.86 56.6161 4.7 53.8961 4.7C52.3561 4.7 51.0561 5.5 50.4561 6.74H50.4161C50.4161 6.74 50.4761 6.38 50.4761 5.9V0.94H49.1161V15ZM50.4361 10C50.4361 7.14 52.0161 5.94 53.6961 5.94C55.5761 5.94 56.8961 7.52 56.8961 9.98C56.8961 12.54 55.4161 14.02 53.6361 14.02C51.4961 14.02 50.4361 12.02 50.4361 10ZM60.2134 9.92C60.2134 12.96 62.5734 15.24 65.5134 15.24C68.4534 15.24 70.8334 12.96 70.8334 9.92C70.8334 6.94 68.4534 4.7 65.5134 4.7C62.5734 4.7 60.2134 6.94 60.2134 9.92ZM61.6134 9.92C61.6134 7.64 63.3534 5.92 65.5134 5.92C67.6734 5.92 69.4334 7.64 69.4334 9.92C69.4334 12.28 67.6734 14 65.5134 14C63.3534 14 61.6134 12.28 61.6134 9.92ZM73.2539 11.34C73.2539 13.96 74.2539 15.24 76.6339 15.24C78.8539 15.24 80.2139 13.6 80.5939 12.62H80.6339C80.6339 12.62 80.5539 12.98 80.5539 13.42V15H81.8939V4.94H80.5339V9.76C80.5339 11.94 79.1139 13.96 76.8139 13.96C74.8739 13.96 74.6339 12.56 74.6339 10.98V4.94H73.2539V11.34ZM85.9117 17.28L85.4117 18.38C86.3917 18.9 87.5517 19.2 88.6917 19.2C91.1717 19.2 93.5317 17.96 93.5317 14.76V4.94H92.2117V6.12C92.2117 6.34 92.2517 6.46 92.2517 6.46H92.2117C91.5917 5.22 90.2117 4.7 88.8717 4.7C86.1717 4.7 84.5117 6.76 84.5117 9.78C84.5117 12.8 86.2917 14.94 88.9917 14.94C90.5517 14.94 91.5917 14.22 92.1917 13.08H92.2317C92.2317 13.08 92.1517 13.44 92.1517 13.82V14.82C92.1517 17.06 90.6117 17.96 88.6517 17.96C87.7117 17.96 86.6917 17.68 85.9117 17.28ZM85.8917 9.76C85.8917 7.36 87.0517 5.92 89.0117 5.92C90.7917 5.92 92.1917 6.84 92.1917 9.78C92.1917 12.74 90.7917 13.72 89.1917 13.72C87.2117 13.72 85.8917 12.18 85.8917 9.76ZM96.7723 15H98.1323V10.14C98.1323 7.72 99.8323 5.98 101.952 5.98C103.892 5.98 104.152 7.38 104.152 8.96V15H105.512V8.6C105.512 6.12 104.632 4.7 102.132 4.7C99.8523 4.7 98.4923 6.34 98.1123 7.28H98.0723C98.0723 7.28 98.1323 6.92 98.1323 6.46V0.94H96.7723V15ZM109.007 11.34C109.007 14.7 111.367 15.08 112.527 15.08C112.787 15.08 112.987 15.06 113.107 15.04V13.82C112.927 13.86 112.787 13.86 112.647 13.86C111.867 13.86 110.367 13.54 110.367 11.2V6.16H112.907V5.02H110.367V2.16H109.027V5.02H107.687V6.16H109.007V11.34ZM120.121 11.34C120.121 14.7 122.481 15.08 123.641 15.08C123.901 15.08 124.101 15.06 124.221 15.04V13.82C124.041 13.86 123.901 13.86 123.761 13.86C122.981 13.86 121.481 13.54 121.481 11.2V6.16H124.021V5.02H121.481V2.16H120.141V5.02H118.801V6.16H120.121V11.34ZM126.265 15H127.625V10.14C127.625 7.72 129.325 5.98 131.445 5.98C133.385 5.98 133.645 7.38 133.645 8.96V15H135.005V8.6C135.005 6.12 134.125 4.7 131.625 4.7C129.345 4.7 127.985 6.34 127.605 7.28H127.565C127.565 7.28 127.625 6.92 127.625 6.46V0.94H126.265V15ZM137.46 9.98C137.46 13.08 139.74 15.24 142.74 15.24C144.06 15.24 145.52 14.7 146.46 13.84L145.84 12.8C145.02 13.54 143.88 14 142.78 14C140.7 14 138.94 12.58 138.88 10.02H146.6C146.62 9.8 146.64 9.56 146.64 9.34C146.64 6.84 145.22 4.7 142.44 4.7C139.72 4.7 137.46 6.68 137.46 9.98ZM138.94 8.94C139.26 6.92 140.72 5.82 142.4 5.82C143.9 5.82 145.18 6.84 145.26 8.94H138.94ZM153.714 11.2C153.714 14.66 155.674 15.1 157.514 15.1C157.954 15.1 158.314 15.06 158.554 15.04V12.04C158.394 12.06 158.234 12.06 158.134 12.06C157.354 12.06 157.174 11.72 157.174 10.74V0.699999H153.714V11.2ZM159.479 12.1C159.479 13.88 160.859 15.24 162.839 15.24C164.019 15.24 165.219 14.7 165.899 13.74H165.939C165.939 13.74 165.899 14.04 165.899 14.38V15H169.059V8.66C169.059 6.04 167.299 4.46 164.459 4.46C162.779 4.46 160.979 5.12 160.099 5.8L161.299 8.24C162.119 7.7 163.139 7.26 164.139 7.26C164.899 7.26 165.599 7.54 165.599 8.4V8.58H165.299C162.759 8.58 159.479 9.34 159.479 12.1ZM162.899 11.78C162.899 10.84 164.259 10.56 165.319 10.56H165.639V10.84C165.639 11.68 164.879 12.66 163.879 12.66C163.239 12.66 162.899 12.26 162.899 11.78ZM170.474 13.72C171.614 14.74 173.194 15.24 174.674 15.24C177.314 15.24 178.914 13.78 178.914 11.86C178.914 8.52 174.094 8.78 174.094 7.7C174.094 7.42 174.314 7.2 175.054 7.2C175.934 7.2 177.054 7.56 177.654 8.04L178.834 5.64C177.794 4.8 176.474 4.46 175.154 4.46C172.774 4.46 170.874 5.6 170.874 7.72C170.874 11.1 175.694 10.86 175.694 11.96C175.694 12.28 175.454 12.5 174.754 12.5C173.774 12.5 172.714 12.1 171.954 11.46L170.474 13.72ZM181.268 11.2C181.268 14.66 184.448 15.1 186.088 15.1C186.488 15.1 186.768 15.06 187.028 15.04V12.04C186.808 12.06 186.688 12.06 186.568 12.06C185.908 12.06 184.728 11.9 184.728 10.74V7.58H186.888V4.88H184.728V1.92H181.368V4.88H179.948V7.58H181.268V11.2ZM194.119 11.2C194.119 14.66 197.299 15.1 198.939 15.1C199.339 15.1 199.619 15.06 199.879 15.04V12.04C199.659 12.06 199.539 12.06 199.419 12.06C198.759 12.06 197.579 11.9 197.579 10.74V7.58H199.739V4.88H197.579V1.92H194.219V4.88H192.799V7.58H194.119V11.2ZM201.782 3.4H205.162V0.699999H201.782V3.4ZM201.742 15H205.202V4.7H201.742V15ZM206.943 9.84C206.943 12.68 209.003 15.24 212.683 15.24C214.403 15.24 216.083 14.58 217.103 13.54L215.843 11.12C215.103 11.76 214.023 12.36 213.023 12.36C211.283 12.36 210.443 11.02 210.443 9.8C210.443 8.58 211.263 7.34 212.903 7.34C213.803 7.34 214.723 7.76 215.323 8.34L216.783 6.02C215.763 4.92 214.123 4.46 212.683 4.46C208.983 4.46 206.943 7.08 206.943 9.84ZM218.558 15H222.018V11H223.098L225.278 15H229.218L225.778 9.42V9.38L228.798 4.7H225.038L222.998 8.1H222.018V0.699999H218.558V15ZM229.404 9.84C229.404 12.58 231.384 15.24 235.064 15.24C236.644 15.24 238.344 14.7 239.464 13.74L238.184 11.32C237.344 11.88 236.364 12.36 235.344 12.36C234.244 12.36 233.204 11.78 232.944 10.52H239.444C239.484 10.16 239.524 9.8 239.524 9.44C239.524 6.58 237.804 4.46 234.764 4.46C231.444 4.46 229.404 6.82 229.404 9.84ZM233.024 8.54C233.204 7.72 233.684 7 234.684 7C235.564 7 236.104 7.7 236.104 8.54H233.024ZM241.932 11.2C241.932 14.66 245.112 15.1 246.752 15.1C247.152 15.1 247.432 15.06 247.692 15.04V12.04C247.472 12.06 247.352 12.06 247.232 12.06C246.572 12.06 245.392 11.9 245.392 10.74V7.58H247.552V4.88H245.392V1.92H242.032V4.88H240.612V7.58H241.932V11.2ZM61.8266 43H65.7266L66.8866 38.24C67.0266 37.68 67.0866 37.14 67.0866 37.14H67.1266C67.1266 37.14 67.1866 37.68 67.3266 38.24L68.4866 43H72.3466L75.2266 32.7H71.6266L70.3466 38.78C70.2266 39.34 70.2066 39.86 70.2066 39.86H70.1666C70.1666 39.86 70.1466 39.34 70.0066 38.78L68.5866 32.7H65.6266L64.2066 38.78C64.0666 39.34 64.0266 39.86 64.0266 39.86H63.9866C63.9866 39.86 63.9866 39.34 63.8666 38.78L62.5866 32.7H58.9466L61.8266 43ZM75.8495 37.88C75.8495 41.1 78.4495 43.24 81.6895 43.24C84.9295 43.24 87.5295 41.1 87.5295 37.88C87.5295 34.64 84.9295 32.46 81.6695 32.46C78.4495 32.46 75.8495 34.64 75.8495 37.88ZM79.3495 37.88C79.3495 36.32 80.4295 35.34 81.6895 35.34C82.9495 35.34 84.0295 36.32 84.0295 37.88C84.0295 39.42 82.9495 40.36 81.6895 40.36C80.4295 40.36 79.3495 39.42 79.3495 37.88ZM89.2616 43H92.7216V38.34C92.7216 36.88 93.4216 35.6 94.9616 35.6C95.7216 35.6 96.1016 36 96.1016 36.96V43H99.5616V36.32C99.5616 33.42 97.9416 32.46 95.8616 32.46C94.0416 32.46 93.0616 33.44 92.5816 34.24H92.5416C92.5416 34.24 92.5816 33.94 92.5816 33.6V32.7H89.2616V43ZM107.21 39.34C107.21 42.7 109.57 43.08 110.73 43.08C110.99 43.08 111.19 43.06 111.31 43.04V41.82C111.13 41.86 110.99 41.86 110.85 41.86C110.07 41.86 108.57 41.54 108.57 39.2V34.16H111.11V33.02H108.57V30.16H107.23V33.02H105.89V34.16H107.21V39.34ZM113.354 43H114.714V38.14C114.714 35.72 116.414 33.98 118.534 33.98C120.474 33.98 120.734 35.38 120.734 36.96V43H122.094V36.6C122.094 34.12 121.214 32.7 118.714 32.7C116.434 32.7 115.074 34.34 114.694 35.28H114.654C114.654 35.28 114.714 34.92 114.714 34.46V28.94H113.354V43ZM124.549 37.98C124.549 41.08 126.829 43.24 129.829 43.24C131.149 43.24 132.609 42.7 133.549 41.84L132.929 40.8C132.109 41.54 130.969 42 129.869 42C127.789 42 126.029 40.58 125.969 38.02H133.689C133.709 37.8 133.729 37.56 133.729 37.34C133.729 34.84 132.309 32.7 129.529 32.7C126.809 32.7 124.549 34.68 124.549 37.98ZM126.029 36.94C126.349 34.92 127.809 33.82 129.489 33.82C130.989 33.82 132.269 34.84 132.349 36.94H126.029ZM141.284 43H142.644V38.74C142.644 36.74 143.584 34.2 145.844 34.2C146.044 34.2 146.284 34.22 146.344 34.24V32.9C146.184 32.86 145.984 32.84 145.804 32.84C144.244 32.84 143.084 34.08 142.584 35.6H142.544C142.544 35.6 142.624 35.24 142.624 34.8V32.94H141.284V43ZM147.323 37.92C147.323 40.96 149.683 43.24 152.623 43.24C155.563 43.24 157.943 40.96 157.943 37.92C157.943 34.94 155.563 32.7 152.623 32.7C149.683 32.7 147.323 34.94 147.323 37.92ZM148.723 37.92C148.723 35.64 150.463 33.92 152.623 33.92C154.783 33.92 156.543 35.64 156.543 37.92C156.543 40.28 154.783 42 152.623 42C150.463 42 148.723 40.28 148.723 37.92ZM160.363 39.34C160.363 41.96 161.363 43.24 163.743 43.24C165.963 43.24 167.323 41.6 167.703 40.62H167.743C167.743 40.62 167.663 40.98 167.663 41.42V43H169.003V32.94H167.643V37.76C167.643 39.94 166.223 41.96 163.923 41.96C161.983 41.96 161.743 40.56 161.743 38.98V32.94H160.363V39.34ZM172.241 43H173.601V38.08C173.601 35.74 175.281 33.98 177.421 33.98C179.361 33.98 179.621 35.38 179.621 36.96V43H180.981V36.6C180.981 34.12 180.101 32.7 177.601 32.7C175.241 32.7 173.921 34.4 173.541 35.32H173.501C173.501 35.32 173.581 34.96 173.581 34.52V32.94H172.241V43ZM183.476 37.96C183.476 41.08 185.176 43.24 187.856 43.24C189.596 43.24 190.796 42.28 191.356 41.14H191.396C191.396 41.14 191.336 41.42 191.336 41.86V43H192.656V28.94H191.296V33.92C191.296 34.34 191.356 34.68 191.356 34.68H191.316C190.696 33.46 189.416 32.7 188.016 32.7C185.356 32.7 183.476 34.78 183.476 37.96ZM184.876 37.96C184.876 35.4 186.356 33.94 188.136 33.94C190.276 33.94 191.316 35.92 191.316 37.94C191.316 40.82 189.756 42.02 188.076 42.02C186.196 42.02 184.876 40.44 184.876 37.96Z" fill="white"/>
</svg>
