<svg width="133" height="80" viewBox="0 0 133 80" fill="none" xmlns="http://www.w3.org/2000/svg">
<path d="M1.14 21V19.76H4.3V9.44L4.32 8.66H4.28C4.18667 8.84667 3.95333 9.12667 3.58 9.5L2.08 10.98L1.2 10.1L4.38 6.94H5.66V19.76H8.76V21H1.14ZM10.6736 21C10.6203 20.5733 10.5936 20.2733 10.5936 20.1C10.5936 19.4333 10.7269 18.8133 10.9936 18.24C11.2603 17.6533 11.6003 17.1533 12.0136 16.74C12.4403 16.3133 12.9136 15.9133 13.4336 15.54C13.9536 15.1533 14.4669 14.7867 14.9736 14.44C15.4936 14.0933 15.9603 13.7467 16.3736 13.4C16.8003 13.04 17.1469 12.6333 17.4136 12.18C17.6803 11.7133 17.8136 11.2267 17.8136 10.72C17.8136 9.93333 17.5403 9.28667 16.9936 8.78C16.4603 8.27333 15.7603 8.02 14.8936 8.02C14.2536 8.02 13.6536 8.2 13.0936 8.56C12.5469 8.90667 12.0936 9.36667 11.7336 9.94L10.7136 9.24C11.1269 8.49333 11.7069 7.88667 12.4536 7.42C13.2136 6.94 14.0536 6.7 14.9736 6.7C16.2669 6.7 17.3003 7.07333 18.0736 7.82C18.8603 8.56667 19.2536 9.50667 19.2536 10.64C19.2536 11.28 19.1203 11.88 18.8536 12.44C18.6003 12.9867 18.2603 13.4667 17.8336 13.88C17.4203 14.28 16.9603 14.6667 16.4536 15.04C15.9469 15.4 15.4403 15.7533 14.9336 16.1C14.4269 16.4333 13.9603 16.78 13.5336 17.14C13.1203 17.4867 12.7803 17.8867 12.5136 18.34C12.2469 18.78 12.1136 19.2533 12.1136 19.76H19.4736V21H10.6736ZM31.2827 20.18L35.6027 15.32L31.2827 10.46L32.1227 9.64L36.4027 14.44L40.6627 9.64L41.5227 10.46L37.1827 15.32L41.5227 20.18L40.6627 21L36.4027 16.2L32.1227 21L31.2827 20.18ZM53.1698 19.26L54.0698 18.28C54.8165 19.36 55.8698 19.9 57.2298 19.9C58.2165 19.9 59.0432 19.5933 59.7098 18.98C60.3898 18.3533 60.7298 17.5667 60.7298 16.62C60.7298 15.66 60.3898 14.8667 59.7098 14.24C59.0298 13.6133 58.1832 13.3 57.1698 13.3C56.2232 13.3 55.3698 13.56 54.6098 14.08L53.7298 13.76L54.4898 6.94H61.2898V8.18H55.7098L55.2898 11.78L55.1698 12.58H55.2098C55.7832 12.22 56.4898 12.04 57.3298 12.04C58.7165 12.04 59.8698 12.4867 60.7898 13.38C61.7098 14.26 62.1698 15.34 62.1698 16.62C62.1698 17.9133 61.6965 19.0067 60.7498 19.9C59.8165 20.7933 58.6632 21.24 57.2898 21.24C56.4765 21.24 55.7032 21.0667 54.9698 20.72C54.2365 20.3733 53.6365 19.8867 53.1698 19.26ZM69.3436 21.24C67.6369 21.24 66.4036 20.58 65.6436 19.26C64.8836 17.94 64.5036 16.1733 64.5036 13.96C64.5036 12.9067 64.5836 11.96 64.7436 11.12C64.9169 10.2667 65.1836 9.5 65.5436 8.82C65.9169 8.14 66.4236 7.62 67.0636 7.26C67.7036 6.88667 68.4636 6.7 69.3436 6.7C70.5169 6.7 71.4769 7.03333 72.2236 7.7C72.9703 8.36667 73.4836 9.22 73.7636 10.26C74.0569 11.3 74.2036 12.5333 74.2036 13.96C74.2036 15.0267 74.1169 15.9867 73.9436 16.84C73.7836 17.68 73.5169 18.44 73.1436 19.12C72.7836 19.7867 72.2836 20.3067 71.6436 20.68C71.0036 21.0533 70.2369 21.24 69.3436 21.24ZM69.3436 19.94C70.1969 19.94 70.8836 19.6667 71.4036 19.12C71.9369 18.5733 72.2969 17.88 72.4836 17.04C72.6703 16.2 72.7636 15.1733 72.7636 13.96C72.7636 13.08 72.7103 12.3 72.6036 11.62C72.4969 10.9267 72.3169 10.3067 72.0636 9.76C71.8103 9.2 71.4569 8.77333 71.0036 8.48C70.5503 8.17333 69.9969 8.02 69.3436 8.02C67.0769 8.02 65.9436 10 65.9436 13.96C65.9436 15.8267 66.1969 17.2933 66.7036 18.36C67.2236 19.4133 68.1036 19.94 69.3436 19.94ZM81.6873 21.24C79.9807 21.24 78.7473 20.58 77.9873 19.26C77.2273 17.94 76.8473 16.1733 76.8473 13.96C76.8473 12.9067 76.9273 11.96 77.0873 11.12C77.2607 10.2667 77.5273 9.5 77.8873 8.82C78.2607 8.14 78.7673 7.62 79.4073 7.26C80.0473 6.88667 80.8073 6.7 81.6873 6.7C82.8607 6.7 83.8207 7.03333 84.5673 7.7C85.314 8.36667 85.8273 9.22 86.1073 10.26C86.4007 11.3 86.5473 12.5333 86.5473 13.96C86.5473 15.0267 86.4607 15.9867 86.2873 16.84C86.1273 17.68 85.8607 18.44 85.4873 19.12C85.1273 19.7867 84.6273 20.3067 83.9873 20.68C83.3473 21.0533 82.5807 21.24 81.6873 21.24ZM81.6873 19.94C82.5407 19.94 83.2273 19.6667 83.7473 19.12C84.2807 18.5733 84.6407 17.88 84.8273 17.04C85.014 16.2 85.1073 15.1733 85.1073 13.96C85.1073 13.08 85.054 12.3 84.9473 11.62C84.8407 10.9267 84.6607 10.3067 84.4073 9.76C84.154 9.2 83.8007 8.77333 83.3473 8.48C82.894 8.17333 82.3407 8.02 81.6873 8.02C79.4207 8.02 78.2873 10 78.2873 13.96C78.2873 15.8267 78.5407 17.2933 79.0473 18.36C79.5673 19.4133 80.4473 19.94 81.6873 19.94ZM1.24 42.66C1.24 41.74 1.36 40.8267 1.6 39.92C1.84 39.0133 2.2 38.1667 2.68 37.38C3.16 36.58 3.80667 35.9333 4.62 35.44C5.43333 34.9467 6.36 34.7 7.4 34.7C8.36 34.7 9.22667 34.8933 10 35.28L9.48 36.5C8.92 36.18 8.22667 36.02 7.4 36.02C6.05333 36.02 4.97333 36.58 4.16 37.7C3.36 38.8067 2.89333 40.12 2.76 41.64H2.8C3.13333 41.1467 3.62667 40.7533 4.28 40.46C4.93333 40.1533 5.62667 40 6.36 40C7.64 40 8.68667 40.4267 9.5 41.28C10.3133 42.1333 10.72 43.24 10.72 44.6C10.72 45.9867 10.3 47.1067 9.46 47.96C8.62 48.8133 7.57333 49.24 6.32 49.24C4.81333 49.24 3.58667 48.62 2.64 47.38C1.70667 46.14 1.24 44.5667 1.24 42.66ZM6.4 47.94C7.26667 47.94 7.96667 47.6267 8.5 47C9.04667 46.36 9.32 45.5467 9.32 44.56C9.32 43.5467 9.02667 42.74 8.44 42.14C7.86667 41.54 7.1 41.24 6.14 41.24C5.24667 41.24 4.45333 41.4867 3.76 41.98C3.08 42.46 2.74 43.0667 2.74 43.8C2.74 44.3333 2.86667 44.9067 3.12 45.52C3.38667 46.1333 3.81333 46.6933 4.4 47.2C4.98667 47.6933 5.65333 47.94 6.4 47.94ZM22.3373 48.18L26.6573 43.32L22.3373 38.46L23.1773 37.64L27.4573 42.44L31.7173 37.64L32.5773 38.46L28.2373 43.32L32.5773 48.18L31.7173 49L27.4573 44.2L23.1773 49L22.3373 48.18ZM44.2845 49V47.76H47.4445V37.44L47.4645 36.66H47.4245C47.3312 36.8467 47.0979 37.1267 46.7245 37.5L45.2245 38.98L44.3445 38.1L47.5245 34.94H48.8045V47.76H51.9045V49H44.2845ZM53.4581 50.94L54.5981 47.36H56.1581L54.6381 50.94H53.4581ZM63.9725 49.24C62.2658 49.24 61.0325 48.58 60.2725 47.26C59.5125 45.94 59.1325 44.1733 59.1325 41.96C59.1325 40.9067 59.2125 39.96 59.3725 39.12C59.5458 38.2667 59.8125 37.5 60.1725 36.82C60.5458 36.14 61.0525 35.62 61.6925 35.26C62.3325 34.8867 63.0925 34.7 63.9725 34.7C65.1458 34.7 66.1058 35.0333 66.8525 35.7C67.5992 36.3667 68.1125 37.22 68.3925 38.26C68.6858 39.3 68.8325 40.5333 68.8325 41.96C68.8325 43.0267 68.7458 43.9867 68.5725 44.84C68.4125 45.68 68.1458 46.44 67.7725 47.12C67.4125 47.7867 66.9125 48.3067 66.2725 48.68C65.6325 49.0533 64.8658 49.24 63.9725 49.24ZM63.9725 47.94C64.8258 47.94 65.5125 47.6667 66.0325 47.12C66.5658 46.5733 66.9258 45.88 67.1125 45.04C67.2992 44.2 67.3925 43.1733 67.3925 41.96C67.3925 41.08 67.3392 40.3 67.2325 39.62C67.1258 38.9267 66.9458 38.3067 66.6925 37.76C66.4392 37.2 66.0858 36.7733 65.6325 36.48C65.1792 36.1733 64.6258 36.02 63.9725 36.02C61.7058 36.02 60.5725 38 60.5725 41.96C60.5725 43.8267 60.8258 45.2933 61.3325 46.36C61.8525 47.4133 62.7325 47.94 63.9725 47.94ZM76.3163 49.24C74.6096 49.24 73.3763 48.58 72.6163 47.26C71.8563 45.94 71.4762 44.1733 71.4762 41.96C71.4762 40.9067 71.5563 39.96 71.7163 39.12C71.8896 38.2667 72.1563 37.5 72.5163 36.82C72.8896 36.14 73.3963 35.62 74.0363 35.26C74.6763 34.8867 75.4363 34.7 76.3163 34.7C77.4896 34.7 78.4496 35.0333 79.1963 35.7C79.9429 36.3667 80.4563 37.22 80.7363 38.26C81.0296 39.3 81.1762 40.5333 81.1762 41.96C81.1762 43.0267 81.0896 43.9867 80.9163 44.84C80.7563 45.68 80.4896 46.44 80.1163 47.12C79.7563 47.7867 79.2563 48.3067 78.6163 48.68C77.9763 49.0533 77.2096 49.24 76.3163 49.24ZM76.3163 47.94C77.1696 47.94 77.8563 47.6667 78.3763 47.12C78.9096 46.5733 79.2696 45.88 79.4563 45.04C79.6429 44.2 79.7363 43.1733 79.7363 41.96C79.7363 41.08 79.6829 40.3 79.5763 39.62C79.4696 38.9267 79.2896 38.3067 79.0363 37.76C78.7829 37.2 78.4296 36.7733 77.9763 36.48C77.5229 36.1733 76.9696 36.02 76.3163 36.02C74.0496 36.02 72.9163 38 72.9163 41.96C72.9163 43.8267 73.1696 45.2933 73.6763 46.36C74.1963 47.4133 75.0763 47.94 76.3163 47.94ZM88.66 49.24C86.9533 49.24 85.72 48.58 84.96 47.26C84.2 45.94 83.82 44.1733 83.82 41.96C83.82 40.9067 83.9 39.96 84.06 39.12C84.2333 38.2667 84.5 37.5 84.86 36.82C85.2333 36.14 85.74 35.62 86.38 35.26C87.02 34.8867 87.78 34.7 88.66 34.7C89.8333 34.7 90.7933 35.0333 91.54 35.7C92.2867 36.3667 92.8 37.22 93.08 38.26C93.3733 39.3 93.52 40.5333 93.52 41.96C93.52 43.0267 93.4333 43.9867 93.26 44.84C93.1 45.68 92.8333 46.44 92.46 47.12C92.1 47.7867 91.6 48.3067 90.96 48.68C90.32 49.0533 89.5533 49.24 88.66 49.24ZM88.66 47.94C89.5133 47.94 90.2 47.6667 90.72 47.12C91.2533 46.5733 91.6133 45.88 91.8 45.04C91.9867 44.2 92.08 43.1733 92.08 41.96C92.08 41.08 92.0267 40.3 91.92 39.62C91.8133 38.9267 91.6333 38.3067 91.38 37.76C91.1267 37.2 90.7733 36.7733 90.32 36.48C89.8667 36.1733 89.3133 36.02 88.66 36.02C86.3933 36.02 85.26 38 85.26 41.96C85.26 43.8267 85.5133 45.2933 86.02 46.36C86.54 47.4133 87.42 47.94 88.66 47.94ZM0.76 73.1V72.2L7.66 62.94H9.16V71.9H11.16V73.1H9.16V77H7.78V73.1H0.76ZM2.42 71.9H7.78V66L7.86 64.66H7.82C7.59333 65.0467 7.36 65.4067 7.12 65.74L2.42 71.86V71.9ZM22.5717 76.18L26.8917 71.32L22.5717 66.46L23.4117 65.64L27.6917 70.44L31.9517 65.64L32.8117 66.46L28.4717 71.32L32.8117 76.18L31.9517 77L27.6917 72.2L23.4117 77L22.5717 76.18ZM44.6189 77C44.5656 76.5733 44.5389 76.2733 44.5389 76.1C44.5389 75.4333 44.6722 74.8133 44.9389 74.24C45.2056 73.6533 45.5456 73.1533 45.9589 72.74C46.3856 72.3133 46.8589 71.9133 47.3789 71.54C47.8989 71.1533 48.4122 70.7867 48.9189 70.44C49.4389 70.0933 49.9056 69.7467 50.3189 69.4C50.7456 69.04 51.0922 68.6333 51.3589 68.18C51.6256 67.7133 51.7589 67.2267 51.7589 66.72C51.7589 65.9333 51.4856 65.2867 50.9389 64.78C50.4056 64.2733 49.7056 64.02 48.8389 64.02C48.1989 64.02 47.5989 64.2 47.0389 64.56C46.4922 64.9067 46.0389 65.3667 45.6789 65.94L44.6589 65.24C45.0722 64.4933 45.6522 63.8867 46.3989 63.42C47.1589 62.94 47.9989 62.7 48.9189 62.7C50.2122 62.7 51.2456 63.0733 52.0189 63.82C52.8056 64.5667 53.1989 65.5067 53.1989 66.64C53.1989 67.28 53.0656 67.88 52.7989 68.44C52.5456 68.9867 52.2056 69.4667 51.7789 69.88C51.3656 70.28 50.9056 70.6667 50.3989 71.04C49.8922 71.4 49.3856 71.7533 48.8789 72.1C48.3722 72.4333 47.9056 72.78 47.4789 73.14C47.0656 73.4867 46.7256 73.8867 46.4589 74.34C46.1922 74.78 46.0589 75.2533 46.0589 75.76H53.4189V77H44.6189ZM55.548 78.94L56.688 75.36H58.248L56.728 78.94H55.548ZM66.0623 77.24C64.3557 77.24 63.1223 76.58 62.3623 75.26C61.6023 73.94 61.2223 72.1733 61.2223 69.96C61.2223 68.9067 61.3023 67.96 61.4623 67.12C61.6357 66.2667 61.9023 65.5 62.2623 64.82C62.6357 64.14 63.1423 63.62 63.7823 63.26C64.4223 62.8867 65.1823 62.7 66.0623 62.7C67.2357 62.7 68.1957 63.0333 68.9423 63.7C69.689 64.3667 70.2023 65.22 70.4823 66.26C70.7757 67.3 70.9223 68.5333 70.9223 69.96C70.9223 71.0267 70.8357 71.9867 70.6623 72.84C70.5023 73.68 70.2357 74.44 69.8623 75.12C69.5023 75.7867 69.0023 76.3067 68.3623 76.68C67.7223 77.0533 66.9557 77.24 66.0623 77.24ZM66.0623 75.94C66.9157 75.94 67.6023 75.6667 68.1223 75.12C68.6557 74.5733 69.0157 73.88 69.2023 73.04C69.389 72.2 69.4823 71.1733 69.4823 69.96C69.4823 69.08 69.429 68.3 69.3223 67.62C69.2157 66.9267 69.0357 66.3067 68.7823 65.76C68.529 65.2 68.1757 64.7733 67.7223 64.48C67.269 64.1733 66.7157 64.02 66.0623 64.02C63.7957 64.02 62.6623 66 62.6623 69.96C62.6623 71.8267 62.9157 73.2933 63.4223 74.36C63.9423 75.4133 64.8223 75.94 66.0623 75.94ZM78.4061 77.24C76.6994 77.24 75.4661 76.58 74.7061 75.26C73.9461 73.94 73.5661 72.1733 73.5661 69.96C73.5661 68.9067 73.6461 67.96 73.8061 67.12C73.9794 66.2667 74.2461 65.5 74.6061 64.82C74.9794 64.14 75.4861 63.62 76.1261 63.26C76.7661 62.8867 77.5261 62.7 78.4061 62.7C79.5794 62.7 80.5394 63.0333 81.2861 63.7C82.0328 64.3667 82.5461 65.22 82.8261 66.26C83.1194 67.3 83.2661 68.5333 83.2661 69.96C83.2661 71.0267 83.1794 71.9867 83.0061 72.84C82.8461 73.68 82.5794 74.44 82.2061 75.12C81.8461 75.7867 81.3461 76.3067 80.7061 76.68C80.0661 77.0533 79.2994 77.24 78.4061 77.24ZM78.4061 75.94C79.2594 75.94 79.9461 75.6667 80.4661 75.12C80.9994 74.5733 81.3594 73.88 81.5461 73.04C81.7328 72.2 81.8261 71.1733 81.8261 69.96C81.8261 69.08 81.7728 68.3 81.6661 67.62C81.5594 66.9267 81.3794 66.3067 81.1261 65.76C80.8728 65.2 80.5194 64.7733 80.0661 64.48C79.6128 64.1733 79.0594 64.02 78.4061 64.02C76.1394 64.02 75.0061 66 75.0061 69.96C75.0061 71.8267 75.2594 73.2933 75.7661 74.36C76.2861 75.4133 77.1661 75.94 78.4061 75.94ZM90.7498 77.24C89.0432 77.24 87.8098 76.58 87.0498 75.26C86.2898 73.94 85.9098 72.1733 85.9098 69.96C85.9098 68.9067 85.9898 67.96 86.1498 67.12C86.3232 66.2667 86.5898 65.5 86.9498 64.82C87.3232 64.14 87.8298 63.62 88.4698 63.26C89.1098 62.8867 89.8698 62.7 90.7498 62.7C91.9232 62.7 92.8832 63.0333 93.6298 63.7C94.3765 64.3667 94.8898 65.22 95.1698 66.26C95.4632 67.3 95.6098 68.5333 95.6098 69.96C95.6098 71.0267 95.5232 71.9867 95.3498 72.84C95.1898 73.68 94.9232 74.44 94.5498 75.12C94.1898 75.7867 93.6898 76.3067 93.0498 76.68C92.4098 77.0533 91.6432 77.24 90.7498 77.24ZM90.7498 75.94C91.6032 75.94 92.2898 75.6667 92.8098 75.12C93.3432 74.5733 93.7032 73.88 93.8898 73.04C94.0765 72.2 94.1698 71.1733 94.1698 69.96C94.1698 69.08 94.1165 68.3 94.0098 67.62C93.9032 66.9267 93.7232 66.3067 93.4698 65.76C93.2165 65.2 92.8632 64.7733 92.4098 64.48C91.9565 64.1733 91.4032 64.02 90.7498 64.02C88.4832 64.02 87.3498 66 87.3498 69.96C87.3498 71.8267 87.6032 73.2933 88.1098 74.36C88.6298 75.4133 89.5098 75.94 90.7498 75.94Z" fill="white"/>
<g opacity="0.6">
<ellipse cx="124.39" cy="10.8763" rx="8.61069" ry="8.53929" fill="url(#paint0_linear)"/>
<rect width="6.5962" height="6.5962" transform="matrix(0.710046 0.704155 -0.710046 0.704155 124.437 6.27826)" fill="#110D46"/>
<ellipse cx="124.389" cy="40.7638" rx="8.61069" ry="8.53929" fill="url(#paint1_linear)"/>
<rect width="6.5962" height="6.5962" transform="matrix(0.710045 0.704157 -0.710045 0.704157 124.437 36.1655)" fill="#110D46"/>
<ellipse cx="124.389" cy="70.6513" rx="8.61069" ry="8.53929" fill="url(#paint2_linear)"/>
<rect width="6.5962" height="6.5962" transform="matrix(0.710045 0.704157 -0.710045 0.704157 124.437 66.0529)" fill="#110D46"/>
</g>
<defs>
<linearGradient id="paint0_linear" x1="130.652" y1="2.33704" x2="115.944" y2="23.4124" gradientUnits="userSpaceOnUse">
<stop stop-color="white"/>
<stop offset="1" stop-color="#8477CE"/>
</linearGradient>
<linearGradient id="paint1_linear" x1="130.652" y1="32.2245" x2="115.944" y2="53.2999" gradientUnits="userSpaceOnUse">
<stop stop-color="white"/>
<stop offset="1" stop-color="#8477CE"/>
</linearGradient>
<linearGradient id="paint2_linear" x1="130.652" y1="62.1121" x2="115.944" y2="83.1874" gradientUnits="userSpaceOnUse">
<stop stop-color="white"/>
<stop offset="1" stop-color="#8477CE"/>
</linearGradient>
</defs>
</svg>
