<svg width="295" height="140" viewBox="0 0 131 140" fill="none" xmlns="http://www.w3.org/2000/svg">
<path d="M1.14 21H8.76V19.76H5.66V6.94H4.38L1.2 10.1L2.08 10.98L3.58 9.5C4.14 8.94 4.28 8.66 4.28 8.66H4.32C4.32 8.66 4.3 9.04 4.3 9.44V19.76H1.14V21ZM19.9936 20.18L20.8336 21L25.1136 16.2L29.3736 21L30.2336 20.18L25.8936 15.32L30.2336 10.46L29.3736 9.64L25.1136 14.44L20.8336 9.64L19.9936 10.46L24.3136 15.32L19.9936 20.18ZM41.5608 17.1H48.5808V21H49.9608V17.1H51.9608V15.9H49.9608V6.94H48.4608L41.5608 16.2V17.1ZM43.2208 15.9V15.86L47.9208 9.74C48.2808 9.24 48.6208 8.66 48.6208 8.66H48.6608C48.6608 8.66 48.5808 9.4 48.5808 10V15.9H43.2208ZM58.9725 21.24C62.6325 21.24 63.8325 18.02 63.8325 13.96C63.8325 9.92 62.6325 6.7 58.9725 6.7C55.3325 6.7 54.1325 9.92 54.1325 13.96C54.1325 18.02 55.3325 21.24 58.9725 21.24ZM58.9725 19.94C56.3125 19.94 55.5725 17.34 55.5725 13.96C55.5725 10.62 56.3125 8.02 58.9725 8.02C61.6525 8.02 62.3925 10.62 62.3925 13.96C62.3925 17.34 61.6525 19.94 58.9725 19.94ZM66.0363 22.94H67.2163L68.7363 19.36H67.1763L66.0363 22.94ZM76.5506 21.24C80.2106 21.24 81.4106 18.02 81.4106 13.96C81.4106 9.92 80.2106 6.7 76.5506 6.7C72.9106 6.7 71.7106 9.92 71.7106 13.96C71.7106 18.02 72.9106 21.24 76.5506 21.24ZM76.5506 19.94C73.8906 19.94 73.1506 17.34 73.1506 13.96C73.1506 10.62 73.8906 8.02 76.5506 8.02C79.2306 8.02 79.9706 10.62 79.9706 13.96C79.9706 17.34 79.2306 19.94 76.5506 19.94ZM88.8944 21.24C92.5544 21.24 93.7544 18.02 93.7544 13.96C93.7544 9.92 92.5544 6.7 88.8944 6.7C85.2544 6.7 84.0544 9.92 84.0544 13.96C84.0544 18.02 85.2544 21.24 88.8944 21.24ZM88.8944 19.94C86.2344 19.94 85.4944 17.34 85.4944 13.96C85.4944 10.62 86.2344 8.02 88.8944 8.02C91.5744 8.02 92.3144 10.62 92.3144 13.96C92.3144 17.34 91.5744 19.94 88.8944 19.94ZM101.238 21.24C104.898 21.24 106.098 18.02 106.098 13.96C106.098 9.92 104.898 6.7 101.238 6.7C97.5981 6.7 96.3981 9.92 96.3981 13.96C96.3981 18.02 97.5981 21.24 101.238 21.24ZM101.238 19.94C98.5781 19.94 97.8381 17.34 97.8381 13.96C97.8381 10.62 98.5781 8.02 101.238 8.02C103.918 8.02 104.658 10.62 104.658 13.96C104.658 17.34 103.918 19.94 101.238 19.94ZM1.24 49H10.04V47.76H2.68C2.72 44.02 9.82 43.36 9.82 38.64C9.82 36.44 8.2 34.7 5.54 34.7C3.64 34.7 2.06 35.82 1.28 37.24L2.3 37.94C2.98 36.84 4.14 36.02 5.46 36.02C7.22 36.02 8.38 37.18 8.38 38.72C8.38 42.52 1.16 43.16 1.16 48.1C1.16 48.38 1.2 48.68 1.24 49ZM21.8491 48.18L22.6891 49L26.9691 44.2L31.2291 49L32.0891 48.18L27.7491 43.32L32.0891 38.46L31.2291 37.64L26.9691 42.44L22.6891 37.64L21.8491 38.46L26.1691 43.32L21.8491 48.18ZM43.6363 47.32C44.7963 48.52 46.4563 49.24 48.0963 49.24C50.7563 49.24 52.7163 47.24 52.7163 44.84C52.7163 41.8 50.0963 40.78 48.3363 40.7L52.5163 35.86V34.94H44.2963V36.18H49.5763C50.3163 36.18 50.7163 36.12 50.7163 36.12V36.16C50.7163 36.16 50.3563 36.5 49.9763 36.94L46.4563 41.06L46.7963 41.88H47.7763C49.5963 41.88 51.2963 42.9 51.2963 44.88C51.2963 46.68 49.7763 47.9 48.0963 47.9C46.6363 47.9 45.2763 47.12 44.4963 46.26L43.6363 47.32ZM60.0467 49.24C63.7067 49.24 64.9067 46.02 64.9067 41.96C64.9067 37.92 63.7067 34.7 60.0467 34.7C56.4067 34.7 55.2067 37.92 55.2067 41.96C55.2067 46.02 56.4067 49.24 60.0467 49.24ZM60.0467 47.94C57.3867 47.94 56.6467 45.34 56.6467 41.96C56.6467 38.62 57.3867 36.02 60.0467 36.02C62.7267 36.02 63.4667 38.62 63.4667 41.96C63.4667 45.34 62.7267 47.94 60.0467 47.94ZM67.1105 50.94H68.2905L69.8105 47.36H68.2505L67.1105 50.94ZM77.6248 49.24C81.2848 49.24 82.4848 46.02 82.4848 41.96C82.4848 37.92 81.2848 34.7 77.6248 34.7C73.9848 34.7 72.7848 37.92 72.7848 41.96C72.7848 46.02 73.9848 49.24 77.6248 49.24ZM77.6248 47.94C74.9648 47.94 74.2248 45.34 74.2248 41.96C74.2248 38.62 74.9648 36.02 77.6248 36.02C80.3048 36.02 81.0448 38.62 81.0448 41.96C81.0448 45.34 80.3048 47.94 77.6248 47.94ZM89.9686 49.24C93.6286 49.24 94.8286 46.02 94.8286 41.96C94.8286 37.92 93.6286 34.7 89.9686 34.7C86.3286 34.7 85.1286 37.92 85.1286 41.96C85.1286 46.02 86.3286 49.24 89.9686 49.24ZM89.9686 47.94C87.3086 47.94 86.5686 45.34 86.5686 41.96C86.5686 38.62 87.3086 36.02 89.9686 36.02C92.6486 36.02 93.3886 38.62 93.3886 41.96C93.3886 45.34 92.6486 47.94 89.9686 47.94ZM102.312 49.24C105.972 49.24 107.172 46.02 107.172 41.96C107.172 37.92 105.972 34.7 102.312 34.7C98.6723 34.7 97.4723 37.92 97.4723 41.96C97.4723 46.02 98.6723 49.24 102.312 49.24ZM102.312 47.94C99.6523 47.94 98.9123 45.34 98.9123 41.96C98.9123 38.62 99.6523 36.02 102.312 36.02C104.992 36.02 105.732 38.62 105.732 41.96C105.732 45.34 104.992 47.94 102.312 47.94ZM0.98 75.32C2.14 76.52 3.8 77.24 5.44 77.24C8.1 77.24 10.06 75.24 10.06 72.84C10.06 69.8 7.44 68.78 5.68 68.7L9.86 63.86V62.94H1.64V64.18H6.92C7.66 64.18 8.06 64.12 8.06 64.12V64.16C8.06 64.16 7.7 64.5 7.32 64.94L3.8 69.06L4.14 69.88H5.12C6.94 69.88 8.64 70.9 8.64 72.88C8.64 74.68 7.12 75.9 5.44 75.9C3.98 75.9 2.62 75.12 1.84 74.26L0.98 75.32ZM21.7905 76.18L22.6305 77L26.9105 72.2L31.1705 77L32.0305 76.18L27.6905 71.32L32.0305 66.46L31.1705 65.64L26.9105 70.44L22.6305 65.64L21.7905 66.46L26.1105 71.32L21.7905 76.18ZM43.8377 77H52.6377V75.76H45.2777C45.3177 72.02 52.4177 71.36 52.4177 66.64C52.4177 64.44 50.7977 62.7 48.1377 62.7C46.2377 62.7 44.6577 63.82 43.8777 65.24L44.8977 65.94C45.5777 64.84 46.7377 64.02 48.0577 64.02C49.8177 64.02 50.9777 65.18 50.9777 66.72C50.9777 70.52 43.7577 71.16 43.7577 76.1C43.7577 76.38 43.7977 76.68 43.8377 77ZM60.0467 77.24C63.7067 77.24 64.9067 74.02 64.9067 69.96C64.9067 65.92 63.7067 62.7 60.0467 62.7C56.4067 62.7 55.2067 65.92 55.2067 69.96C55.2067 74.02 56.4067 77.24 60.0467 77.24ZM60.0467 75.94C57.3867 75.94 56.6467 73.34 56.6467 69.96C56.6467 66.62 57.3867 64.02 60.0467 64.02C62.7267 64.02 63.4667 66.62 63.4667 69.96C63.4667 73.34 62.7267 75.94 60.0467 75.94ZM67.1105 78.94H68.2905L69.8105 75.36H68.2505L67.1105 78.94ZM77.6248 77.24C81.2848 77.24 82.4848 74.02 82.4848 69.96C82.4848 65.92 81.2848 62.7 77.6248 62.7C73.9848 62.7 72.7848 65.92 72.7848 69.96C72.7848 74.02 73.9848 77.24 77.6248 77.24ZM77.6248 75.94C74.9648 75.94 74.2248 73.34 74.2248 69.96C74.2248 66.62 74.9648 64.02 77.6248 64.02C80.3048 64.02 81.0448 66.62 81.0448 69.96C81.0448 73.34 80.3048 75.94 77.6248 75.94ZM89.9686 77.24C93.6286 77.24 94.8286 74.02 94.8286 69.96C94.8286 65.92 93.6286 62.7 89.9686 62.7C86.3286 62.7 85.1286 65.92 85.1286 69.96C85.1286 74.02 86.3286 77.24 89.9686 77.24ZM89.9686 75.94C87.3086 75.94 86.5686 73.34 86.5686 69.96C86.5686 66.62 87.3086 64.02 89.9686 64.02C92.6486 64.02 93.3886 66.62 93.3886 69.96C93.3886 73.34 92.6486 75.94 89.9686 75.94ZM102.312 77.24C105.972 77.24 107.172 74.02 107.172 69.96C107.172 65.92 105.972 62.7 102.312 62.7C98.6723 62.7 97.4723 65.92 97.4723 69.96C97.4723 74.02 98.6723 77.24 102.312 77.24ZM102.312 75.94C99.6523 75.94 98.9123 73.34 98.9123 69.96C98.9123 66.62 99.6523 64.02 102.312 64.02C104.992 64.02 105.732 66.62 105.732 69.96C105.732 73.34 104.992 75.94 102.312 75.94ZM0.76 101.1H7.78V105H9.16V101.1H11.16V99.9H9.16V90.94H7.66L0.76 100.2V101.1ZM2.42 99.9V99.86L7.12 93.74C7.48 93.24 7.82 92.66 7.82 92.66H7.86C7.86 92.66 7.78 93.4 7.78 94V99.9H2.42ZM22.5717 104.18L23.4117 105L27.6917 100.2L31.9517 105L32.8117 104.18L28.4717 99.32L32.8117 94.46L31.9517 93.64L27.6917 98.44L23.4117 93.64L22.5717 94.46L26.8917 99.32L22.5717 104.18ZM44.5189 105H52.1389V103.76H49.0389V90.94H47.7589L44.5789 94.1L45.4589 94.98L46.9589 93.5C47.5189 92.94 47.6589 92.66 47.6589 92.66H47.6989C47.6989 92.66 47.6789 93.04 47.6789 93.44V103.76H44.5189V105ZM58.9725 105.24C62.6325 105.24 63.8325 102.02 63.8325 97.96C63.8325 93.92 62.6325 90.7 58.9725 90.7C55.3325 90.7 54.1325 93.92 54.1325 97.96C54.1325 102.02 55.3325 105.24 58.9725 105.24ZM58.9725 103.94C56.3125 103.94 55.5725 101.34 55.5725 97.96C55.5725 94.62 56.3125 92.02 58.9725 92.02C61.6525 92.02 62.3925 94.62 62.3925 97.96C62.3925 101.34 61.6525 103.94 58.9725 103.94ZM66.0363 106.94H67.2163L68.7363 103.36H67.1763L66.0363 106.94ZM76.5506 105.24C80.2106 105.24 81.4106 102.02 81.4106 97.96C81.4106 93.92 80.2106 90.7 76.5506 90.7C72.9106 90.7 71.7106 93.92 71.7106 97.96C71.7106 102.02 72.9106 105.24 76.5506 105.24ZM76.5506 103.94C73.8906 103.94 73.1506 101.34 73.1506 97.96C73.1506 94.62 73.8906 92.02 76.5506 92.02C79.2306 92.02 79.9706 94.62 79.9706 97.96C79.9706 101.34 79.2306 103.94 76.5506 103.94ZM88.8944 105.24C92.5544 105.24 93.7544 102.02 93.7544 97.96C93.7544 93.92 92.5544 90.7 88.8944 90.7C85.2544 90.7 84.0544 93.92 84.0544 97.96C84.0544 102.02 85.2544 105.24 88.8944 105.24ZM88.8944 103.94C86.2344 103.94 85.4944 101.34 85.4944 97.96C85.4944 94.62 86.2344 92.02 88.8944 92.02C91.5744 92.02 92.3144 94.62 92.3144 97.96C92.3144 101.34 91.5744 103.94 88.8944 103.94ZM101.238 105.24C104.898 105.24 106.098 102.02 106.098 97.96C106.098 93.92 104.898 90.7 101.238 90.7C97.5981 90.7 96.3981 93.92 96.3981 97.96C96.3981 102.02 97.5981 105.24 101.238 105.24ZM101.238 103.94C98.5781 103.94 97.8381 101.34 97.8381 97.96C97.8381 94.62 98.5781 92.02 101.238 92.02C103.918 92.02 104.658 94.62 104.658 97.96C104.658 101.34 103.918 103.94 101.238 103.94ZM1.14 133H8.76V131.76H5.66V118.94H4.38L1.2 122.1L2.08 122.98L3.58 121.5C4.14 120.94 4.28 120.66 4.28 120.66H4.32C4.32 120.66 4.3 121.04 4.3 121.44V131.76H1.14V133ZM10.6136 129.04C10.6136 131.6 12.8536 133.24 15.3736 133.24C18.1136 133.24 20.0336 131.38 20.0336 129.18C20.0336 127.72 19.1736 126.84 18.0336 126.18C18.4536 125.78 19.8536 124.24 19.8536 122.34C19.8536 120.18 18.1536 118.7 15.5536 118.7C12.7136 118.7 11.2936 120.42 11.2936 122.3C11.2936 123.6 12.0136 124.46 12.9936 125.1C12.4536 125.44 10.6136 126.76 10.6136 129.04ZM16.8936 125.62C14.9536 124.72 12.6936 124.14 12.6936 122.28C12.6936 121.02 13.7336 119.98 15.5336 119.98C17.2336 119.98 18.4536 120.9 18.4536 122.44C18.4536 124.04 17.2336 125.28 16.8936 125.62ZM12.0536 128.94C12.0536 127.12 13.6336 126.04 14.1136 125.74C16.1536 126.72 18.6136 127.28 18.6136 129.2C18.6136 130.82 17.0136 131.96 15.3536 131.96C13.6936 131.96 12.0536 130.76 12.0536 128.94ZM31.8881 132.18L32.7281 133L37.0081 128.2L41.2681 133L42.1281 132.18L37.7881 127.32L42.1281 122.46L41.2681 121.64L37.0081 126.44L32.7281 121.64L31.8881 122.46L36.2081 127.32L31.8881 132.18ZM53.7753 131.26C54.7153 132.52 56.2753 133.24 57.8953 133.24C60.6353 133.24 62.7753 131.22 62.7753 128.62C62.7753 126.1 60.7553 124.04 57.9353 124.04C57.1153 124.04 56.1953 124.34 55.8153 124.58H55.7753C55.7753 124.58 55.8353 124.28 55.8953 123.78L56.3153 120.18H61.8953V118.94H55.0953L54.3353 125.76L55.2153 126.08C55.9153 125.6 56.9153 125.3 57.7753 125.3C59.7953 125.3 61.3353 126.7 61.3353 128.62C61.3353 130.54 59.7753 131.9 57.8353 131.9C56.2553 131.9 55.2153 131.06 54.6753 130.28L53.7753 131.26ZM64.6691 134.94H65.8491L67.3691 131.36H65.8091L64.6691 134.94ZM75.1834 133.24C78.8434 133.24 80.0434 130.02 80.0434 125.96C80.0434 121.92 78.8434 118.7 75.1834 118.7C71.5434 118.7 70.3434 121.92 70.3434 125.96C70.3434 130.02 71.5434 133.24 75.1834 133.24ZM75.1834 131.94C72.5234 131.94 71.7834 129.34 71.7834 125.96C71.7834 122.62 72.5234 120.02 75.1834 120.02C77.8634 120.02 78.6034 122.62 78.6034 125.96C78.6034 129.34 77.8634 131.94 75.1834 131.94ZM87.5272 133.24C91.1872 133.24 92.3872 130.02 92.3872 125.96C92.3872 121.92 91.1872 118.7 87.5272 118.7C83.8872 118.7 82.6872 121.92 82.6872 125.96C82.6872 130.02 83.8872 133.24 87.5272 133.24ZM87.5272 131.94C84.8672 131.94 84.1272 129.34 84.1272 125.96C84.1272 122.62 84.8672 120.02 87.5272 120.02C90.2072 120.02 90.9472 122.62 90.9472 125.96C90.9472 129.34 90.2072 131.94 87.5272 131.94ZM99.8709 133.24C103.531 133.24 104.731 130.02 104.731 125.96C104.731 121.92 103.531 118.7 99.8709 118.7C96.2309 118.7 95.0309 121.92 95.0309 125.96C95.0309 130.02 96.2309 133.24 99.8709 133.24ZM99.8709 131.94C97.2109 131.94 96.4709 129.34 96.4709 125.96C96.4709 122.62 97.2109 120.02 99.8709 120.02C102.551 120.02 103.291 122.62 103.291 125.96C103.291 129.34 102.551 131.94 99.8709 131.94Z" fill="white"/>
<g opacity="0.6">
<circle cx="123" cy="13" r="8" fill="url(#paint0_linear)"/>
<rect width="6.15385" height="6.15385" transform="matrix(0.707109 0.707105 -0.707109 0.707105 123.044 8.69232)" fill="#110D46"/>
<circle cx="123" cy="41" r="8" fill="url(#paint1_linear)"/>
<rect x="123.044" y="36.692" width="6.15385" height="6.15385" transform="rotate(45 123.044 36.692)" fill="#110D46"/>
<circle cx="123" cy="69" r="8" fill="url(#paint2_linear)"/>
<rect x="123.044" y="64.692" width="6.15385" height="6.15385" transform="rotate(45 123.044 64.692)" fill="#110D46"/>
<circle cx="123" cy="97" r="8" fill="url(#paint3_linear)"/>
<rect x="123.044" y="92.6923" width="6.15385" height="6.15385" transform="rotate(45 123.044 92.6923)" fill="#110D46"/>
<circle cx="123" cy="125" r="8" fill="url(#paint4_linear)"/>
<rect x="123.044" y="120.693" width="6.15385" height="6.15385" transform="rotate(45 123.044 120.693)" fill="#110D46"/>
</g>
<defs>
<linearGradient id="paint0_linear" x1="128.818" y1="5" x2="115" y2="24.6364" gradientUnits="userSpaceOnUse">
<stop stop-color="white"/>
<stop offset="1" stop-color="#8477CE"/>
</linearGradient>
<linearGradient id="paint1_linear" x1="128.818" y1="33" x2="115" y2="52.6364" gradientUnits="userSpaceOnUse">
<stop stop-color="white"/>
<stop offset="1" stop-color="#8477CE"/>
</linearGradient>
<linearGradient id="paint2_linear" x1="128.818" y1="61" x2="115" y2="80.6364" gradientUnits="userSpaceOnUse">
<stop stop-color="white"/>
<stop offset="1" stop-color="#8477CE"/>
</linearGradient>
<linearGradient id="paint3_linear" x1="128.818" y1="89" x2="115" y2="108.636" gradientUnits="userSpaceOnUse">
<stop stop-color="white"/>
<stop offset="1" stop-color="#8477CE"/>
</linearGradient>
<linearGradient id="paint4_linear" x1="128.818" y1="117" x2="115" y2="136.636" gradientUnits="userSpaceOnUse">
<stop stop-color="white"/>
<stop offset="1" stop-color="#8477CE"/>
</linearGradient>
</defs>
</svg>
