<svg width="352" height="105" viewBox="0 0 352 105" fill="none" xmlns="http://www.w3.org/2000/svg">
<g clip-path="url(#clip0)">
<path d="M86.8719 56H90.3119L93.7519 13.2801C93.9919 10.5601 93.9919 5.68009 93.9919 5.68009H94.1519C94.1519 5.68009 95.9119 10.6401 97.1119 13.2801L112.072 45.2001H115.592L130.632 13.2801C131.912 10.5601 133.512 5.84009 133.512 5.84009H133.672C133.672 5.84009 133.672 10.5601 133.912 13.2801L137.352 56H140.792L136.312 8.7738e-05L132.952 8.7738e-05L116.632 35.2001C115.352 37.9201 113.912 41.5201 113.912 41.5201H113.752C113.752 41.5201 112.312 37.9201 111.032 35.2001L94.7119 8.7738e-05L91.3519 8.7738e-05L86.8719 56Z" fill="url(#paint0_linear)"/>
<path d="M166.951 56H170.391V31.2001H186.471L199.751 56H203.831L191.271 32.7201C190.551 31.3601 189.991 30.7201 189.991 30.7201V30.5601C196.551 29.1201 201.191 23.1201 201.191 15.1201C201.191 8.72009 198.071 4.00009 193.431 1.68009C191.191 0.56009 188.551 8.7738e-05 183.351 8.7738e-05L166.951 8.7738e-05V56ZM170.391 28.0001V3.20009H183.191C187.671 3.20009 189.431 3.60009 191.031 4.32009C195.111 6.16009 197.591 10.1601 197.591 15.1201C197.591 22.7201 192.951 28.0001 185.591 28.0001H170.391Z" fill="url(#paint1_linear)"/>
<path d="M239.801 43C241.5 42.5 242 42.5 243.241 42.7921V3.2H264.121V0L218.921 0V3.2H239.801V43Z" fill="url(#paint2_linear)"/>
<path d="M98.8139 98.1673C98.6019 98.3253 98.362 98.3011 98.0942 98.0949C97.8283 97.9252 97.4044 97.5436 96.8225 96.9499C96.5913 96.7417 96.4333 96.5297 96.3486 96.3138C96.2657 96.1345 96.2157 95.8802 96.1984 95.5506L96.2363 94.1717C96.3906 93.6129 96.4486 92.9673 96.4102 92.235C96.3948 91.942 96.475 91.0199 96.6507 89.4686C96.8245 87.8807 96.9664 86.735 97.0764 86.0316L97.2067 85.3639C97.4363 84.1402 97.5974 83.0119 97.6902 81.9789C97.9351 81.0482 98.1261 80.1386 98.2631 79.2502C98.4349 78.3233 98.5121 77.695 98.4948 77.3655C98.4603 76.7064 98.6917 76.217 99.1889 75.8972C99.2102 75.6023 99.4532 74.9837 99.9178 74.0415C100.666 71.5055 101.214 69.696 101.561 68.613C101.943 67.4915 102.351 66.5155 102.784 65.685C103.348 63.8196 103.818 62.6384 104.196 62.1413C104.42 61.5054 105.067 60.5535 106.139 59.2856C107.211 58.0178 108.167 56.9947 109.007 56.2163C109.79 55.7347 110.416 55.4265 110.887 55.2917C111.392 55.1184 112.01 55.0125 112.742 54.9741C113.365 54.9415 113.79 54.9927 114.017 55.1276C114.279 55.2241 114.698 55.5142 115.275 55.998C115.779 56.5223 116.073 56.8741 116.156 57.0533C116.275 57.2307 116.349 57.5757 116.375 58.0883C116.269 58.8649 115.955 59.8727 115.432 61.1118C114.91 62.3508 114.503 62.9963 114.212 63.0483C114.104 63.0907 113.959 63.1167 113.776 63.1263C113.226 63.155 112.928 62.7117 112.88 61.7963C112.868 61.5766 112.802 61.3598 112.68 61.1459C112.559 60.9319 112.478 60.7893 112.438 60.718C112.409 60.1687 112.513 59.7043 112.75 59.3247C112.849 59.0993 112.893 58.895 112.883 58.7119C112.874 58.5288 112.795 58.4228 112.646 58.3939C112.533 58.3264 112.35 58.336 112.097 58.4226C111.777 58.623 110.988 59.3253 109.729 60.5295C108.505 61.6951 107.899 62.3878 107.91 62.6075C107.878 62.6827 107.778 62.8898 107.612 63.2289C107.481 63.5296 107.262 63.8899 106.953 64.3099C106.342 65.2599 106.042 65.8447 106.054 66.0644C106.079 66.5404 105.981 66.7842 105.762 66.7957C105.729 66.8709 105.649 67.0953 105.522 67.4692C105.429 67.8045 105.283 68.1793 105.085 68.5936C104.956 68.9308 104.792 69.3066 104.593 69.7209C104.395 70.1352 104.226 70.4194 104.087 70.5735L104.142 70.5706C104.047 70.8693 103.875 71.4291 103.624 72.25C103.372 73.0343 103.248 73.4814 103.254 73.5913C103.261 73.7377 103.522 73.7975 104.034 73.7707C105.169 73.7112 106.459 73.4417 107.902 72.9621C108.371 72.7907 108.715 72.6992 108.934 72.6877C109.191 72.6743 109.561 72.7283 110.044 72.8499C110.461 73.0851 110.812 73.4889 111.099 74.0613C111.386 74.6337 111.462 75.0336 111.327 75.261C111.298 75.4094 110.906 75.6319 110.151 75.9285C109.432 76.2232 108.673 76.4649 107.875 76.6536C106.754 76.9694 105.83 77.2014 105.103 77.3496C104.922 77.3958 104.342 77.5364 103.363 77.7713C102.42 78.0043 101.953 78.194 101.961 78.3404C101.814 78.3481 101.69 78.4281 101.588 78.5803C101.485 78.7325 101.438 78.8819 101.446 79.0283C101.473 79.541 101.42 79.9293 101.287 80.1933C101.132 80.7521 100.866 81.9777 100.488 83.8701C100.145 85.7239 99.9843 86.8706 100.007 87.31C99.7336 87.6915 99.6217 88.3583 99.6716 89.3103C99.473 89.7246 99.3871 90.188 99.414 90.7007C99.4255 90.9204 99.4168 91.1044 99.3879 91.2528C99.3974 91.4359 99.3839 91.8772 99.3471 92.5767C99.3103 93.2763 99.3073 93.919 99.338 94.5049L99.2567 96.1063C99.2431 96.5476 99.2093 96.9533 99.1552 97.3233C99.1012 97.6933 98.9874 97.9746 98.8139 98.1673Z" fill="url(#paint3_linear)"/>
<path d="M112.974 89.6045C112.853 89.3906 112.658 89.1804 112.39 88.9742C112.157 88.7294 112.039 88.5704 112.035 88.4971C112.014 88.0944 111.906 87.7879 111.711 87.5778C111.634 87.5084 111.589 87.3456 111.575 87.0892C111.545 86.5034 111.768 85.5003 112.244 84.0801C112.755 82.6214 113.425 81.0442 114.254 79.3484C114.462 79.1172 114.717 78.7184 115.017 78.1519C115.355 77.5834 115.576 77.2597 115.682 77.1807C115.675 77.0342 115.723 76.9032 115.827 76.7876C115.929 76.6354 116.054 76.5554 116.2 76.5478L116.183 76.2182C116.166 75.8887 116.728 75.0697 117.872 73.7615C119.013 72.4166 119.955 71.486 120.699 70.9696C121.582 70.2992 122.499 69.939 123.451 69.8891C124.111 69.8546 124.688 70.0079 125.183 70.3491C125.378 70.5592 126.261 71.3024 127.833 72.5785L129.96 74.2845L129.116 77.0825C128.838 78.0885 128.72 78.9942 128.762 79.7997C128.835 81.1912 129.308 82.5066 130.181 83.7459C130.385 84.1391 130.771 84.5044 131.34 84.8418C131.908 85.1791 132.469 85.3701 133.022 85.4145C133.835 85.5188 134.259 85.9004 134.294 86.5595C134.332 87.2919 134.026 87.7485 133.374 87.9295C133.23 87.9738 133.011 88.0036 132.718 88.019C130.558 88.1322 128.611 86.7105 126.877 83.7539C126.719 83.5418 126.496 83.1496 126.209 82.5772C125.959 82.0028 125.81 81.6068 125.762 81.389C125.557 81.6934 125.301 82.0557 124.992 82.4757C124.684 82.8958 124.391 83.2599 124.113 83.5682C120.331 87.7686 117.287 89.9292 114.98 90.0501C114.248 90.0885 113.579 89.94 112.974 89.6045ZM114.79 86.4251C114.8 86.6082 114.986 86.6535 115.348 86.5611C115.747 86.4667 116.213 86.2587 116.747 85.937C117.318 85.6134 117.883 85.1982 118.444 84.6915C121.451 81.8168 123.598 79.3361 124.884 77.2493L125.988 75.2086C125.582 74.4589 125.169 73.9298 124.749 73.6214C124.327 73.2763 123.951 73.1124 123.621 73.1297C122.852 73.17 121.695 74.2036 120.149 76.2307C118.601 78.2211 117.218 80.5517 115.999 83.2224C115.702 83.8622 115.443 84.5183 115.221 85.1908C114.997 85.8268 114.854 86.2382 114.79 86.4251Z" fill="url(#paint4_linear)"/>
<path d="M139.82 88.4729C139.601 88.4844 139.286 88.4275 138.875 88.3021C138.465 88.1768 138.202 88.0621 138.086 87.958C137.701 87.611 137.495 87.1995 137.471 86.7235C137.428 85.9179 137.78 84.9265 138.526 83.7492C138.723 83.2982 139.193 81.7499 139.935 79.1041L140.875 76.0256C140.916 75.3993 140.856 74.9618 140.696 74.7132C140.535 74.4279 140.215 74.2795 139.737 74.2678L139.407 74.2851C139.078 74.3024 138.855 74.2589 138.739 74.1549C138.622 74.0141 138.549 73.6692 138.52 73.1199C138.534 72.6786 138.626 72.3433 138.798 72.114C138.969 71.8847 139.267 71.6121 139.691 71.2961C140.262 70.9725 140.858 70.7944 141.481 70.7617C142.067 70.731 142.513 70.8362 142.819 71.0771C143.046 71.2121 143.21 71.534 143.31 72.0427C143.445 72.513 143.527 73.0228 143.556 73.572C143.619 74.0827 143.675 74.447 143.723 74.6647C143.896 74.4721 144.317 74.0829 144.984 73.4972C145.685 72.8729 146.279 72.291 146.765 71.7516C147.364 71.2795 148.056 70.821 148.841 70.376C149.625 69.931 150.182 69.6999 150.512 69.6826C150.914 69.6615 151.323 69.7503 151.737 69.9488C152.15 70.1108 152.437 70.3344 152.598 70.6197C152.959 71.1883 153.151 71.7106 153.176 72.1866C153.203 72.6992 153.029 73.2224 152.653 73.7561C152.344 74.1762 151.939 74.5095 151.438 74.7561C150.937 75.0026 150.577 75.1317 150.357 75.1432C150.137 75.1547 149.854 75.0043 149.507 74.692C149.161 74.3798 148.963 74.1147 148.915 73.897C148.907 73.7505 148.447 74.0684 147.533 74.8506C146.654 75.5943 145.972 76.2359 145.486 76.7754C144.936 77.5018 144.38 78.4489 143.817 79.6166C143.291 80.7824 142.502 82.5494 141.451 84.9177C141.355 85.1797 141.131 85.8157 140.78 86.8254C140.628 87.4209 140.485 87.8506 140.352 88.1146C140.217 88.342 140.04 88.4614 139.82 88.4729Z" fill="url(#paint5_linear)"/>
<path d="M161.743 89.1966C160.168 89.2791 158.837 88.7614 157.751 87.6434C156.664 86.5254 156.075 85.0876 155.983 83.33C155.891 81.5724 156.174 79.6299 156.834 77.5025C157.528 75.3365 158.454 73.3787 159.61 71.6291C160.767 69.8795 161.971 68.6782 163.222 68.0252C163.933 67.584 164.746 67.3394 165.662 67.2915C166.357 67.255 167.155 67.4151 168.055 67.7719C168.691 67.9955 169.183 68.2818 169.532 68.6307C169.881 68.9796 170.203 69.5318 170.5 70.2873C170.644 70.9407 170.723 71.3955 170.737 71.6518C170.748 71.8715 170.682 72.3523 170.537 73.0943C170.168 74.4721 169.643 75.6562 168.961 76.6466C168.313 77.5985 167.439 78.4337 166.338 79.1523C165.772 79.5492 165.049 79.7706 164.17 79.8167C163.401 79.857 162.662 79.7672 161.953 79.5474C161.278 79.289 160.744 78.8947 160.349 78.3647L159.941 77.9454L159.8 78.3935C159.134 80.4111 158.838 82.1156 158.911 83.507C158.961 84.459 159.184 85.2184 159.581 85.785C159.858 86.1744 160.492 86.3431 161.48 86.2913C162.212 86.253 162.74 86.1519 163.061 85.9882C163.601 85.7763 164.066 85.5316 164.455 85.2542C164.879 84.9383 165.285 84.6233 165.672 84.3092L165.886 84.1879L165.831 84.1907C166.259 83.948 166.615 83.7274 166.898 83.529C167.181 83.3306 167.376 83.1919 167.482 83.1129C167.555 83.109 167.628 83.0869 167.699 83.0464C167.77 83.006 167.84 82.9289 167.907 82.8152C168.229 82.6515 168.616 82.6862 169.069 82.9195C169.522 83.1528 169.759 83.4709 169.78 83.8736C169.722 84.1704 169.418 84.6637 168.866 85.3535C168.315 86.0433 167.894 86.4142 167.603 86.4661C167.566 86.4681 167.441 86.5297 167.227 86.6511C167.013 86.7724 166.871 86.8716 166.802 86.9487L166.857 86.9458C166.55 87.4025 166.232 87.6395 165.903 87.6567L165.463 87.6798C165.332 87.9804 164.853 88.2992 164.026 88.6363C163.236 88.9714 162.475 89.1582 161.743 89.1966ZM163.581 76.9836C164.679 76.9261 165.654 76.2508 166.504 74.9579C167.321 73.7401 167.699 72.5453 167.638 71.3736C167.605 70.7511 167.454 70.3185 167.184 70.0756C166.959 69.9772 166.755 69.9329 166.572 69.9425C166.388 69.9521 166.08 70.0233 165.646 70.1562C165.176 70.291 164.471 70.842 163.53 71.8092C162.587 72.7398 161.896 73.5654 161.457 74.2861L160.803 75.4769C161.09 75.3517 161.362 75.2824 161.618 75.269C161.909 75.217 162.075 75.2267 162.116 75.298C162.143 75.8106 162.293 76.225 162.566 76.5411C162.84 76.8572 163.178 77.0047 163.581 76.9836Z" fill="url(#paint6_linear)"/>
<path d="M190.167 85.9445C189.658 86.0446 188.785 85.5029 187.548 84.3193C187.194 83.8606 186.877 83.0694 186.598 81.9458C186.353 80.7837 186.16 79.5454 186.018 78.2311C183.355 82.7767 181.142 85.3894 179.379 86.0693C179.271 86.1117 179.125 86.1376 178.942 86.1472C178.54 86.1683 178.217 85.965 177.974 85.5371C177.774 85.2171 177.586 84.7864 177.411 84.2448C177.233 83.6666 177.149 83.1019 177.157 82.5508C176.818 80.2921 176.597 78.1741 176.493 76.1968C176.405 74.5124 176.438 73.3908 176.592 72.832C176.548 72.6874 176.523 72.5602 176.517 72.4504C176.509 72.3039 176.505 72.2124 176.503 72.1758C176.424 72.0698 176.371 71.7604 176.344 71.2478C176.311 70.6253 176.312 69.946 176.347 69.2098C176.419 68.4717 176.506 68.0266 176.608 67.8744C176.669 67.6508 176.917 67.4726 177.351 67.3398C177.906 67.4208 178.21 67.6252 178.264 67.9528C178.339 67.9856 178.436 68.0723 178.553 68.213C178.707 68.3518 178.857 68.3991 179.001 68.3548C179.229 68.4897 179.391 69.4909 179.489 71.3584C179.464 71.58 179.46 71.8556 179.477 72.1851C179.529 72.4761 179.559 72.6949 179.567 72.8413C179.578 73.061 179.568 73.2084 179.535 73.2836C179.573 74.0159 179.681 75.02 179.858 76.2958C179.898 77.0648 179.913 77.6882 179.901 78.1661L179.95 80.1463C180.1 80.9095 180.216 81.3807 180.299 81.5599C180.419 81.7373 180.584 81.7469 180.796 81.589C181.155 81.4233 182.134 79.7931 183.734 76.6985C184.982 74.577 185.776 73.2686 186.117 72.7734C186.206 71.6672 186.34 70.3751 186.52 68.897C187.036 68.2458 187.515 67.9086 187.954 67.8856C188.32 67.8664 188.625 68.0707 188.867 68.4986C189.393 68.7281 189.671 69.1174 189.7 69.6667C189.713 69.923 189.704 70.107 189.673 70.2188L189.005 73.2279C188.799 74.1934 188.748 75.683 188.854 77.6969C188.95 79.5278 189.128 80.8219 189.388 81.5793C189.403 81.8722 189.575 82.0101 189.905 81.9928C190.271 81.9736 190.735 81.7107 191.296 81.2039C192.057 80.3196 192.912 79.1182 193.86 77.5998C194.844 76.0428 195.328 75.1179 195.312 74.825C195.297 74.5321 195.354 74.217 195.483 73.8798C195.61 73.5059 195.779 73.2217 195.989 73.0271C196.126 72.8363 196.223 72.5926 196.281 72.2958C196.339 71.999 196.4 71.7572 196.463 71.5703C196.496 71.4951 196.528 71.4017 196.559 71.2899C196.624 71.1396 196.689 70.971 196.753 70.7841L196.689 70.6222C196.679 70.4391 196.797 70.231 197.042 69.9978C197.285 69.7281 197.422 69.5373 197.453 69.4256C197.532 68.8339 197.828 68.5247 198.34 68.4978C198.633 68.4825 198.914 68.5963 199.184 68.8391C199.489 69.0435 199.67 69.3461 199.727 69.747C199.764 70.4427 199.51 71.5575 198.966 73.0914C198.421 74.5886 197.793 75.925 197.084 77.1004C197.018 77.2507 196.922 77.5128 196.794 77.8866C196.665 78.2238 196.432 78.6767 196.095 79.2451C195.792 79.775 195.333 80.4783 194.718 81.355C194.207 82.1161 193.707 82.7298 193.217 83.1961C192.568 84.1113 192.015 84.7828 191.561 85.2106C191.106 85.6383 190.641 85.8829 190.167 85.9445Z" fill="url(#paint7_linear)"/>
<path d="M206.472 85.3654C205.276 84.9508 204.42 84.3898 203.906 83.6824C203.389 82.9384 203.096 81.889 203.025 80.5342C202.99 79.8751 203.005 79.1033 203.068 78.2187L203.075 76.2357C203.057 75.9061 203.007 75.6517 202.925 75.4725C202.842 75.2932 202.666 75.1005 202.399 74.8942C202.322 74.8248 202.129 74.6513 201.821 74.3737C201.512 74.0962 201.372 73.8649 201.399 73.6799L201.329 73.4081C201.316 73.1518 201.34 72.9119 201.402 72.6884C201.5 72.4629 201.604 72.3473 201.714 72.3415C201.824 72.3358 201.969 72.3098 202.151 72.2636C202.33 72.1808 202.494 72.1538 202.642 72.1828C203.155 72.1559 203.417 72.2523 203.428 72.472C203.59 72.7573 203.83 72.7814 204.148 72.5444C204.501 72.2689 204.824 71.7747 205.117 71.0617C205.587 70.2293 206.294 69.3478 207.236 68.4171C208.214 67.448 209.022 66.7631 209.662 66.3624C209.911 66.2025 210.325 66.0523 210.905 65.9117C211.483 65.7345 211.992 65.6344 212.432 65.6114C213.091 65.5769 213.666 65.6936 214.157 65.9616C214.685 66.2276 215.22 66.6219 215.761 67.1442C216.484 67.6204 216.874 68.4077 216.932 69.5062C216.972 70.2752 216.83 71.072 216.506 71.8968C216.388 72.4537 215.839 73.1801 214.858 74.076C213.913 74.97 213.029 75.6038 212.204 75.9775C211.192 76.2876 210.027 76.4771 208.709 76.5462C207.83 76.5923 207.259 76.5488 206.995 76.4158C206.542 76.1825 206.282 77.1874 206.216 79.4306C206.193 79.6889 206.193 80.0377 206.216 80.4771C206.249 81.0996 206.366 81.5891 206.568 81.9456C206.607 81.9803 206.743 82.1201 206.976 82.3649C207.207 82.5731 207.492 82.7601 207.831 82.9259C208.169 83.0551 208.52 83.1101 208.886 83.0909C209.216 83.0736 209.47 83.0236 209.65 82.9407C210.047 82.8098 210.421 82.5882 210.771 82.2761C211.12 81.9274 211.607 81.4062 212.232 80.7126C212.787 80.096 213.187 79.6711 213.432 79.438C213.597 79.0989 213.955 78.9149 214.504 78.8861C214.651 78.8785 214.909 78.9016 215.279 78.9557C215.622 79.1947 215.801 79.4607 215.816 79.7536C215.832 80.0466 215.677 80.6054 215.353 81.4302C215.19 81.8059 214.759 82.3425 214.061 83.04C213.398 83.699 212.801 84.2259 212.271 84.6208C211.169 85.3028 210.05 85.6735 208.915 85.733C208.219 85.7695 207.405 85.6469 206.472 85.3654ZM209.128 74.0458C209.491 73.9534 210.017 73.834 210.707 73.6877C211.397 73.5414 211.952 73.2737 212.372 72.8845C212.827 72.4568 213.341 71.7506 213.913 70.7659C214.008 70.4672 214.047 70.1714 214.032 69.8785C214.003 69.3292 213.873 68.9505 213.642 68.7423C213.372 68.4995 213.073 68.3867 212.743 68.4039C212.23 68.4308 211.711 68.6783 211.185 69.1465C210.824 69.2755 210.296 69.7071 209.6 70.4412C208.941 71.1734 208.373 71.9007 207.897 72.6233C207.419 73.3093 207.275 73.7024 207.463 73.8026C207.396 73.9163 207.584 73.9983 208.027 74.0485C208.468 74.0621 208.835 74.0612 209.128 74.0458Z" fill="url(#paint8_linear)"/>
<path d="M222.206 85.8626C222.098 85.905 221.915 85.9329 221.659 85.9463C221.073 85.977 220.6 85.7081 220.24 85.1395C219.88 84.5709 219.673 83.774 219.619 82.7487C219.575 81.9066 219.634 80.9305 219.796 79.8205C220.143 78.7375 220.304 77.958 220.279 77.482C220.353 76.7805 220.654 75.5163 221.182 73.6895C221.745 71.8241 222.109 70.7036 222.273 70.3278C222.419 70.3201 222.541 70.2036 222.64 69.9781C222.736 69.7161 222.777 69.4386 222.761 69.1456C222.744 68.8161 222.782 68.4837 222.874 68.1483C223.002 67.7745 223.135 67.5105 223.273 67.3564C223.268 67.2465 223.294 67.0432 223.352 66.7464C223.446 66.4478 223.491 66.2435 223.485 66.1336C223.481 66.0604 223.511 65.9303 223.574 65.7434C223.673 65.518 223.719 65.3503 223.713 65.2405C224.24 64.0746 225.132 61.4761 226.389 57.4447C227.644 53.3768 228.261 51.1231 228.238 50.6837C228.207 50.0979 228.485 49.7896 229.07 49.7589C229.244 49.5662 229.532 49.4593 229.935 49.4382L230.86 50.2709C231.129 50.5138 231.309 50.7798 231.397 51.0689C231.484 51.3214 231.542 51.7222 231.57 52.2715C231.599 52.8207 231.551 53.3006 231.425 53.711C231.3 54.1215 230.977 54.9645 230.457 56.2402C230.36 56.5023 230.23 56.8212 230.066 57.197C229.9 57.5361 229.721 57.9677 229.528 58.4919C229.464 58.6788 229.206 59.3532 228.753 60.5152C228.425 61.2667 228.264 61.6974 228.27 61.8073C228.276 61.9171 228.215 62.159 228.088 62.5328C227.958 62.87 227.848 63.2246 227.758 63.5965C227.496 64.1977 227.074 65.2663 226.494 66.8021C225.948 68.2993 225.679 69.1212 225.687 69.2677C225.708 69.6705 225.632 69.9682 225.458 70.1609C225.348 70.1666 225.28 70.262 225.253 70.447C225.224 70.5954 225.211 70.7062 225.215 70.7794C225.234 71.1456 224.992 72.1313 224.489 73.7365L224.078 75.3552C223.507 77.7717 223.104 79.5369 222.869 80.6508C222.67 81.7627 222.591 82.7031 222.631 83.4721C222.679 84.3875 222.673 84.9753 222.613 85.2354C222.59 85.4937 222.454 85.7027 222.206 85.8626Z" fill="url(#paint9_linear)"/>
<path d="M230.581 82.8352C230.166 82.6366 229.862 82.4322 229.667 82.2221C229.509 82.0101 229.42 81.7027 229.399 81.2999C229.36 80.5676 229.518 79.3843 229.873 77.7502C229.935 76.829 230.007 76.0909 230.088 75.5359C230.204 74.9424 230.412 74.3624 230.713 73.7959C230.83 73.2389 231.043 72.4016 231.352 71.284C232.023 68.6786 232.469 66.6725 232.689 65.2657C232.94 64.4448 233.159 63.7174 233.346 63.0834C233.533 62.4494 233.704 61.8713 233.861 61.3491C233.799 61.5726 234.191 60.3036 235.038 57.5422C235.285 56.6481 235.451 55.9601 235.536 55.4783C235.852 53.8095 236.244 52.5405 236.713 51.6715C236.95 51.2919 237.117 50.9711 237.213 50.709C237.346 50.445 237.464 50.2369 237.566 50.0847C237.562 50.0114 237.614 49.9536 237.722 49.9113C237.828 49.8323 237.954 49.7889 238.101 49.7813C238.54 49.7582 238.914 49.8855 239.222 50.1631C239.402 50.0803 239.633 50.2885 239.916 50.7877C240.236 51.2849 240.385 51.681 240.364 51.9758C240.389 52.4519 240.284 52.898 240.049 53.3142C239.91 53.4683 239.759 53.7516 239.597 54.164C239.433 54.5397 239.285 54.8596 239.152 55.1236C239.092 55.3837 238.987 55.8299 238.837 56.4619C238.721 57.0555 238.6 57.5575 238.475 57.9679C238.315 58.4169 238.154 58.8476 237.992 59.26C237.865 59.6338 237.754 59.9701 237.659 60.2688C237.538 60.7525 237.319 61.4799 237.003 62.4511C236.555 63.7229 236.258 64.7115 236.112 65.4168C236.05 65.6404 235.946 66.1048 235.799 66.8101C235.382 68.6678 234.958 70.0302 234.526 70.8973C234.258 71.3887 234.072 72.041 233.968 72.8542C233.9 73.6655 233.853 74.1637 233.826 74.3487C233.363 76.0252 233.139 77.0099 233.155 77.3029C233.099 77.6363 233.004 78.2838 232.871 79.2454C232.713 80.4286 232.537 81.2823 232.344 81.8065C232.315 82.6525 232.062 83.0879 231.586 83.1129C231.294 83.1282 230.958 83.0357 230.581 82.8352Z" fill="url(#paint10_linear)"/>
<path d="M250.644 96.6541C250.233 96.5287 249.813 96.2203 249.383 95.7288C248.956 95.2739 248.733 94.8816 248.716 94.5521C248.687 94.0028 248.958 92.1711 249.529 89.057C250.103 85.9794 250.687 83.4704 251.283 81.5299C251.312 81.3815 251.518 80.7649 251.902 79.68C252.286 78.5951 252.64 77.2914 252.964 75.769C253.201 74.6918 253.862 72.5827 254.945 69.4417L256.331 65.4036L257.413 61.8771C257.507 61.5785 257.677 61.3126 257.922 61.0794C258.201 60.8078 258.449 60.6295 258.665 60.5448C258.736 60.5043 258.863 60.4793 259.046 60.4697C259.559 60.4429 260.014 60.7128 260.411 61.2794C260.532 61.4934 260.598 61.7102 260.61 61.9299C260.629 62.2961 260.447 63.0216 260.063 64.1065L259.736 65.2251L261.69 64.6821C262.203 64.6553 262.625 64.6515 262.957 64.6708C264.275 64.6018 265.101 64.5952 265.434 64.6512C266.241 64.6456 266.817 64.7623 267.16 65.0013C267.539 65.2384 267.908 65.623 268.267 66.155C268.958 66.7429 269.353 67.273 269.451 67.7451C269.548 68.1807 269.602 68.5266 269.616 68.783C269.677 69.9547 269.393 71.1812 268.762 72.4627C268.13 73.7075 267.354 74.6661 266.435 75.3384C266.076 75.5041 265.773 75.6669 265.524 75.8268C265.275 75.9867 265.115 76.0868 265.044 76.1273C264.986 76.4241 264.169 76.9442 262.592 77.6877C261.05 78.3927 259.771 78.8453 258.753 79.0455C258.391 79.138 257.972 79.1966 257.496 79.2216C257.093 79.2427 256.779 79.2041 256.553 79.1057C256.11 79.0555 255.815 79.0343 255.669 79.0419C255.559 79.0477 255.508 79.1238 255.515 79.2703C254.742 82.0279 254.121 84.5388 253.652 86.8031C252.574 90.7516 251.846 93.3233 251.468 94.518C251.092 95.7494 250.817 96.4614 250.644 96.6541ZM256.447 76.0271C256.491 76.1716 256.697 76.2343 257.063 76.2151C257.832 76.1748 258.985 75.7656 260.523 74.9873C262.096 74.1706 263.32 73.3537 264.195 72.5368C264.916 71.5811 265.462 70.7998 265.835 70.1928C266.241 69.5473 266.436 69.0598 266.419 68.7302C266.411 68.5837 266.33 68.4411 266.176 68.3023C265.781 67.7723 265.108 67.5322 264.156 67.5821C262.947 67.6454 261.525 68.1789 259.888 69.1826C259.17 69.4773 258.657 69.853 258.35 70.3096C258.079 70.7278 257.831 71.2548 257.607 71.8907C257.383 72.5266 257.207 73.0132 257.078 73.3504C256.565 74.7725 256.355 75.6648 256.447 76.0271Z" fill="url(#paint11_linear)"/>
<path d="M273.457 81.1939C273.335 80.98 273.141 80.7699 272.873 80.5636C272.64 80.3188 272.521 80.1598 272.518 80.0866C272.497 79.6838 272.389 79.3774 272.194 79.1673C272.117 79.0979 272.072 78.935 272.058 78.6787C272.028 78.0928 272.25 77.0898 272.727 75.6696C273.238 74.2108 273.908 72.6336 274.737 70.9379C274.945 70.7067 275.199 70.3078 275.5 69.7413C275.838 69.1729 276.059 68.8492 276.165 68.7702C276.158 68.6237 276.206 68.4927 276.31 68.3771C276.412 68.2248 276.536 68.1449 276.683 68.1372L276.666 67.8077C276.648 67.4781 277.211 66.6592 278.354 65.3509C279.496 64.006 280.438 63.0754 281.182 62.5591C282.065 61.8886 282.982 61.5285 283.934 61.4786C284.593 61.444 285.171 61.5974 285.666 61.9386C285.86 62.1487 286.744 62.8918 288.316 64.1679L290.443 65.8739L289.599 68.672C289.321 69.6779 289.203 70.5836 289.245 71.3892C289.318 72.7806 289.791 74.096 290.664 75.3354C290.868 75.7286 291.254 76.0938 291.823 76.4312C292.391 76.7686 292.952 76.9595 293.505 77.004C294.318 77.1082 294.742 77.4899 294.777 78.149C294.815 78.8813 294.509 79.338 293.857 79.519C293.713 79.5633 293.494 79.5931 293.201 79.6084C291.041 79.7217 289.093 78.2999 287.36 75.3433C287.202 75.1313 286.979 74.7391 286.692 74.1666C286.442 73.5923 286.293 73.1962 286.244 72.9784C286.04 73.2829 285.784 73.6451 285.475 74.0652C285.167 74.4852 284.874 74.8494 284.596 75.1577C280.814 79.358 277.77 81.5187 275.463 81.6396C274.731 81.6779 274.062 81.5294 273.457 81.1939ZM275.273 78.0145C275.283 78.1976 275.468 78.2429 275.831 78.1505C276.23 78.0562 276.696 77.8482 277.23 77.5264C277.801 77.2028 278.366 76.7876 278.927 76.2809C281.934 73.4063 284.081 70.9255 285.367 68.8387L286.471 66.7981C286.065 66.0483 285.652 65.5192 285.231 65.2108C284.81 64.8657 284.434 64.7019 284.104 64.7191C283.335 64.7594 282.178 65.7931 280.632 67.8201C279.084 69.8105 277.701 72.1411 276.482 74.8119C276.185 75.4516 275.926 76.1078 275.704 76.7803C275.48 77.4162 275.337 77.8276 275.273 78.0145Z" fill="url(#paint12_linear)"/>
<path d="M298.095 79.9578C297.79 79.7535 297.578 79.5626 297.459 79.3853C297.339 79.208 297.27 78.9362 297.251 78.5701C297.234 78.2405 297.238 77.9649 297.263 77.7433C297.307 76.4926 297.506 75.0319 297.859 73.3611L298.076 72.2482C298.138 71.327 298.678 69.3711 299.696 66.3804C300.715 63.3896 301.562 61.3442 302.239 60.2439C302.522 60.0455 302.828 59.9376 303.158 59.9203C303.634 59.8954 304.045 60.0391 304.392 60.3513C304.62 60.4863 304.744 60.7552 304.765 61.1579C304.784 61.5241 304.666 62.081 304.412 62.8287C304.192 63.5379 303.789 64.6054 303.203 66.0314C303.072 66.332 302.844 66.8947 302.52 67.7194C302.233 68.5422 302.093 69.0269 302.101 69.1734C302.105 69.2466 302.125 69.2822 302.161 69.2803C302.235 69.2765 302.307 69.2543 302.378 69.2139C302.448 69.1368 302.518 69.0781 302.589 69.0376C302.956 68.3208 303.876 67.3179 305.351 66.029C306.862 64.7381 307.903 63.9309 308.473 63.6072C308.722 63.4473 309.044 63.2836 309.439 63.116C309.834 62.9484 310.103 62.8242 310.245 62.7433C310.816 62.4197 311.504 62.2367 312.31 62.1945C312.822 62.1676 313.266 62.2362 313.642 62.4C314.053 62.5254 314.34 62.749 314.503 63.0709C314.553 63.3253 314.656 63.5219 314.81 63.6607C315 63.7975 315.133 63.8824 315.209 63.9151C315.318 63.9094 315.395 63.9605 315.437 64.0684C315.477 64.1397 315.499 64.1937 315.5 64.2303C315.514 64.4866 315.376 64.6591 315.087 64.7476C314.796 64.7996 314.267 64.8641 313.5 64.941C313.099 64.9987 312.683 65.1123 312.251 65.2818C311.819 65.4513 311.39 65.6574 310.962 65.9001C308.973 67.1793 307.483 68.1753 306.492 68.8882C305.538 69.5991 304.578 70.5489 303.612 71.7378C303.232 72.1983 302.743 73.0134 302.143 74.183C301.9 74.4528 301.661 75.1446 301.426 76.2584C301.225 77.3337 301.131 77.9995 301.145 78.2558C301.114 78.3676 301.052 78.5911 300.96 78.9264C300.865 79.2251 300.716 79.5267 300.511 79.8311C300.103 80.44 299.752 80.7522 299.459 80.7675C299.129 80.7848 298.675 80.5149 298.095 79.9578Z" fill="url(#paint13_linear)"/>
<path d="M323.804 80.4279C323.284 80.3083 322.854 80.1656 322.515 79.9998C322.176 79.834 321.718 79.5092 321.142 79.0253C320.437 78.1811 319.955 77.3985 319.697 76.6777C319.474 75.9184 319.319 74.7148 319.232 73.0671C319.186 72.1883 319.554 69.7457 320.335 65.7393C320.276 65.9995 320.376 65.4618 320.636 64.1264C320.725 63.7178 320.565 63.4692 320.157 63.3804C319.748 63.2917 319.178 63.2665 318.445 63.3049C317.823 63.3375 317.455 63.3201 317.341 63.2526C317.229 63.2218 317.153 63.1707 317.113 63.0994C317.109 63.0261 317.106 62.9712 317.104 62.9346C317.095 62.7515 317.01 62.5356 316.85 62.287C316.811 62.2523 316.79 62.1983 316.786 62.1251C316.777 61.942 316.858 61.7358 317.029 61.5066C317.238 61.2753 317.487 61.1337 317.778 61.0818C317.959 61.0356 318.377 60.9586 319.033 60.8508C319.688 60.743 320.303 60.5639 320.877 60.3135C321.452 60.0631 321.893 59.7279 322.201 59.3079C322.614 58.0746 323.147 56.6881 323.801 55.1484C324.453 53.5722 324.899 52.6309 325.14 52.3245C325.71 52.0009 326.106 51.8333 326.325 51.8218C326.545 51.8103 326.732 51.8739 326.886 52.0127C327.04 52.1515 327.255 52.3972 327.53 52.75C327.571 52.8213 327.669 52.9446 327.825 53.12C327.981 53.2955 328.064 53.4747 328.074 53.6578C328.089 53.9507 327.966 54.3978 327.703 54.999C327.478 55.5983 327.001 56.6514 326.272 58.1583L325.63 59.5688C325.741 59.5996 325.999 59.6045 326.402 59.5834C326.804 59.5623 327.133 59.5267 327.387 59.4767C328.185 59.288 328.932 59.1754 329.628 59.139C329.994 59.1198 330.251 59.1246 330.4 59.1536C331.242 59.1094 331.854 59.2426 332.238 59.5529C332.656 59.8247 332.921 60.3249 333.033 61.0534C333.127 61.4523 333.066 61.6942 332.85 61.7789C332.634 61.8637 332.014 61.9329 330.989 61.9866C326.751 62.3923 324.617 62.6694 324.588 62.8177C324.448 62.9353 324.207 63.5904 323.865 64.7833C323.524 65.9761 323.234 67.1111 322.997 68.1884C322.636 70.4103 322.5 72.3634 322.588 74.0478C322.669 75.5857 322.942 76.5994 323.409 77.089C323.601 77.2625 323.954 77.3358 324.467 77.309C324.979 77.2821 325.524 77.1618 326.1 76.948C326.711 76.6957 327.209 76.3942 327.595 76.0435C328.225 75.4597 328.76 75.1563 329.199 75.1333C329.419 75.1218 329.587 75.1864 329.705 75.3271C329.857 75.4293 329.938 75.5719 329.948 75.755C329.969 76.1578 329.776 76.6819 329.369 77.3274C328.864 78.1984 328.168 78.9325 327.282 79.5297C326.395 80.1269 325.531 80.4476 324.688 80.4917C324.286 80.5128 323.991 80.4916 323.804 80.4279Z" fill="url(#paint14_linear)"/>
<path d="M339.634 92.3758C339.601 92.451 339.432 92.3864 339.128 92.182C338.824 91.9777 338.535 91.7175 338.261 91.4013C338.024 91.0833 337.919 90.8318 337.946 90.6468C337.858 90.3577 337.807 90.1033 337.796 89.8836C337.75 89.0048 338.185 87.495 339.101 85.3541C339.299 84.9398 339.625 84.1517 340.078 82.9897C340.364 82.1303 340.655 81.3807 340.952 80.7409C341.017 80.5906 341.599 79.4219 342.696 77.2348C343.793 75.0478 344.706 72.852 345.435 70.6475C344.847 71.3392 344.123 72.24 343.263 73.3498C342.27 74.7237 341.442 75.74 340.779 76.399C340.151 77.0194 339.561 77.3257 339.01 77.3178C338.343 77.2059 337.783 77.0333 337.331 76.8C336.878 76.5667 336.545 76.1803 336.334 75.6406C336.191 75.0239 336.101 74.3494 336.062 73.617C335.976 71.9693 336.097 69.7232 336.425 66.8788C336.709 65.2851 336.831 64.1221 336.793 63.3898C336.77 62.9504 336.697 62.6054 336.574 62.3548C336.45 62.1043 336.254 61.8576 335.984 61.6147C335.448 61.2022 335.171 60.8128 335.152 60.4466C335.136 60.1537 335.377 59.8474 335.875 59.5276C336.343 59.3561 336.778 59.2599 337.181 59.2388C337.474 59.2234 337.734 59.2832 337.962 59.4182C338.187 59.5165 338.456 59.7411 338.768 60.0919C338.888 60.2692 339.067 60.5352 339.306 60.8899C339.543 61.2079 339.727 61.5837 339.86 62.0174C339.991 62.4144 340.073 62.9241 340.106 63.5466C340.084 63.8415 339.998 65.0026 339.848 67.0299C339.709 67.8817 339.647 68.454 339.662 68.747C339.278 70.5295 339.116 71.9883 339.176 73.1234C339.199 73.5628 339.265 73.7796 339.375 73.7739C340.321 72.9165 341.24 71.877 342.131 70.6554C343.058 69.4319 344.253 67.717 345.716 65.5107C345.849 65.2467 346.098 64.738 346.462 63.9845C346.861 63.1926 347.154 62.4613 347.339 61.7907C347.759 60.7038 348.133 60.1335 348.461 60.0796C348.677 59.9949 349.028 60.0499 349.516 60.2446C350.003 60.4394 350.268 60.5907 350.311 60.6986C350.313 60.7353 350.48 60.7815 350.814 60.8375C351.145 60.8568 351.314 60.9214 351.319 61.0313C351.323 61.1045 351.151 61.6643 350.802 62.7107C350.258 64.2446 350.007 65.0655 350.049 65.1734C350.167 65.3141 349.998 65.9472 349.543 67.0725C349.125 68.196 348.884 68.8512 348.82 69.0381C348.058 72.0154 347.194 74.4472 346.228 76.3337C345.897 77.012 345.119 78.9804 343.894 82.239L343.51 83.3056C343.186 84.1303 342.831 85.0668 342.445 86.1151C342.061 87.2 341.726 88.1539 341.438 88.9767C341.242 89.4276 341.095 89.7841 340.999 90.0462C340.941 90.343 340.879 90.5665 340.814 90.7168C340.777 91.4164 340.639 91.9376 340.4 92.2806L339.634 92.3758Z" fill="url(#paint15_linear)"/>
</g>
<defs>
<linearGradient id="paint0_linear" x1="173" y1="-0.929409" x2="173" y2="56.2432" gradientUnits="userSpaceOnUse">
<stop stop-color="white"/>
<stop offset="1" stop-color="#8477CE"/>
</linearGradient>
<linearGradient id="paint1_linear" x1="173" y1="-0.929409" x2="173" y2="56.2432" gradientUnits="userSpaceOnUse">
<stop stop-color="white"/>
<stop offset="1" stop-color="#8477CE"/>
</linearGradient>
<linearGradient id="paint2_linear" x1="173" y1="-0.929409" x2="173" y2="56.2432" gradientUnits="userSpaceOnUse">
<stop stop-color="white"/>
<stop offset="1" stop-color="#8477CE"/>
</linearGradient>
<linearGradient id="paint3_linear" x1="222.805" y1="60.0855" x2="224.371" y2="89.9672" gradientUnits="userSpaceOnUse">
<stop stop-color="white"/>
<stop offset="1" stop-color="#8477CE"/>
</linearGradient>
<linearGradient id="paint4_linear" x1="222.805" y1="60.0855" x2="224.371" y2="89.9672" gradientUnits="userSpaceOnUse">
<stop stop-color="white"/>
<stop offset="1" stop-color="#8477CE"/>
</linearGradient>
<linearGradient id="paint5_linear" x1="222.805" y1="60.0855" x2="224.371" y2="89.9672" gradientUnits="userSpaceOnUse">
<stop stop-color="white"/>
<stop offset="1" stop-color="#8477CE"/>
</linearGradient>
<linearGradient id="paint6_linear" x1="222.805" y1="60.0855" x2="224.371" y2="89.9672" gradientUnits="userSpaceOnUse">
<stop stop-color="white"/>
<stop offset="1" stop-color="#8477CE"/>
</linearGradient>
<linearGradient id="paint7_linear" x1="222.805" y1="60.0855" x2="224.371" y2="89.9672" gradientUnits="userSpaceOnUse">
<stop stop-color="white"/>
<stop offset="1" stop-color="#8477CE"/>
</linearGradient>
<linearGradient id="paint8_linear" x1="222.805" y1="60.0855" x2="224.371" y2="89.9672" gradientUnits="userSpaceOnUse">
<stop stop-color="white"/>
<stop offset="1" stop-color="#8477CE"/>
</linearGradient>
<linearGradient id="paint9_linear" x1="222.805" y1="60.0855" x2="224.371" y2="89.9672" gradientUnits="userSpaceOnUse">
<stop stop-color="white"/>
<stop offset="1" stop-color="#8477CE"/>
</linearGradient>
<linearGradient id="paint10_linear" x1="222.805" y1="60.0855" x2="224.371" y2="89.9672" gradientUnits="userSpaceOnUse">
<stop stop-color="white"/>
<stop offset="1" stop-color="#8477CE"/>
</linearGradient>
<linearGradient id="paint11_linear" x1="222.805" y1="60.0855" x2="224.371" y2="89.9672" gradientUnits="userSpaceOnUse">
<stop stop-color="white"/>
<stop offset="1" stop-color="#8477CE"/>
</linearGradient>
<linearGradient id="paint12_linear" x1="222.805" y1="60.0855" x2="224.371" y2="89.9672" gradientUnits="userSpaceOnUse">
<stop stop-color="white"/>
<stop offset="1" stop-color="#8477CE"/>
</linearGradient>
<linearGradient id="paint13_linear" x1="222.805" y1="60.0855" x2="224.371" y2="89.9672" gradientUnits="userSpaceOnUse">
<stop stop-color="white"/>
<stop offset="1" stop-color="#8477CE"/>
</linearGradient>
<linearGradient id="paint14_linear" x1="222.805" y1="60.0855" x2="224.371" y2="89.9672" gradientUnits="userSpaceOnUse">
<stop stop-color="white"/>
<stop offset="1" stop-color="#8477CE"/>
</linearGradient>
<linearGradient id="paint15_linear" x1="222.805" y1="60.0855" x2="224.371" y2="89.9672" gradientUnits="userSpaceOnUse">
<stop stop-color="white"/>
<stop offset="1" stop-color="#8477CE"/>
</linearGradient>
<clipPath id="clip0">
<rect width="352" height="105" fill="white"/>
</clipPath>
</defs>
</svg>
