<svg width="362" height="109" viewBox="0 0 362 109" fill="none" xmlns="http://www.w3.org/2000/svg">
<path d="M91.8719 56H95.3119L98.7519 13.28C98.9919 10.56 98.9919 5.68 98.9919 5.68H99.1519C99.1519 5.68 100.912 10.64 102.112 13.28L117.072 45.2H120.592L135.632 13.28C136.912 10.56 138.512 5.84 138.512 5.84H138.672C138.672 5.84 138.672 10.56 138.912 13.28L142.352 56H145.792L141.312 0L137.952 0L121.632 35.2C120.352 37.92 118.912 41.52 118.912 41.52H118.752C118.752 41.52 117.312 37.92 116.032 35.2L99.7119 0L96.3519 0L91.8719 56Z" fill="url(#paint0_linear)"/>
<path d="M171.951 56H175.391V31.2H191.471L204.751 56H208.831L196.271 32.72C195.551 31.36 194.991 30.72 194.991 30.72V30.56C201.551 29.12 206.191 23.12 206.191 15.12C206.191 8.72 203.071 4 198.431 1.68C196.191 0.560002 193.551 0 188.351 0L171.951 0V56ZM175.391 28V3.2H188.191C192.671 3.2 194.431 3.6 196.031 4.32C200.111 6.16 202.591 10.16 202.591 15.12C202.591 22.72 197.951 28 190.591 28H175.391Z" fill="url(#paint1_linear)"/>
<path d="M244.801 56H248.241V3.2H269.121V0L223.921 0V3.2H244.801V56Z" fill="url(#paint2_linear)"/>
<path d="M107.814 98.1673C107.602 98.3253 107.362 98.3011 107.094 98.0949C106.828 97.9252 106.404 97.5436 105.823 96.9499C105.591 96.7417 105.433 96.5297 105.349 96.3138C105.266 96.1345 105.216 95.8802 105.198 95.5506L105.236 94.1717C105.391 93.6129 105.449 92.9673 105.41 92.235C105.395 91.942 105.475 91.0199 105.651 89.4686C105.825 87.8807 105.966 86.735 106.076 86.0316L106.207 85.3639C106.436 84.1402 106.597 83.0119 106.69 81.9789C106.935 81.0482 107.126 80.1386 107.263 79.2502C107.435 78.3233 107.512 77.695 107.495 77.3655C107.46 76.7064 107.692 76.217 108.189 75.8972C108.21 75.6023 108.453 74.9837 108.918 74.0415C109.666 71.5055 110.214 69.696 110.561 68.613C110.943 67.4915 111.351 66.5155 111.784 65.685C112.348 63.8196 112.818 62.6384 113.196 62.1413C113.42 61.5054 114.067 60.5535 115.139 59.2856C116.211 58.0178 117.167 56.9947 118.007 56.2163C118.79 55.7347 119.416 55.4265 119.887 55.2917C120.392 55.1184 121.01 55.0125 121.742 54.9741C122.365 54.9415 122.79 54.9927 123.017 55.1276C123.279 55.2241 123.698 55.5142 124.275 55.998C124.779 56.5223 125.073 56.8741 125.156 57.0533C125.275 57.2307 125.349 57.5756 125.375 58.0883C125.269 58.8649 124.955 59.8727 124.432 61.1118C123.91 62.3508 123.503 62.9963 123.212 63.0483C123.104 63.0907 122.959 63.1167 122.776 63.1263C122.226 63.155 121.928 62.7117 121.88 61.7963C121.868 61.5766 121.802 61.3598 121.68 61.1459C121.559 60.9319 121.478 60.7893 121.438 60.718C121.409 60.1687 121.513 59.7043 121.75 59.3247C121.849 59.0993 121.893 58.895 121.883 58.7119C121.874 58.5288 121.795 58.4228 121.646 58.3939C121.533 58.3264 121.35 58.336 121.097 58.4226C120.777 58.623 119.988 59.3253 118.729 60.5295C117.505 61.6951 116.899 62.3878 116.91 62.6075C116.878 62.6827 116.778 62.8898 116.612 63.2289C116.481 63.5296 116.262 63.8899 115.953 64.3099C115.342 65.2599 115.042 65.8447 115.054 66.0644C115.079 66.5404 114.981 66.7842 114.762 66.7957C114.729 66.8709 114.649 67.0953 114.522 67.4692C114.429 67.8045 114.283 68.1793 114.085 68.5936C113.956 68.9308 113.792 69.3066 113.593 69.7209C113.395 70.1352 113.226 70.4194 113.087 70.5735L113.142 70.5706C113.047 70.8693 112.875 71.4291 112.624 72.25C112.372 73.0343 112.248 73.4814 112.254 73.5913C112.261 73.7377 112.522 73.7975 113.034 73.7707C114.169 73.7112 115.459 73.4417 116.902 72.9621C117.371 72.7907 117.715 72.6992 117.934 72.6877C118.191 72.6743 118.561 72.7283 119.044 72.8499C119.461 73.0851 119.812 73.4889 120.099 74.0613C120.386 74.6337 120.462 75.0336 120.327 75.261C120.298 75.4094 119.906 75.6319 119.151 75.9285C118.432 76.2232 117.673 76.4649 116.875 76.6536C115.754 76.9694 114.83 77.2014 114.103 77.3496C113.922 77.3958 113.342 77.5364 112.363 77.7713C111.42 78.0043 110.953 78.194 110.961 78.3404C110.814 78.3481 110.69 78.4281 110.588 78.5803C110.485 78.7325 110.438 78.8819 110.446 79.0283C110.473 79.541 110.42 79.9293 110.287 80.1933C110.132 80.7521 109.866 81.9777 109.488 83.8701C109.145 85.7239 108.984 86.8706 109.007 87.31C108.734 87.6915 108.622 88.3583 108.672 89.3103C108.473 89.7246 108.387 90.188 108.414 90.7007C108.426 90.9204 108.417 91.1044 108.388 91.2528C108.397 91.4359 108.384 91.8772 108.347 92.5767C108.31 93.2763 108.307 93.919 108.338 94.5049L108.257 96.1063C108.243 96.5476 108.209 96.9533 108.155 97.3233C108.101 97.6933 107.987 97.9746 107.814 98.1673Z" fill="url(#paint3_linear)"/>
<path d="M121.974 89.6045C121.853 89.3905 121.658 89.1804 121.39 88.9742C121.157 88.7294 121.039 88.5704 121.035 88.4971C121.014 88.0944 120.906 87.7879 120.711 87.5778C120.634 87.5084 120.589 87.3456 120.575 87.0892C120.545 86.5034 120.768 85.5003 121.244 84.0801C121.755 82.6214 122.425 81.0442 123.254 79.3484C123.462 79.1172 123.717 78.7184 124.017 78.1519C124.355 77.5834 124.576 77.2597 124.682 77.1807C124.675 77.0342 124.723 76.9032 124.827 76.7876C124.929 76.6354 125.054 76.5554 125.2 76.5478L125.183 76.2182C125.166 75.8887 125.728 75.0697 126.872 73.7615C128.013 72.4166 128.955 71.486 129.699 70.9696C130.582 70.2992 131.499 69.939 132.451 69.8891C133.111 69.8546 133.688 70.0079 134.183 70.3491C134.378 70.5592 135.261 71.3024 136.833 72.5785L138.96 74.2845L138.116 77.0825C137.838 78.0885 137.72 78.9942 137.762 79.7997C137.835 81.1912 138.308 82.5066 139.181 83.7459C139.385 84.1391 139.771 84.5044 140.34 84.8418C140.908 85.1791 141.469 85.3701 142.022 85.4145C142.835 85.5188 143.259 85.9004 143.294 86.5595C143.332 87.2919 143.026 87.7485 142.374 87.9295C142.23 87.9738 142.011 88.0036 141.718 88.019C139.558 88.1322 137.611 86.7105 135.877 83.7539C135.719 83.5418 135.496 83.1496 135.209 82.5772C134.959 82.0028 134.81 81.6068 134.762 81.389C134.557 81.6934 134.301 82.0557 133.992 82.4757C133.684 82.8958 133.391 83.2599 133.113 83.5682C129.331 87.7686 126.287 89.9292 123.98 90.0501C123.248 90.0885 122.579 89.94 121.974 89.6045ZM123.79 86.4251C123.8 86.6082 123.986 86.6535 124.348 86.5611C124.747 86.4667 125.213 86.2587 125.747 85.937C126.318 85.6134 126.883 85.1982 127.444 84.6915C130.451 81.8168 132.598 79.3361 133.884 77.2493L134.988 75.2086C134.582 74.4589 134.169 73.9298 133.749 73.6214C133.327 73.2763 132.951 73.1124 132.621 73.1297C131.852 73.17 130.695 74.2036 129.149 76.2307C127.601 78.2211 126.218 80.5517 124.999 83.2224C124.702 83.8622 124.443 84.5183 124.221 85.1908C123.997 85.8268 123.854 86.2382 123.79 86.4251Z" fill="url(#paint4_linear)"/>
<path d="M148.82 88.4729C148.601 88.4844 148.286 88.4275 147.875 88.3021C147.465 88.1768 147.202 88.0621 147.086 87.958C146.701 87.611 146.495 87.1995 146.471 86.7235C146.428 85.9179 146.78 84.9265 147.526 83.7492C147.723 83.2982 148.193 81.7499 148.935 79.1041L149.875 76.0256C149.916 75.3993 149.856 74.9618 149.696 74.7132C149.535 74.4279 149.215 74.2795 148.737 74.2678L148.407 74.2851C148.078 74.3024 147.855 74.2589 147.739 74.1549C147.622 74.0141 147.549 73.6692 147.52 73.1199C147.534 72.6786 147.626 72.3433 147.798 72.114C147.969 71.8847 148.267 71.6121 148.691 71.2961C149.262 70.9725 149.858 70.7944 150.481 70.7617C151.067 70.731 151.513 70.8362 151.819 71.0771C152.046 71.2121 152.21 71.534 152.31 72.0427C152.445 72.513 152.527 73.0228 152.556 73.572C152.619 74.0827 152.675 74.447 152.723 74.6647C152.896 74.4721 153.317 74.0829 153.984 73.4972C154.685 72.8729 155.279 72.291 155.765 71.7516C156.364 71.2795 157.056 70.821 157.841 70.376C158.625 69.931 159.182 69.6999 159.512 69.6826C159.914 69.6615 160.323 69.7503 160.737 69.9488C161.15 70.1108 161.437 70.3344 161.598 70.6197C161.959 71.1883 162.151 71.7106 162.176 72.1866C162.203 72.6992 162.029 73.2224 161.653 73.7561C161.344 74.1762 160.939 74.5095 160.438 74.7561C159.937 75.0026 159.577 75.1317 159.357 75.1432C159.137 75.1547 158.854 75.0043 158.507 74.692C158.161 74.3798 157.963 74.1147 157.915 73.897C157.907 73.7505 157.447 74.0684 156.533 74.8506C155.654 75.5943 154.972 76.2359 154.486 76.7754C153.936 77.5018 153.38 78.4489 152.817 79.6166C152.291 80.7824 151.502 82.5494 150.451 84.9177C150.355 85.1797 150.131 85.8157 149.78 86.8254C149.628 87.4209 149.485 87.8506 149.352 88.1146C149.217 88.342 149.04 88.4614 148.82 88.4729Z" fill="url(#paint5_linear)"/>
<path d="M170.743 89.1966C169.168 89.2791 167.837 88.7614 166.751 87.6434C165.664 86.5254 165.075 85.0876 164.983 83.33C164.891 81.5724 165.174 79.6299 165.834 77.5025C166.528 75.3365 167.454 73.3787 168.61 71.6291C169.767 69.8795 170.971 68.6782 172.222 68.0252C172.933 67.584 173.746 67.3394 174.662 67.2915C175.357 67.255 176.155 67.4151 177.055 67.7719C177.691 67.9955 178.183 68.2818 178.532 68.6307C178.881 68.9796 179.203 69.5318 179.5 70.2873C179.644 70.9407 179.723 71.3955 179.737 71.6518C179.748 71.8715 179.682 72.3523 179.537 73.0943C179.168 74.4721 178.643 75.6562 177.961 76.6466C177.313 77.5985 176.439 78.4337 175.338 79.1523C174.772 79.5492 174.049 79.7706 173.17 79.8167C172.401 79.857 171.662 79.7672 170.953 79.5474C170.278 79.289 169.744 78.8947 169.349 78.3647L168.941 77.9454L168.8 78.3935C168.134 80.4111 167.838 82.1156 167.911 83.507C167.961 84.459 168.184 85.2184 168.581 85.785C168.858 86.1744 169.492 86.3431 170.48 86.2913C171.212 86.253 171.74 86.1519 172.061 85.9882C172.601 85.7763 173.066 85.5316 173.455 85.2542C173.879 84.9383 174.285 84.6233 174.672 84.3092L174.886 84.1879L174.831 84.1907C175.259 83.948 175.615 83.7274 175.898 83.529C176.181 83.3306 176.376 83.1919 176.482 83.1129C176.555 83.109 176.628 83.0869 176.699 83.0464C176.77 83.006 176.84 82.9289 176.907 82.8152C177.229 82.6515 177.616 82.6863 178.069 82.9195C178.522 83.1528 178.759 83.4709 178.78 83.8736C178.722 84.1704 178.418 84.6637 177.866 85.3535C177.315 86.0433 176.894 86.4142 176.603 86.4661C176.566 86.4681 176.441 86.5297 176.227 86.6511C176.013 86.7724 175.871 86.8716 175.802 86.9487L175.857 86.9458C175.55 87.4025 175.232 87.6395 174.903 87.6567L174.463 87.6798C174.332 87.9804 173.853 88.2992 173.026 88.6363C172.236 88.9714 171.475 89.1582 170.743 89.1966ZM172.581 76.9836C173.679 76.9261 174.654 76.2508 175.504 74.9579C176.321 73.7401 176.699 72.5453 176.638 71.3736C176.605 70.7511 176.454 70.3185 176.184 70.0756C175.959 69.9772 175.755 69.9329 175.572 69.9425C175.388 69.9521 175.08 70.0233 174.646 70.1562C174.176 70.291 173.471 70.842 172.53 71.8092C171.587 72.7398 170.896 73.5654 170.457 74.2861L169.803 75.4769C170.09 75.3517 170.362 75.2824 170.618 75.269C170.91 75.217 171.075 75.2267 171.116 75.298C171.143 75.8106 171.293 76.225 171.566 76.5411C171.84 76.8572 172.178 77.0047 172.581 76.9836Z" fill="url(#paint6_linear)"/>
<path d="M199.167 85.9445C198.658 86.0446 197.785 85.5029 196.548 84.3193C196.194 83.8606 195.877 83.0694 195.598 81.9458C195.353 80.7837 195.16 79.5454 195.018 78.2311C192.355 82.7767 190.142 85.3894 188.379 86.0693C188.271 86.1117 188.125 86.1376 187.942 86.1472C187.54 86.1683 187.217 85.965 186.974 85.5371C186.774 85.2171 186.586 84.7864 186.411 84.2448C186.233 83.6666 186.149 83.1019 186.157 82.5508C185.818 80.2921 185.597 78.1741 185.493 76.1968C185.405 74.5124 185.438 73.3908 185.592 72.832C185.548 72.6874 185.523 72.5602 185.517 72.4504C185.509 72.3039 185.505 72.2124 185.503 72.1758C185.424 72.0698 185.371 71.7604 185.344 71.2478C185.311 70.6253 185.312 69.946 185.347 69.2098C185.419 68.4717 185.506 68.0266 185.608 67.8744C185.669 67.6508 185.917 67.4726 186.351 67.3398C186.906 67.4208 187.21 67.6252 187.264 67.9528C187.339 67.9856 187.436 68.0723 187.553 68.213C187.707 68.3518 187.857 68.3991 188.001 68.3548C188.229 68.4897 188.391 69.4909 188.489 71.3584C188.464 71.58 188.46 71.8556 188.477 72.1851C188.529 72.4761 188.559 72.6949 188.567 72.8413C188.578 73.061 188.568 73.2084 188.535 73.2836C188.573 74.0159 188.681 75.02 188.858 76.2958C188.898 77.0648 188.913 77.6882 188.901 78.1661L188.95 80.1463C189.1 80.9095 189.216 81.3807 189.299 81.5599C189.419 81.7373 189.584 81.7469 189.796 81.589C190.155 81.4233 191.134 79.7931 192.734 76.6985C193.982 74.577 194.776 73.2686 195.117 72.7734C195.206 71.6672 195.34 70.3751 195.52 68.897C196.036 68.2458 196.514 67.9086 196.954 67.8856C197.32 67.8664 197.625 68.0707 197.867 68.4986C198.393 68.7281 198.671 69.1174 198.7 69.6667C198.713 69.923 198.704 70.107 198.673 70.2188L198.005 73.2279C197.799 74.1934 197.748 75.683 197.854 77.6969C197.95 79.5278 198.128 80.8219 198.388 81.5793C198.403 81.8722 198.575 82.0101 198.905 81.9928C199.271 81.9736 199.735 81.7107 200.296 81.2039C201.057 80.3195 201.912 79.1182 202.86 77.5998C203.844 76.0428 204.328 75.1179 204.312 74.825C204.297 74.5321 204.354 74.217 204.483 73.8798C204.61 73.5059 204.779 73.2217 204.989 73.0271C205.126 72.8363 205.223 72.5926 205.281 72.2958C205.339 71.999 205.4 71.7572 205.463 71.5703C205.496 71.4951 205.528 71.4017 205.559 71.2899C205.624 71.1396 205.689 70.971 205.753 70.7841L205.689 70.6222C205.679 70.4391 205.797 70.231 206.042 69.9978C206.285 69.7281 206.422 69.5373 206.453 69.4256C206.532 68.8339 206.828 68.5247 207.34 68.4978C207.633 68.4825 207.914 68.5963 208.184 68.8391C208.489 69.0435 208.67 69.3461 208.727 69.747C208.764 70.4427 208.51 71.5575 207.966 73.0914C207.421 74.5886 206.793 75.925 206.084 77.1004C206.018 77.2507 205.922 77.5128 205.794 77.8866C205.665 78.2238 205.432 78.6767 205.095 79.2451C204.792 79.775 204.333 80.4783 203.718 81.355C203.207 82.1161 202.707 82.7298 202.217 83.1961C201.568 84.1113 201.015 84.7828 200.561 85.2106C200.106 85.6383 199.641 85.8829 199.167 85.9445Z" fill="url(#paint7_linear)"/>
<path d="M215.472 85.3654C214.276 84.9508 213.42 84.3898 212.906 83.6824C212.389 82.9384 212.096 81.889 212.025 80.5342C211.99 79.8751 212.005 79.1033 212.068 78.2187L212.075 76.2357C212.057 75.9061 212.007 75.6517 211.925 75.4725C211.842 75.2932 211.666 75.1005 211.399 74.8942C211.322 74.8248 211.129 74.6513 210.821 74.3737C210.512 74.0962 210.372 73.8649 210.399 73.6799L210.329 73.4081C210.316 73.1518 210.34 72.9119 210.402 72.6884C210.5 72.4629 210.604 72.3473 210.714 72.3415C210.824 72.3358 210.969 72.3098 211.151 72.2636C211.33 72.1808 211.494 72.1538 211.642 72.1828C212.155 72.1559 212.417 72.2523 212.428 72.472C212.59 72.7573 212.83 72.7814 213.148 72.5444C213.501 72.2689 213.824 71.7747 214.117 71.0617C214.587 70.2293 215.294 69.3478 216.236 68.4171C217.214 67.448 218.022 66.7631 218.662 66.3624C218.911 66.2025 219.325 66.0523 219.905 65.9117C220.483 65.7345 220.992 65.6344 221.432 65.6114C222.091 65.5769 222.666 65.6936 223.157 65.9616C223.685 66.2276 224.22 66.6219 224.761 67.1442C225.484 67.6204 225.874 68.4077 225.932 69.5062C225.972 70.2752 225.83 71.072 225.506 71.8968C225.388 72.4537 224.839 73.1801 223.858 74.076C222.913 74.97 222.029 75.6038 221.204 75.9775C220.192 76.2876 219.027 76.4771 217.709 76.5462C216.83 76.5923 216.259 76.5488 215.995 76.4158C215.542 76.1825 215.282 77.1874 215.216 79.4306C215.193 79.6889 215.193 80.0377 215.216 80.4771C215.249 81.0996 215.366 81.5891 215.568 81.9456C215.607 81.9803 215.743 82.1201 215.976 82.3649C216.207 82.5731 216.492 82.7601 216.831 82.9259C217.169 83.0551 217.52 83.1101 217.886 83.0909C218.216 83.0736 218.47 83.0236 218.65 82.9407C219.047 82.8098 219.421 82.5882 219.771 82.2761C220.12 81.9274 220.607 81.4062 221.232 80.7126C221.787 80.096 222.187 79.6711 222.432 79.438C222.597 79.0989 222.955 78.9149 223.504 78.8861C223.651 78.8785 223.909 78.9016 224.279 78.9557C224.622 79.1947 224.801 79.4607 224.816 79.7536C224.832 80.0466 224.677 80.6054 224.353 81.4302C224.19 81.8059 223.759 82.3425 223.061 83.04C222.398 83.699 221.801 84.2259 221.271 84.6208C220.169 85.3028 219.05 85.6735 217.915 85.733C217.219 85.7695 216.405 85.6469 215.472 85.3654ZM218.128 74.0458C218.491 73.9534 219.017 73.834 219.707 73.6877C220.397 73.5414 220.952 73.2737 221.372 72.8845C221.827 72.4568 222.341 71.7506 222.913 70.7659C223.008 70.4672 223.047 70.1714 223.032 69.8785C223.003 69.3292 222.873 68.9505 222.642 68.7423C222.372 68.4995 222.073 68.3867 221.743 68.4039C221.23 68.4308 220.711 68.6783 220.185 69.1465C219.824 69.2755 219.296 69.7071 218.6 70.4412C217.941 71.1734 217.373 71.9007 216.897 72.6233C216.419 73.3093 216.275 73.7024 216.463 73.8026C216.396 73.9163 216.584 73.9983 217.027 74.0485C217.468 74.0621 217.835 74.0612 218.128 74.0458Z" fill="url(#paint8_linear)"/>
<path d="M231.206 85.8626C231.098 85.905 230.915 85.9329 230.659 85.9463C230.073 85.977 229.6 85.7081 229.24 85.1395C228.88 84.5709 228.673 83.774 228.619 82.7487C228.575 81.9065 228.634 80.9305 228.796 79.8205C229.143 78.7375 229.304 77.958 229.279 77.482C229.353 76.7805 229.654 75.5163 230.182 73.6895C230.745 71.8241 231.109 70.7036 231.273 70.3278C231.419 70.3201 231.541 70.2036 231.64 69.9781C231.736 69.7161 231.777 69.4386 231.761 69.1456C231.744 68.8161 231.782 68.4837 231.874 68.1483C232.002 67.7745 232.135 67.5105 232.273 67.3564C232.268 67.2465 232.294 67.0432 232.352 66.7464C232.446 66.4478 232.491 66.2435 232.485 66.1336C232.481 66.0604 232.511 65.9303 232.574 65.7434C232.673 65.518 232.719 65.3503 232.713 65.2405C233.24 64.0746 234.132 61.4761 235.389 57.4447C236.644 53.3768 237.261 51.1231 237.238 50.6837C237.207 50.0979 237.485 49.7896 238.07 49.7589C238.244 49.5662 238.532 49.4593 238.935 49.4382L239.86 50.2709C240.129 50.5138 240.309 50.7798 240.397 51.0689C240.484 51.3214 240.542 51.7222 240.57 52.2715C240.599 52.8207 240.551 53.3006 240.425 53.711C240.3 54.1215 239.977 54.9645 239.457 56.2402C239.36 56.5023 239.23 56.8212 239.066 57.197C238.9 57.5361 238.721 57.9677 238.528 58.4919C238.464 58.6788 238.206 59.3532 237.753 60.5152C237.425 61.2667 237.264 61.6974 237.27 61.8073C237.276 61.9171 237.215 62.159 237.088 62.5328C236.958 62.87 236.848 63.2246 236.758 63.5965C236.496 64.1977 236.074 65.2663 235.494 66.8021C234.948 68.2993 234.679 69.1212 234.687 69.2677C234.708 69.6705 234.632 69.9682 234.458 70.1609C234.348 70.1666 234.28 70.262 234.253 70.447C234.224 70.5954 234.211 70.7062 234.215 70.7794C234.234 71.1456 233.992 72.1313 233.489 73.7365L233.078 75.3552C232.507 77.7717 232.104 79.5369 231.869 80.6508C231.67 81.7627 231.591 82.7031 231.631 83.4721C231.679 84.3875 231.673 84.9753 231.613 85.2354C231.59 85.4937 231.454 85.7027 231.206 85.8626Z" fill="url(#paint9_linear)"/>
<path d="M239.581 82.8352C239.166 82.6366 238.862 82.4322 238.667 82.2221C238.509 82.0101 238.42 81.7027 238.399 81.2999C238.36 80.5676 238.518 79.3843 238.873 77.7502C238.935 76.829 239.007 76.0909 239.088 75.5359C239.204 74.9424 239.412 74.3624 239.713 73.7959C239.83 73.2389 240.043 72.4016 240.352 71.284C241.023 68.6786 241.469 66.6725 241.689 65.2657C241.94 64.4448 242.159 63.7174 242.346 63.0834C242.533 62.4494 242.704 61.8713 242.861 61.3491C242.799 61.5726 243.191 60.3036 244.038 57.5422C244.285 56.6481 244.451 55.9601 244.536 55.4783C244.852 53.8095 245.244 52.5405 245.713 51.6715C245.95 51.2919 246.117 50.9711 246.213 50.709C246.346 50.445 246.464 50.2369 246.566 50.0847C246.562 50.0114 246.614 49.9536 246.722 49.9113C246.828 49.8323 246.954 49.7889 247.101 49.7813C247.54 49.7582 247.914 49.8855 248.222 50.1631C248.402 50.0803 248.633 50.2885 248.916 50.7877C249.236 51.2849 249.385 51.681 249.364 51.9758C249.389 52.4519 249.284 52.898 249.049 53.3142C248.91 53.4683 248.759 53.7516 248.597 54.164C248.433 54.5397 248.285 54.8596 248.152 55.1236C248.092 55.3837 247.987 55.8299 247.837 56.4619C247.721 57.0555 247.6 57.5575 247.475 57.9679C247.315 58.4169 247.154 58.8476 246.992 59.26C246.865 59.6338 246.754 59.9701 246.659 60.2688C246.538 60.7525 246.319 61.4799 246.003 62.4511C245.555 63.7229 245.258 64.7115 245.112 65.4168C245.05 65.6404 244.946 66.1048 244.799 66.8101C244.382 68.6678 243.958 70.0302 243.526 70.8973C243.258 71.3887 243.072 72.041 242.968 72.8542C242.9 73.6655 242.853 74.1637 242.826 74.3487C242.363 76.0252 242.139 77.0099 242.155 77.3029C242.099 77.6363 242.004 78.2838 241.871 79.2454C241.713 80.4286 241.537 81.2823 241.344 81.8065C241.315 82.6525 241.062 83.0879 240.586 83.1129C240.294 83.1282 239.958 83.0357 239.581 82.8352Z" fill="url(#paint10_linear)"/>
<path d="M259.644 96.6541C259.233 96.5287 258.813 96.2203 258.383 95.7288C257.956 95.2739 257.733 94.8816 257.716 94.5521C257.687 94.0028 257.958 92.1711 258.529 89.057C259.103 85.9794 259.687 83.4704 260.283 81.5299C260.312 81.3815 260.518 80.7649 260.902 79.68C261.286 78.5951 261.64 77.2914 261.964 75.769C262.201 74.6918 262.862 72.5827 263.945 69.4417L265.331 65.4036L266.413 61.8771C266.507 61.5785 266.677 61.3126 266.922 61.0794C267.201 60.8078 267.449 60.6295 267.665 60.5448C267.736 60.5043 267.863 60.4793 268.046 60.4697C268.559 60.4429 269.014 60.7128 269.411 61.2794C269.532 61.4934 269.598 61.7102 269.61 61.9299C269.629 62.2961 269.447 63.0216 269.063 64.1065L268.736 65.2251L270.69 64.6821C271.203 64.6553 271.625 64.6515 271.957 64.6708C273.275 64.6018 274.101 64.5952 274.434 64.6512C275.241 64.6456 275.817 64.7623 276.16 65.0013C276.539 65.2384 276.908 65.623 277.267 66.155C277.958 66.7429 278.353 67.273 278.451 67.7451C278.548 68.1807 278.602 68.5266 278.616 68.783C278.677 69.9547 278.393 71.1812 277.762 72.4627C277.13 73.7075 276.354 74.6661 275.435 75.3384C275.076 75.5041 274.773 75.6669 274.524 75.8268C274.275 75.9867 274.115 76.0868 274.044 76.1273C273.986 76.4241 273.169 76.9442 271.592 77.6877C270.05 78.3927 268.771 78.8453 267.753 79.0455C267.391 79.138 266.972 79.1966 266.496 79.2216C266.093 79.2427 265.779 79.2041 265.553 79.1057C265.11 79.0555 264.815 79.0343 264.669 79.0419C264.559 79.0477 264.508 79.1238 264.515 79.2703C263.742 82.0279 263.121 84.5388 262.652 86.8031C261.574 90.7516 260.846 93.3233 260.468 94.518C260.092 95.7494 259.817 96.4614 259.644 96.6541ZM265.447 76.0271C265.491 76.1716 265.697 76.2343 266.063 76.2151C266.832 76.1748 267.985 75.7656 269.523 74.9873C271.096 74.1706 272.32 73.3537 273.195 72.5368C273.916 71.5811 274.462 70.7998 274.835 70.1928C275.241 69.5473 275.436 69.0597 275.419 68.7302C275.411 68.5837 275.33 68.4411 275.176 68.3023C274.781 67.7723 274.108 67.5322 273.156 67.5821C271.947 67.6454 270.525 68.1789 268.888 69.1826C268.17 69.4773 267.657 69.853 267.35 70.3096C267.079 70.7278 266.831 71.2548 266.607 71.8907C266.383 72.5266 266.207 73.0132 266.078 73.3504C265.565 74.7725 265.355 75.6648 265.447 76.0271Z" fill="url(#paint11_linear)"/>
<path d="M282.457 81.1939C282.335 80.98 282.141 80.7699 281.873 80.5636C281.64 80.3188 281.521 80.1598 281.518 80.0866C281.497 79.6838 281.389 79.3774 281.194 79.1673C281.117 79.0979 281.072 78.935 281.058 78.6787C281.028 78.0928 281.25 77.0898 281.727 75.6696C282.238 74.2108 282.908 72.6336 283.737 70.9379C283.945 70.7067 284.199 70.3078 284.5 69.7413C284.838 69.1729 285.059 68.8492 285.165 68.7702C285.158 68.6237 285.206 68.4927 285.31 68.3771C285.412 68.2248 285.536 68.1449 285.683 68.1372L285.666 67.8077C285.648 67.4781 286.211 66.6592 287.354 65.3509C288.496 64.006 289.438 63.0754 290.182 62.5591C291.065 61.8886 291.982 61.5285 292.934 61.4786C293.593 61.444 294.171 61.5974 294.666 61.9386C294.86 62.1487 295.744 62.8918 297.316 64.1679L299.443 65.8739L298.599 68.672C298.321 69.6779 298.203 70.5836 298.245 71.3892C298.318 72.7806 298.791 74.096 299.664 75.3354C299.868 75.7286 300.254 76.0938 300.823 76.4312C301.391 76.7686 301.952 76.9595 302.505 77.004C303.318 77.1082 303.742 77.4899 303.777 78.149C303.815 78.8813 303.509 79.338 302.857 79.519C302.713 79.5633 302.494 79.5931 302.201 79.6084C300.041 79.7217 298.093 78.3 296.36 75.3433C296.202 75.1313 295.979 74.7391 295.692 74.1666C295.442 73.5923 295.293 73.1962 295.244 72.9784C295.04 73.2829 294.784 73.6451 294.475 74.0652C294.167 74.4852 293.874 74.8494 293.596 75.1577C289.814 79.358 286.77 81.5187 284.463 81.6396C283.731 81.6779 283.062 81.5294 282.457 81.1939ZM284.273 78.0145C284.283 78.1976 284.468 78.2429 284.831 78.1505C285.23 78.0562 285.696 77.8482 286.23 77.5264C286.801 77.2028 287.366 76.7876 287.927 76.2809C290.934 73.4063 293.081 70.9255 294.367 68.8387L295.471 66.7981C295.065 66.0483 294.652 65.5192 294.231 65.2108C293.81 64.8657 293.434 64.7019 293.104 64.7191C292.335 64.7594 291.178 65.7931 289.632 67.8201C288.084 69.8105 286.701 72.1411 285.482 74.8119C285.185 75.4516 284.926 76.1078 284.704 76.7803C284.48 77.4162 284.337 77.8276 284.273 78.0145Z" fill="url(#paint12_linear)"/>
<path d="M307.095 79.9578C306.79 79.7535 306.578 79.5626 306.459 79.3853C306.339 79.208 306.27 78.9362 306.251 78.5701C306.234 78.2405 306.238 77.9649 306.263 77.7433C306.307 76.4926 306.506 75.0319 306.859 73.3611L307.076 72.2482C307.138 71.327 307.678 69.3711 308.696 66.3804C309.715 63.3896 310.562 61.3442 311.239 60.2439C311.522 60.0455 311.828 59.9376 312.158 59.9203C312.634 59.8954 313.045 60.0391 313.392 60.3513C313.62 60.4863 313.744 60.7552 313.765 61.1579C313.784 61.5241 313.666 62.081 313.412 62.8287C313.192 63.5379 312.789 64.6054 312.203 66.0314C312.072 66.332 311.844 66.8947 311.52 67.7194C311.233 68.5422 311.093 69.0269 311.101 69.1734C311.105 69.2466 311.125 69.2822 311.161 69.2803C311.235 69.2765 311.307 69.2543 311.378 69.2139C311.448 69.1368 311.518 69.0781 311.589 69.0376C311.956 68.3208 312.876 67.3179 314.351 66.029C315.862 64.7381 316.903 63.9309 317.473 63.6072C317.722 63.4473 318.044 63.2836 318.439 63.116C318.834 62.9484 319.103 62.8242 319.245 62.7433C319.816 62.4197 320.504 62.2367 321.31 62.1945C321.822 62.1676 322.266 62.2362 322.642 62.4C323.053 62.5254 323.34 62.749 323.503 63.0709C323.553 63.3253 323.656 63.5219 323.81 63.6607C324 63.7975 324.133 63.8824 324.209 63.9151C324.318 63.9094 324.395 63.9605 324.437 64.0684C324.477 64.1397 324.499 64.1937 324.5 64.2303C324.514 64.4866 324.376 64.6591 324.087 64.7476C323.796 64.7996 323.267 64.8641 322.5 64.941C322.099 64.9987 321.683 65.1123 321.251 65.2818C320.819 65.4513 320.39 65.6574 319.962 65.9001C317.973 67.1793 316.483 68.1753 315.492 68.8882C314.538 69.5991 313.578 70.5489 312.612 71.7378C312.232 72.1983 311.743 73.0134 311.143 74.183C310.9 74.4528 310.661 75.1446 310.426 76.2584C310.225 77.3337 310.131 77.9995 310.145 78.2558C310.114 78.3676 310.052 78.5911 309.96 78.9264C309.865 79.2251 309.716 79.5267 309.511 79.8311C309.103 80.44 308.752 80.7522 308.459 80.7675C308.129 80.7848 307.675 80.5149 307.095 79.9578Z" fill="url(#paint13_linear)"/>
<path d="M332.804 80.4279C332.284 80.3083 331.854 80.1656 331.515 79.9998C331.176 79.834 330.718 79.5092 330.142 79.0253C329.437 78.1811 328.955 77.3985 328.697 76.6777C328.474 75.9184 328.319 74.7148 328.232 73.0671C328.186 72.1883 328.554 69.7457 329.335 65.7393C329.276 65.9995 329.376 65.4618 329.636 64.1264C329.725 63.7178 329.565 63.4692 329.157 63.3804C328.748 63.2917 328.178 63.2665 327.445 63.3049C326.823 63.3375 326.455 63.3201 326.341 63.2526C326.229 63.2218 326.153 63.1707 326.113 63.0994C326.109 63.0261 326.106 62.9712 326.104 62.9346C326.095 62.7515 326.01 62.5356 325.85 62.287C325.811 62.2523 325.79 62.1983 325.786 62.1251C325.777 61.942 325.858 61.7358 326.029 61.5066C326.238 61.2753 326.487 61.1337 326.778 61.0818C326.959 61.0356 327.377 60.9586 328.033 60.8508C328.688 60.743 329.303 60.5639 329.877 60.3135C330.452 60.0631 330.893 59.7279 331.201 59.3079C331.614 58.0746 332.147 56.6881 332.801 55.1484C333.453 53.5722 333.899 52.6309 334.14 52.3245C334.71 52.0009 335.106 51.8333 335.325 51.8218C335.545 51.8103 335.732 51.8739 335.886 52.0127C336.04 52.1515 336.255 52.3972 336.53 52.75C336.571 52.8213 336.669 52.9446 336.825 53.12C336.981 53.2955 337.064 53.4747 337.074 53.6578C337.089 53.9507 336.966 54.3978 336.703 54.999C336.478 55.5983 336.001 56.6514 335.272 58.1583L334.63 59.5688C334.741 59.5996 334.999 59.6045 335.402 59.5834C335.804 59.5623 336.133 59.5267 336.387 59.4767C337.185 59.288 337.932 59.1754 338.628 59.139C338.994 59.1198 339.251 59.1246 339.4 59.1536C340.242 59.1094 340.854 59.2426 341.238 59.5529C341.656 59.8247 341.921 60.3249 342.033 61.0534C342.127 61.4523 342.066 61.6942 341.85 61.7789C341.634 61.8637 341.014 61.9329 339.989 61.9866C335.751 62.3923 333.617 62.6694 333.588 62.8177C333.448 62.9353 333.207 63.5904 332.865 64.7833C332.524 65.9761 332.234 67.1111 331.997 68.1884C331.636 70.4103 331.5 72.3634 331.588 74.0478C331.669 75.5857 331.942 76.5994 332.409 77.089C332.601 77.2625 332.954 77.3358 333.467 77.309C333.979 77.2821 334.524 77.1618 335.1 76.948C335.711 76.6957 336.209 76.3942 336.595 76.0435C337.225 75.4597 337.76 75.1563 338.199 75.1333C338.419 75.1218 338.587 75.1864 338.705 75.3271C338.857 75.4293 338.938 75.5719 338.948 75.755C338.969 76.1578 338.776 76.6819 338.369 77.3274C337.864 78.1984 337.168 78.9325 336.282 79.5297C335.395 80.1269 334.531 80.4476 333.688 80.4917C333.286 80.5128 332.991 80.4916 332.804 80.4279Z" fill="url(#paint14_linear)"/>
<path d="M348.634 92.3758C348.601 92.451 348.432 92.3864 348.128 92.182C347.824 91.9777 347.535 91.7175 347.261 91.4013C347.024 91.0833 346.919 90.8318 346.946 90.6468C346.858 90.3577 346.807 90.1033 346.796 89.8836C346.75 89.0048 347.185 87.495 348.101 85.3541C348.299 84.9398 348.625 84.1517 349.078 82.9897C349.364 82.1303 349.655 81.3807 349.952 80.7409C350.017 80.5906 350.599 79.4219 351.696 77.2348C352.793 75.0478 353.706 72.852 354.435 70.6475C353.847 71.3392 353.123 72.24 352.263 73.3498C351.27 74.7237 350.442 75.74 349.779 76.399C349.151 77.0194 348.561 77.3257 348.01 77.3178C347.343 77.2059 346.783 77.0333 346.331 76.8C345.878 76.5667 345.545 76.1803 345.334 75.6406C345.191 75.0239 345.101 74.3494 345.062 73.617C344.976 71.9693 345.097 69.7232 345.425 66.8788C345.709 65.2851 345.831 64.1221 345.793 63.3898C345.77 62.9504 345.697 62.6054 345.574 62.3548C345.45 62.1043 345.254 61.8576 344.984 61.6147C344.448 61.2022 344.171 60.8128 344.152 60.4466C344.136 60.1537 344.377 59.8474 344.875 59.5276C345.343 59.3561 345.778 59.2599 346.181 59.2388C346.474 59.2234 346.734 59.2832 346.962 59.4182C347.187 59.5165 347.456 59.7411 347.768 60.0919C347.888 60.2692 348.067 60.5352 348.306 60.8899C348.543 61.2079 348.727 61.5837 348.86 62.0174C348.991 62.4144 349.073 62.9241 349.106 63.5466C349.084 63.8415 348.998 65.0026 348.848 67.0299C348.709 67.8817 348.647 68.454 348.662 68.747C348.278 70.5295 348.116 71.9883 348.176 73.1234C348.199 73.5628 348.265 73.7796 348.375 73.7739C349.321 72.9165 350.24 71.877 351.131 70.6554C352.058 69.4319 353.253 67.717 354.716 65.5107C354.849 65.2467 355.098 64.738 355.462 63.9845C355.861 63.1926 356.154 62.4613 356.339 61.7907C356.759 60.7038 357.133 60.1335 357.461 60.0796C357.677 59.9949 358.028 60.0499 358.516 60.2446C359.003 60.4394 359.268 60.5907 359.311 60.6986C359.313 60.7353 359.48 60.7815 359.814 60.8375C360.145 60.8568 360.314 60.9214 360.319 61.0313C360.323 61.1045 360.151 61.6643 359.802 62.7107C359.258 64.2446 359.007 65.0655 359.049 65.1734C359.167 65.3141 358.998 65.9472 358.543 67.0725C358.125 68.196 357.884 68.8512 357.82 69.0381C357.058 72.0154 356.194 74.4472 355.228 76.3337C354.897 77.012 354.119 78.9804 352.894 82.239L352.51 83.3056C352.186 84.1303 351.831 85.0668 351.445 86.1151C351.061 87.2 350.726 88.1539 350.438 88.9767C350.242 89.4276 350.095 89.7841 349.999 90.0462C349.941 90.343 349.879 90.5665 349.814 90.7168C349.777 91.4164 349.639 91.9376 349.4 92.2806L348.634 92.3758Z" fill="url(#paint15_linear)"/>
<defs>
<linearGradient id="paint0_linear" x1="178" y1="-0.929412" x2="178" y2="56.2432" gradientUnits="userSpaceOnUse">
<stop stop-color="white"/>
<stop offset="1" stop-color="#8477CE"/>
</linearGradient>
<linearGradient id="paint1_linear" x1="178" y1="-0.929412" x2="178" y2="56.2432" gradientUnits="userSpaceOnUse">
<stop stop-color="white"/>
<stop offset="1" stop-color="#8477CE"/>
</linearGradient>
<linearGradient id="paint2_linear" x1="178" y1="-0.929412" x2="178" y2="56.2432" gradientUnits="userSpaceOnUse">
<stop stop-color="white"/>
<stop offset="1" stop-color="#8477CE"/>
</linearGradient>
<linearGradient id="paint3_linear" x1="231.805" y1="60.0855" x2="233.371" y2="89.9672" gradientUnits="userSpaceOnUse">
<stop stop-color="white"/>
<stop offset="1" stop-color="#8477CE"/>
</linearGradient>
<linearGradient id="paint4_linear" x1="231.805" y1="60.0855" x2="233.371" y2="89.9672" gradientUnits="userSpaceOnUse">
<stop stop-color="white"/>
<stop offset="1" stop-color="#8477CE"/>
</linearGradient>
<linearGradient id="paint5_linear" x1="231.805" y1="60.0855" x2="233.371" y2="89.9672" gradientUnits="userSpaceOnUse">
<stop stop-color="white"/>
<stop offset="1" stop-color="#8477CE"/>
</linearGradient>
<linearGradient id="paint6_linear" x1="231.805" y1="60.0855" x2="233.371" y2="89.9672" gradientUnits="userSpaceOnUse">
<stop stop-color="white"/>
<stop offset="1" stop-color="#8477CE"/>
</linearGradient>
<linearGradient id="paint7_linear" x1="231.805" y1="60.0855" x2="233.371" y2="89.9672" gradientUnits="userSpaceOnUse">
<stop stop-color="white"/>
<stop offset="1" stop-color="#8477CE"/>
</linearGradient>
<linearGradient id="paint8_linear" x1="231.805" y1="60.0855" x2="233.371" y2="89.9672" gradientUnits="userSpaceOnUse">
<stop stop-color="white"/>
<stop offset="1" stop-color="#8477CE"/>
</linearGradient>
<linearGradient id="paint9_linear" x1="231.805" y1="60.0855" x2="233.371" y2="89.9672" gradientUnits="userSpaceOnUse">
<stop stop-color="white"/>
<stop offset="1" stop-color="#8477CE"/>
</linearGradient>
<linearGradient id="paint10_linear" x1="231.805" y1="60.0855" x2="233.371" y2="89.9672" gradientUnits="userSpaceOnUse">
<stop stop-color="white"/>
<stop offset="1" stop-color="#8477CE"/>
</linearGradient>
<linearGradient id="paint11_linear" x1="231.805" y1="60.0855" x2="233.371" y2="89.9672" gradientUnits="userSpaceOnUse">
<stop stop-color="white"/>
<stop offset="1" stop-color="#8477CE"/>
</linearGradient>
<linearGradient id="paint12_linear" x1="231.805" y1="60.0855" x2="233.371" y2="89.9672" gradientUnits="userSpaceOnUse">
<stop stop-color="white"/>
<stop offset="1" stop-color="#8477CE"/>
</linearGradient>
<linearGradient id="paint13_linear" x1="231.805" y1="60.0855" x2="233.371" y2="89.9672" gradientUnits="userSpaceOnUse">
<stop stop-color="white"/>
<stop offset="1" stop-color="#8477CE"/>
</linearGradient>
<linearGradient id="paint14_linear" x1="231.805" y1="60.0855" x2="233.371" y2="89.9672" gradientUnits="userSpaceOnUse">
<stop stop-color="white"/>
<stop offset="1" stop-color="#8477CE"/>
</linearGradient>
<linearGradient id="paint15_linear" x1="231.805" y1="60.0855" x2="233.371" y2="89.9672" gradientUnits="userSpaceOnUse">
<stop stop-color="white"/>
<stop offset="1" stop-color="#8477CE"/>
</linearGradient>
</defs>
</svg>
